Jost-500-MediumItalic.ufo
<glyph name="exclam" format="1">
  <advance width="299"/>
  <unicode hex="0021"/>
  <outline>
    <contour>
      <point x="268" y="700" type="line"/>
      <point x="402" y="700" type="line"/>
      <point x="212" y="214" type="line"/>
      <point x="126" y="214" type="line"/>
    </contour>
    <contour>
      <point x="42" y="49" type="curve" smooth="yes"/>
      <point x="42" y="88"/>
      <point x="73" y="117"/>
      <point x="113" y="117" type="curve" smooth="yes"/>
      <point x="153" y="117"/>
      <point x="185" y="88"/>
      <point x="185" y="49" type="curve" smooth="yes"/>
      <point x="185" y="10"/>
      <point x="153" y="-19"/>
      <point x="113" y="-19" type="curve" smooth="yes"/>
      <point x="73" y="-19"/>
      <point x="42" y="10"/>
    </contour>
  </outline>
</glyph>
<glyph name="quotedbl" format="1">
  <advance width="457"/>
  <unicode hex="0022"/>
  <outline>
    <contour>
      <point x="291" y="699" type="line"/>
      <point x="414" y="699" type="line"/>
      <point x="226" y="394" type="line"/>
      <point x="152" y="393" type="line"/>
    </contour>
    <contour>
      <point x="472" y="699" type="line"/>
      <point x="596" y="699" type="line"/>
      <point x="408" y="394" type="line"/>
      <point x="334" y="393" type="line"/>
    </contour>
  </outline>
</glyph>
<glyph name="numbersign" format="1">
  <advance width="592"/>
  <unicode hex="0023"/>
  <outline>
    <contour>
      <point x="163" y="429" type="line"/>
      <point x="191" y="516" type="line"/>
      <point x="684" y="516" type="line"/>
      <point x="655" y="429" type="line"/>
      <point x="522" y="428" type="line"/>
      <point x="504" y="431" type="line"/>
      <point x="318" y="431" type="line"/>
      <point x="300" y="428" type="line"/>
    </contour>
    <contour>
      <point x="42" y="189" type="line"/>
      <point x="71" y="276" type="line"/>
      <point x="193" y="277" type="line"/>
      <point x="214" y="274" type="line"/>
      <point x="413" y="274" type="line"/>
      <point x="437" y="277" type="line"/>
      <point x="564" y="276" type="line"/>
      <point x="535" y="189" type="line"/>
    </contour>
    <contour>
      <point x="615" y="699" type="line"/>
      <point x="718" y="699" type="line"/>
      <point x="316" y="0" type="line"/>
      <point x="216" y="0" type="line"/>
      <point x="346" y="226" type="line"/>
      <point x="362" y="247" type="line"/>
      <point x="482" y="459" type="line"/>
      <point x="491" y="482" type="line"/>
    </contour>
    <contour>
      <point x="406" y="699" type="line"/>
      <point x="508" y="699" type="line"/>
      <point x="383" y="485" type="line"/>
      <point x="368" y="462" type="line"/>
      <point x="246" y="247" type="line"/>
      <point x="236" y="226" type="line"/>
      <point x="106" y="0" type="line"/>
      <point x="10" y="0" type="line"/>
    </contour>
  </outline>
</glyph>
<glyph name="dollar" format="1">
  <advance width="561"/>
  <unicode hex="0024"/>
  <outline>
    <contour>
      <point x="461" y="817" type="line"/>
      <point x="554" y="817" type="line"/>
      <point x="500" y="656" type="line"/>
      <point x="413" y="656" type="line"/>
    </contour>
    <contour>
      <point x="229" y="53" type="line"/>
      <point x="316" y="53" type="line"/>
      <point x="266" y="-111" type="line"/>
      <point x="174" y="-111" type="line"/>
    </contour>
    <contour>
      <point x="543" y="504" type="line"/>
      <point x="530" y="555"/>
      <point x="510" y="609"/>
      <point x="449" y="610" type="curve" smooth="yes"/>
      <point x="398" y="611"/>
      <point x="341" y="578"/>
      <point x="324" y="528" type="curve" smooth="yes"/>
      <point x="299" y="456"/>
      <point x="382" y="427"/>
      <point x="432" y="403" type="curve" smooth="yes"/>
      <point x="517" y="362"/>
      <point x="567" y="288"/>
      <point x="541" y="192" type="curve" smooth="yes"/>
      <point x="508" y="69"/>
      <point x="386" y="-10"/>
      <point x="262" y="-9" type="curve" smooth="yes"/>
      <point x="148" y="-8"/>
      <point x="85" y="76"/>
      <point x="62" y="178" type="curve"/>
      <point x="164" y="236" type="line"/>
      <point x="178" y="169"/>
      <point x="202" y="94"/>
      <point x="285" y="94" type="curve" smooth="yes"/>
      <point x="343" y="94"/>
      <point x="401" y="132"/>
      <point x="419" y="188" type="curve" smooth="yes"/>
      <point x="443" y="261"/>
      <point x="374" y="296"/>
      <point x="319" y="323" type="curve" smooth="yes"/>
      <point x="235" y="364"/>
      <point x="178" y="436"/>
      <point x="206" y="533" type="curve" smooth="yes"/>
      <point x="237" y="640"/>
      <point x="357" y="709"/>
      <point x="464" y="709" type="curve" smooth="yes"/>
      <point x="561" y="709"/>
      <point x="620" y="648"/>
      <point x="645" y="559" type="curve"/>
    </contour>
  </outline>
</glyph>
<glyph name="percent" format="1">
  <advance width="770"/>
  <unicode hex="0025"/>
  <outline>
    <contour>
      <point x="158" y="545" type="curve" smooth="yes"/>
      <point x="185" y="634"/>
      <point x="275" y="713"/>
      <point x="371" y="713" type="curve" smooth="yes"/>
      <point x="465" y="713"/>
      <point x="508" y="627"/>
      <point x="483" y="543" type="curve" smooth="yes"/>
      <point x="456" y="454"/>
      <point x="365" y="374"/>
      <point x="269" y="374" type="curve" smooth="yes"/>
      <point x="175" y="374"/>
      <point x="133" y="461"/>
    </contour>
    <contour>
      <point x="247" y="543" type="curve" smooth="yes"/>
      <point x="235" y="509"/>
      <point x="244" y="463"/>
      <point x="289" y="461" type="curve" smooth="yes"/>
      <point x="333" y="459"/>
      <point x="380" y="505"/>
      <point x="393" y="544" type="curve" smooth="yes"/>
      <point x="405" y="578"/>
      <point x="397" y="624"/>
      <point x="352" y="626" type="curve" smooth="yes"/>
      <point x="308" y="628"/>
      <point x="260" y="582"/>
    </contour>
    <contour>
      <point x="420" y="158" type="curve" smooth="yes"/>
      <point x="447" y="247"/>
      <point x="537" y="326"/>
      <point x="633" y="326" type="curve" smooth="yes"/>
      <point x="727" y="326"/>
      <point x="770" y="240"/>
      <point x="745" y="156" type="curve" smooth="yes"/>
      <point x="718" y="67"/>
      <point x="627" y="-13"/>
      <point x="531" y="-13" type="curve" smooth="yes"/>
      <point x="437" y="-13"/>
      <point x="395" y="74"/>
    </contour>
    <contour>
      <point x="509" y="156" type="curve" smooth="yes"/>
      <point x="497" y="122"/>
      <point x="507" y="77"/>
      <point x="550" y="75" type="curve" smooth="yes"/>
      <point x="594" y="73"/>
      <point x="641" y="115"/>
      <point x="656" y="157" type="curve" smooth="yes"/>
      <point x="668" y="191"/>
      <point x="658" y="237"/>
      <point x="615" y="239" type="curve" smooth="yes"/>
      <point x="571" y="241"/>
      <point x="524" y="198"/>
    </contour>
    <contour>
      <point x="743" y="699" type="line"/>
      <point x="857" y="699" type="line"/>
      <point x="159" y="0" type="line"/>
      <point x="49" y="0" type="line"/>
    </contour>
  </outline>
</glyph>
<glyph name="ampersand" format="1">
  <advance width="664"/>
  <unicode hex="0026"/>
  <outline>
    <contour>
      <point x="295" y="379" type="line" smooth="yes"/>
      <point x="265" y="433"/>
      <point x="230" y="487"/>
      <point x="247" y="552" type="curve" smooth="yes"/>
      <point x="272" y="647"/>
      <point x="375" y="714"/>
      <point x="471" y="713" type="curve" smooth="yes"/>
      <point x="561" y="712"/>
      <point x="625" y="640"/>
      <point x="600" y="550" type="curve" smooth="yes"/>
      <point x="575" y="457"/>
      <point x="476" y="401"/>
      <point x="397" y="359" type="curve" smooth="yes"/>
      <point x="320" y="319"/>
      <point x="201" y="287"/>
      <point x="172" y="193" type="curve" smooth="yes"/>
      <point x="153" y="131"/>
      <point x="193" y="89"/>
      <point x="254" y="86" type="curve" smooth="yes"/>
      <point x="403" y="77"/>
      <point x="534" y="231"/>
      <point x="630" y="325" type="curve"/>
      <point x="694" y="268" type="line"/>
      <point x="571" y="145"/>
      <point x="414" y="-14"/>
      <point x="226" y="-11" type="curve" smooth="yes"/>
      <point x="116" y="-9"/>
      <point x="27" y="70"/>
      <point x="58" y="185" type="curve" smooth="yes"/>
      <point x="94" y="317"/>
      <point x="231" y="365"/>
      <point x="342" y="418" type="curve" smooth="yes"/>
      <point x="396" y="445"/>
      <point x="481" y="482"/>
      <point x="499" y="546" type="curve" smooth="yes"/>
      <point x="509" y="582"/>
      <point x="494" y="620"/>
      <point x="451" y="621" type="curve" smooth="yes"/>
      <point x="408" y="622"/>
      <point x="364" y="588"/>
      <point x="351" y="547" type="curve" smooth="yes"/>
      <point x="335" y="499"/>
      <point x="369" y="454"/>
      <point x="390" y="415" type="curve" smooth="yes"/>
      <point x="610" y="0" type="line"/>
      <point x="498" y="0" type="line"/>
    </contour>
  </outline>
</glyph>
<glyph name="quotesingle" format="1">
  <advance width="276"/>
  <unicode hex="0027"/>
  <outline>
    <contour>
      <point x="291" y="699" type="line"/>
      <point x="414" y="699" type="line"/>
      <point x="226" y="394" type="line"/>
      <point x="152" y="393" type="line"/>
    </contour>
  </outline>
</glyph>
<glyph name="parenleft" format="1">
  <advance width="302"/>
  <unicode hex="0028"/>
  <outline>
    <contour>
      <point x="388" y="778" type="curve"/>
      <point x="488" y="778" type="line"/>
      <point x="382" y="628"/>
      <point x="296" y="466"/>
      <point x="241" y="290" type="curve" smooth="yes"/>
      <point x="191" y="131"/>
      <point x="166" y="-35"/>
      <point x="188" y="-201" type="curve"/>
      <point x="94" y="-201" type="line"/>
      <point x="65" y="-36"/>
      <point x="81" y="131"/>
      <point x="129" y="290" type="curve" smooth="yes"/>
      <point x="183" y="468"/>
      <point x="272" y="633"/>
    </contour>
  </outline>
</glyph>
<glyph name="parenright" format="1">
  <advance width="322"/>
  <unicode hex="0029"/>
  <outline>
    <contour>
      <point x="89" y="-200" type="curve"/>
      <point x="-11" y="-200" type="line"/>
      <point x="85" y="-50"/>
      <point x="149" y="120"/>
      <point x="179" y="290" type="curve" smooth="yes"/>
      <point x="209" y="460"/>
      <point x="206" y="630"/>
      <point x="162" y="780" type="curve"/>
      <point x="262" y="780" type="line"/>
      <point x="316" y="630"/>
      <point x="322" y="460"/>
      <point x="292" y="290" type="curve" smooth="yes"/>
      <point x="262" y="120"/>
      <point x="195" y="-50"/>
    </contour>
  </outline>
</glyph>
<glyph name="asterisk" format="1">
  <advance width="557"/>
  <unicode hex="002A"/>
  <outline>
    <contour>
      <point x="603" y="600" type="line"/>
      <point x="601" y="506" type="line"/>
      <point x="390" y="460" type="line"/>
      <point x="391" y="519" type="line"/>
    </contour>
    <contour>
      <point x="498" y="343" type="line"/>
      <point x="404" y="287" type="line"/>
      <point x="362" y="474" type="line"/>
      <point x="414" y="506" type="line"/>
    </contour>
    <contour>
      <point x="248" y="290" type="line"/>
      <point x="186" y="351" type="line"/>
      <point x="370" y="504" type="line"/>
      <point x="409" y="467" type="line"/>
    </contour>
    <contour>
      <point x="193" y="509" type="line"/>
      <point x="250" y="599" type="line"/>
      <point x="412" y="514" type="line"/>
      <point x="377" y="461" type="line"/>
    </contour>
    <contour>
      <point x="415" y="699" type="line"/>
      <point x="513" y="699" type="line"/>
      <point x="420" y="489" type="line"/>
      <point x="362" y="489" type="line"/>
    </contour>
  </outline>
</glyph>
<glyph name="plus" format="1">
  <advance width="601"/>
  <unicode hex="002B"/>
  <outline>
    <contour>
      <point x="77" y="208" type="line"/>
      <point x="113" y="314" type="line"/>
      <point x="597" y="314" type="line"/>
      <point x="560" y="207" type="line"/>
    </contour>
    <contour>
      <point x="366" y="516" type="line"/>
      <point x="481" y="517" type="line"/>
      <point x="303" y="5" type="line"/>
      <point x="194" y="6" type="line"/>
    </contour>
  </outline>
</glyph>
<glyph name="comma" format="1">
  <advance width="295"/>
  <unicode hex="002C"/>
  <outline>
    <contour>
      <point x="107" y="108" type="line"/>
      <point x="209" y="75" type="line"/>
      <point x="14" y="-169" type="line"/>
      <point x="-63" y="-146" type="line"/>
    </contour>
  </outline>
</glyph>
<glyph name="period" format="1">
  <advance width="290"/>
  <unicode hex="002E"/>
  <outline>
    <contour>
      <point x="41" y="52" type="curve" smooth="yes"/>
      <point x="41" y="90"/>
      <point x="71" y="121"/>
      <point x="111" y="121" type="curve" smooth="yes"/>
      <point x="151" y="121"/>
      <point x="182" y="90"/>
      <point x="182" y="52" type="curve" smooth="yes"/>
      <point x="182" y="14"/>
      <point x="151" y="-18"/>
      <point x="111" y="-18" type="curve" smooth="yes"/>
      <point x="71" y="-18"/>
      <point x="41" y="14"/>
    </contour>
  </outline>
</glyph>
<glyph name="slash" format="1">
  <advance width="520"/>
  <unicode hex="002F"/>
  <outline>
    <contour>
      <point x="585" y="699" type="line"/>
      <point x="697" y="699" type="line"/>
      <point x="15" y="-149" type="line"/>
      <point x="-94" y="-148" type="line"/>
    </contour>
  </outline>
</glyph>
<glyph name="zero" format="1">
  <advance width="587"/>
  <unicode hex="0030"/>
  <outline>
    <contour>
      <point x="215" y="350" type="curve" smooth="yes"/>
      <point x="190" y="280"/>
      <point x="143" y="101"/>
      <point x="266" y="97" type="curve" smooth="yes"/>
      <point x="390" y="93"/>
      <point x="470" y="252"/>
      <point x="505" y="350" type="curve" smooth="yes"/>
      <point x="530" y="420"/>
      <point x="577" y="599"/>
      <point x="454" y="603" type="curve" smooth="yes"/>
      <point x="330" y="607"/>
      <point x="250" y="448"/>
    </contour>
    <contour>
      <point x="101" y="350" type="curve" smooth="yes"/>
      <point x="154" y="511"/>
      <point x="285" y="712"/>
      <point x="475" y="711" type="curve" smooth="yes"/>
      <point x="669" y="710"/>
      <point x="663" y="485"/>
      <point x="619" y="350" type="curve" smooth="yes"/>
      <point x="566" y="189"/>
      <point x="435" y="-12"/>
      <point x="244" y="-11" type="curve" smooth="yes"/>
      <point x="50" y="-10"/>
      <point x="57" y="215"/>
    </contour>
  </outline>
</glyph>
<glyph name="one" format="1">
  <advance width="445"/>
  <unicode hex="0031"/>
  <outline>
    <contour>
      <point x="195" y="534" type="line"/>
      <point x="236" y="650" type="line"/>
      <point x="526" y="713" type="line"/>
      <point x="280" y="0" type="line"/>
      <point x="166" y="0" type="line"/>
      <point x="365" y="577" type="line"/>
    </contour>
  </outline>
</glyph>
<glyph name="two" format="1">
  <advance width="568"/>
  <unicode hex="0032"/>
  <outline>
    <contour>
      <point x="-18" y="0" type="line"/>
      <point x="388" y="341" type="line" smooth="yes"/>
      <point x="437" y="382"/>
      <point x="497" y="431"/>
      <point x="516" y="496" type="curve" smooth="yes"/>
      <point x="532" y="551"/>
      <point x="506" y="602"/>
      <point x="445" y="604" type="curve" smooth="yes"/>
      <point x="358" y="607"/>
      <point x="304" y="522"/>
      <point x="273" y="453" type="curve"/>
      <point x="159" y="453" type="line"/>
      <point x="207" y="587"/>
      <point x="312" y="713"/>
      <point x="466" y="712" type="curve" smooth="yes"/>
      <point x="582" y="711"/>
      <point x="668" y="619"/>
      <point x="636" y="502" type="curve" smooth="yes"/>
      <point x="614" y="422"/>
      <point x="553" y="355"/>
      <point x="489" y="304" type="curve" smooth="yes"/>
      <point x="243" y="112" type="line"/>
      <point x="525" y="111" type="line"/>
      <point x="491" y="0" type="line"/>
    </contour>
  </outline>
</glyph>
<glyph name="three" format="1">
  <advance width="541"/>
  <unicode hex="0033"/>
  <outline>
    <contour>
      <point x="318" y="343" type="curve"/>
      <point x="335" y="406" type="line"/>
      <point x="401" y="417"/>
      <point x="478" y="445"/>
      <point x="500" y="516" type="curve" smooth="yes"/>
      <point x="514" y="561"/>
      <point x="497" y="607"/>
      <point x="445" y="609" type="curve" smooth="yes"/>
      <point x="383" y="611"/>
      <point x="341" y="562"/>
      <point x="313" y="514" type="curve"/>
      <point x="203" y="515" type="line"/>
      <point x="246" y="624"/>
      <point x="339" y="711"/>
      <point x="463" y="711" type="curve" smooth="yes"/>
      <point x="569" y="711"/>
      <point x="646" y="628"/>
      <point x="616" y="521" type="curve" smooth="yes"/>
      <point x="579" y="391"/>
      <point x="437" y="350"/>
    </contour>
    <contour>
      <point x="248" y="-12" type="curve" smooth="yes"/>
      <point x="120" y="-11"/>
      <point x="57" y="79"/>
      <point x="76" y="200" type="curve"/>
      <point x="189" y="199" type="line"/>
      <point x="183" y="139"/>
      <point x="201" y="94"/>
      <point x="269" y="92" type="curve" smooth="yes"/>
      <point x="335" y="90"/>
      <point x="400" y="139"/>
      <point x="420" y="201" type="curve" smooth="yes"/>
      <point x="447" y="283"/>
      <point x="377" y="309"/>
      <point x="310" y="317" type="curve"/>
      <point x="329" y="384" type="line"/>
      <point x="446" y="377"/>
      <point x="571" y="328"/>
      <point x="532" y="187" type="curve" smooth="yes"/>
      <point x="498" y="65"/>
      <point x="370" y="-13"/>
    </contour>
  </outline>
</glyph>
<glyph name="four" format="1">
  <advance width="592"/>
  <unicode hex="0034"/>
  <outline>
    <contour>
      <point x="6" y="135" type="line"/>
      <point x="568" y="698" type="line"/>
      <point x="643" y="699" type="line"/>
      <point x="404" y="0" type="line"/>
      <point x="284" y="0" type="line"/>
      <point x="345" y="176" type="line"/>
      <point x="356" y="187" type="line"/>
      <point x="457" y="475" type="line"/>
      <point x="210" y="229" type="line"/>
      <point x="426" y="228" type="line"/>
      <point x="445" y="237" type="line"/>
      <point x="590" y="237" type="line"/>
      <point x="555" y="134" type="line"/>
    </contour>
  </outline>
</glyph>
<glyph name="five" format="1">
  <advance width="561"/>
  <unicode hex="0035"/>
  <outline>
    <contour>
      <point x="562" y="227" type="curve" smooth="yes"/>
      <point x="523" y="90"/>
      <point x="392" y="-10"/>
      <point x="249" y="-11" type="curve" smooth="yes"/>
      <point x="150" y="-11"/>
      <point x="79" y="39"/>
      <point x="32" y="115" type="curve"/>
      <point x="121" y="198" type="line"/>
      <point x="148" y="145"/>
      <point x="188" y="101"/>
      <point x="255" y="100" type="curve" smooth="yes"/>
      <point x="336" y="99"/>
      <point x="417" y="157"/>
      <point x="442" y="235" type="curve" smooth="yes"/>
      <point x="464" y="306"/>
      <point x="425" y="364"/>
      <point x="350" y="368" type="curve" smooth="yes"/>
      <point x="281" y="371"/>
      <point x="215" y="343"/>
      <point x="153" y="316" type="curve"/>
      <point x="357" y="700" type="line"/>
      <point x="702" y="700" type="line"/>
      <point x="668" y="595" type="line"/>
      <point x="417" y="596" type="line"/>
      <point x="318" y="435" type="line"/>
      <point x="353" y="449"/>
      <point x="389" y="460"/>
      <point x="427" y="460" type="curve" smooth="yes"/>
      <point x="554" y="458"/>
      <point x="592" y="333"/>
    </contour>
  </outline>
</glyph>
<glyph name="six" format="1">
  <advance width="577"/>
  <unicode hex="0036"/>
  <outline>
    <contour>
      <point x="195" y="236" type="curve" smooth="yes"/>
      <point x="173" y="170"/>
      <point x="198" y="94"/>
      <point x="277" y="93" type="curve" smooth="yes"/>
      <point x="359" y="92"/>
      <point x="435" y="163"/>
      <point x="460" y="237" type="curve" smooth="yes"/>
      <point x="482" y="303"/>
      <point x="458" y="381"/>
      <point x="379" y="382" type="curve" smooth="yes"/>
      <point x="297" y="383"/>
      <point x="220" y="310"/>
    </contour>
    <contour>
      <point x="487" y="698" type="line"/>
      <point x="642" y="698" type="line"/>
      <point x="346" y="426" type="line"/>
      <point x="323" y="425" type="line"/>
      <point x="358" y="447"/>
      <point x="393" y="464"/>
      <point x="435" y="463" type="curve" smooth="yes"/>
      <point x="557" y="461"/>
      <point x="601" y="339"/>
      <point x="572" y="236" type="curve" smooth="yes"/>
      <point x="534" y="99"/>
      <point x="402" y="-12"/>
      <point x="258" y="-12" type="curve" smooth="yes"/>
      <point x="118" y="-12"/>
      <point x="47" y="107"/>
      <point x="84" y="236" type="curve" smooth="yes"/>
      <point x="102" y="300"/>
      <point x="142" y="356"/>
      <point x="187" y="402" type="curve" smooth="yes"/>
    </contour>
  </outline>
</glyph>
<glyph name="seven" format="1">
  <advance width="523"/>
  <unicode hex="0037"/>
  <outline>
    <contour>
      <point x="172" y="588" type="line"/>
      <point x="208" y="700" type="line"/>
      <point x="708" y="699" type="line"/>
      <point x="174" y="0" type="line"/>
      <point x="44" y="0" type="line"/>
      <point x="496" y="587" type="line"/>
    </contour>
  </outline>
</glyph>
<glyph name="eight" format="1">
  <advance width="544"/>
  <unicode hex="0038"/>
  <outline>
    <contour>
      <point x="199" y="532" type="curve" smooth="yes"/>
      <point x="232" y="637"/>
      <point x="346" y="713"/>
      <point x="454" y="712" type="curve" smooth="yes"/>
      <point x="556" y="711"/>
      <point x="630" y="633"/>
      <point x="600" y="530" type="curve" smooth="yes"/>
      <point x="568" y="422"/>
      <point x="455" y="351"/>
      <point x="345" y="351" type="curve" smooth="yes"/>
      <point x="241" y="351"/>
      <point x="167" y="427"/>
    </contour>
    <contour>
      <point x="303" y="518" type="curve" smooth="yes"/>
      <point x="288" y="474"/>
      <point x="304" y="422"/>
      <point x="356" y="421" type="curve" smooth="yes"/>
      <point x="413" y="420"/>
      <point x="470" y="470"/>
      <point x="488" y="519" type="curve" smooth="yes"/>
      <point x="504" y="563"/>
      <point x="489" y="616"/>
      <point x="435" y="617" type="curve" smooth="yes"/>
      <point x="377" y="618"/>
      <point x="321" y="568"/>
    </contour>
    <contour>
      <point x="59" y="191" type="curve" smooth="yes"/>
      <point x="95" y="310"/>
      <point x="223" y="393"/>
      <point x="345" y="392" type="curve" smooth="yes"/>
      <point x="460" y="392"/>
      <point x="543" y="305"/>
      <point x="507" y="189" type="curve" smooth="yes"/>
      <point x="471" y="72"/>
      <point x="342" y="-13"/>
      <point x="221" y="-12" type="curve" smooth="yes"/>
      <point x="108" y="-11"/>
      <point x="25" y="78"/>
    </contour>
    <contour>
      <point x="177" y="206" type="curve" smooth="yes"/>
      <point x="157" y="151"/>
      <point x="178" y="90"/>
      <point x="242" y="89" type="curve" smooth="yes"/>
      <point x="311" y="88"/>
      <point x="379" y="146"/>
      <point x="401" y="207" type="curve" smooth="yes"/>
      <point x="419" y="260"/>
      <point x="397" y="321"/>
      <point x="335" y="322" type="curve" smooth="yes"/>
      <point x="267" y="323"/>
      <point x="199" y="264"/>
    </contour>
  </outline>
</glyph>
<glyph name="nine" format="1">
  <advance width="577"/>
  <unicode hex="0039"/>
  <outline>
    <contour>
      <point x="530" y="464" type="curve" smooth="yes"/>
      <point x="552" y="530"/>
      <point x="527" y="606"/>
      <point x="448" y="607" type="curve" smooth="yes"/>
      <point x="366" y="608"/>
      <point x="291" y="537"/>
      <point x="266" y="463" type="curve" smooth="yes"/>
      <point x="244" y="397"/>
      <point x="267" y="319"/>
      <point x="346" y="318" type="curve" smooth="yes"/>
      <point x="428" y="317"/>
      <point x="505" y="390"/>
    </contour>
    <contour>
      <point x="238" y="2" type="line"/>
      <point x="84" y="2" type="line"/>
      <point x="380" y="274" type="line"/>
      <point x="402" y="275" type="line"/>
      <point x="367" y="253"/>
      <point x="332" y="236"/>
      <point x="290" y="237" type="curve" smooth="yes"/>
      <point x="168" y="239"/>
      <point x="125" y="361"/>
      <point x="154" y="464" type="curve" smooth="yes"/>
      <point x="192" y="601"/>
      <point x="323" y="712"/>
      <point x="467" y="712" type="curve" smooth="yes"/>
      <point x="607" y="712"/>
      <point x="679" y="593"/>
      <point x="642" y="464" type="curve" smooth="yes"/>
      <point x="624" y="400"/>
      <point x="583" y="344"/>
      <point x="538" y="298" type="curve" smooth="yes"/>
    </contour>
  </outline>
</glyph>
<glyph name="colon" format="1">
  <advance width="290"/>
  <unicode hex="003A"/>
  <outline>
    <contour>
      <point x="38" y="52" type="curve" smooth="yes"/>
      <point x="38" y="91"/>
      <point x="69" y="122"/>
      <point x="109" y="122" type="curve" smooth="yes"/>
      <point x="149" y="122"/>
      <point x="179" y="91"/>
      <point x="179" y="52" type="curve" smooth="yes"/>
      <point x="179" y="13"/>
      <point x="149" y="-18"/>
      <point x="109" y="-18" type="curve" smooth="yes"/>
      <point x="69" y="-18"/>
      <point x="38" y="13"/>
    </contour>
    <contour>
      <point x="167" y="429" type="curve" smooth="yes"/>
      <point x="167" y="468"/>
      <point x="198" y="499"/>
      <point x="238" y="499" type="curve" smooth="yes"/>
      <point x="278" y="499"/>
      <point x="308" y="468"/>
      <point x="308" y="429" type="curve" smooth="yes"/>
      <point x="308" y="390"/>
      <point x="278" y="359"/>
      <point x="238" y="359" type="curve" smooth="yes"/>
      <point x="198" y="359"/>
      <point x="167" y="390"/>
    </contour>
  </outline>
</glyph>
<glyph name="semicolon" format="1">
  <advance width="334"/>
  <unicode hex="003B"/>
  <outline>
    <contour>
      <point x="203" y="426" type="curve" smooth="yes"/>
      <point x="203" y="465"/>
      <point x="234" y="496"/>
      <point x="274" y="496" type="curve" smooth="yes"/>
      <point x="314" y="496"/>
      <point x="345" y="465"/>
      <point x="345" y="426" type="curve" smooth="yes"/>
      <point x="345" y="387"/>
      <point x="314" y="356"/>
      <point x="274" y="356" type="curve" smooth="yes"/>
      <point x="234" y="356"/>
      <point x="203" y="387"/>
    </contour>
    <contour>
      <point x="116" y="108" type="line"/>
      <point x="217" y="75" type="line"/>
      <point x="23" y="-169" type="line"/>
      <point x="-54" y="-146" type="line"/>
    </contour>
  </outline>
</glyph>
<glyph name="less" format="1">
  <advance width="602"/>
  <unicode hex="003C"/>
  <outline>
    <contour>
      <point x="254" y="257" type="line"/>
      <point x="529" y="108" type="line"/>
      <point x="492" y="11" type="line"/>
      <point x="83" y="228" type="line"/>
      <point x="106" y="295" type="line"/>
      <point x="667" y="515" type="line"/>
      <point x="627" y="398" type="line"/>
    </contour>
  </outline>
</glyph>
<glyph name="equal" format="1">
  <advance width="581"/>
  <unicode hex="003D"/>
  <outline>
    <contour>
      <point x="43" y="118" type="line"/>
      <point x="76" y="215" type="line"/>
      <point x="548" y="215" type="line"/>
      <point x="514" y="117" type="line"/>
    </contour>
    <contour>
      <point x="102" y="291" type="line"/>
      <point x="135" y="388" type="line"/>
      <point x="607" y="388" type="line"/>
      <point x="574" y="290" type="line"/>
    </contour>
  </outline>
</glyph>
<glyph name="greater" format="1">
  <advance width="602"/>
  <unicode hex="003E"/>
  <outline>
    <contour>
      <point x="417" y="263" type="line"/>
      <point x="143" y="412" type="line"/>
      <point x="179" y="509" type="line"/>
      <point x="588" y="292" type="line"/>
      <point x="566" y="225" type="line"/>
      <point x="5" y="5" type="line"/>
      <point x="44" y="123" type="line"/>
    </contour>
  </outline>
</glyph>
<glyph name="question" format="1">
  <advance width="550"/>
  <unicode hex="003F"/>
  <outline>
    <contour>
      <point x="509" y="500" type="curve" smooth="yes"/>
      <point x="532" y="564"/>
      <point x="499" y="615"/>
      <point x="431" y="616" type="curve" smooth="yes"/>
      <point x="365" y="618"/>
      <point x="307" y="574"/>
      <point x="260" y="533" type="curve"/>
      <point x="197" y="595" type="line"/>
      <point x="270" y="660"/>
      <point x="358" y="715"/>
      <point x="460" y="713" type="curve" smooth="yes"/>
      <point x="579" y="711"/>
      <point x="652" y="613"/>
      <point x="616" y="499" type="curve" smooth="yes"/>
      <point x="579" y="380"/>
      <point x="463" y="312"/>
      <point x="347" y="288" type="curve"/>
      <point x="303" y="184" type="line"/>
      <point x="218" y="184" type="line"/>
      <point x="256" y="359" type="line"/>
      <point x="281" y="359" type="line"/>
      <point x="369" y="363"/>
      <point x="477" y="411"/>
    </contour>
    <contour>
      <point x="143" y="48" type="curve" smooth="yes"/>
      <point x="143" y="84"/>
      <point x="174" y="113"/>
      <point x="212" y="113" type="curve" smooth="yes"/>
      <point x="251" y="113"/>
      <point x="281" y="83"/>
      <point x="281" y="48" type="curve" smooth="yes"/>
      <point x="281" y="11"/>
      <point x="250" y="-18"/>
      <point x="212" y="-18" type="curve" smooth="yes"/>
      <point x="172" y="-18"/>
      <point x="143" y="12"/>
    </contour>
  </outline>
</glyph>
<glyph name="at" format="1">
  <advance width="724"/>
  <unicode hex="0040"/>
  <outline>
    <contour>
      <point x="324" y="320" type="curve" smooth="yes"/>
      <point x="313" y="288"/>
      <point x="313" y="245"/>
      <point x="354" y="240" type="curve" smooth="yes"/>
      <point x="416" y="232"/>
      <point x="480" y="316"/>
      <point x="497" y="368" type="curve" smooth="yes"/>
      <point x="508" y="401"/>
      <point x="505" y="443"/>
      <point x="464" y="447" type="curve" smooth="yes"/>
      <point x="403" y="453"/>
      <point x="341" y="370"/>
    </contour>
    <contour>
      <point x="233" y="316" type="curve" smooth="yes"/>
      <point x="261" y="411"/>
      <point x="358" y="534"/>
      <point x="468" y="529" type="curve" smooth="yes"/>
      <point x="553" y="526"/>
      <point x="557" y="432"/>
      <point x="538" y="369" type="curve" smooth="yes"/>
      <point x="510" y="274"/>
      <point x="426" y="156"/>
      <point x="315" y="158" type="curve" smooth="yes"/>
      <point x="227" y="160"/>
      <point x="212" y="246"/>
    </contour>
    <contour>
      <point x="80" y="320" type="curve" smooth="yes"/>
      <point x="146" y="525"/>
      <point x="347" y="716"/>
      <point x="572" y="715" type="curve" smooth="yes"/>
      <point x="755" y="714"/>
      <point x="831" y="550"/>
      <point x="779" y="390" type="curve" smooth="yes"/>
      <point x="745" y="287"/>
      <point x="652" y="139"/>
      <point x="527" y="147" type="curve" smooth="yes"/>
      <point x="454" y="151"/>
      <point x="457" y="213"/>
      <point x="469" y="268" type="curve"/>
      <point x="463" y="281" type="line"/>
      <point x="573" y="519" type="line"/>
      <point x="663" y="519" type="line"/>
      <point x="552" y="297" type="line" smooth="yes"/>
      <point x="548" y="288"/>
      <point x="543" y="279"/>
      <point x="540" y="270" type="curve" smooth="yes"/>
      <point x="536" y="254"/>
      <point x="532" y="233"/>
      <point x="552" y="227" type="curve" smooth="yes"/>
      <point x="614" y="207"/>
      <point x="678" y="348"/>
      <point x="694" y="390" type="curve" smooth="yes"/>
      <point x="737" y="506"/>
      <point x="702" y="633"/>
      <point x="560" y="635" type="curve" smooth="yes"/>
      <point x="380" y="637"/>
      <point x="222" y="480"/>
      <point x="165" y="320" type="curve" smooth="yes"/>
      <point x="120" y="194"/>
      <point x="158" y="68"/>
      <point x="308" y="64" type="curve" smooth="yes"/>
      <point x="379" y="62"/>
      <point x="447" y="86"/>
      <point x="511" y="112" type="curve"/>
      <point x="526" y="38" type="line"/>
      <point x="452" y="4"/>
      <point x="373" y="-17"/>
      <point x="291" y="-16" type="curve" smooth="yes"/>
      <point x="96" y="-13"/>
      <point x="24" y="148"/>
    </contour>
  </outline>
</glyph>
<glyph name="A" format="1">
  <advance width="649"/>
  <unicode hex="0041"/>
  <outline>
    <contour>
      <point x="159" y="179" type="line"/>
      <point x="213" y="278" type="line"/>
      <point x="523" y="278" type="line"/>
      <point x="510" y="179" type="line"/>
    </contour>
    <contour>
      <point x="445" y="500" type="line"/>
      <point x="255" y="244" type="line"/>
      <point x="246" y="218" type="line"/>
      <point x="79" y="0" type="line"/>
      <point x="-58" y="0" type="line"/>
      <point x="522" y="742" type="line"/>
      <point x="592" y="0" type="line"/>
      <point x="468" y="0" type="line"/>
      <point x="452" y="212" type="line"/>
      <point x="459" y="242" type="line"/>
    </contour>
  </outline>
</glyph>
<glyph name="B" format="1">
  <advance width="566"/>
  <unicode hex="0042"/>
  <outline>
    <contour>
      <point x="227" y="362" type="line"/>
      <point x="246" y="418" type="line"/>
      <point x="348" y="419" type="line" smooth="yes"/>
      <point x="405" y="420"/>
      <point x="467" y="453"/>
      <point x="488" y="511" type="curve" smooth="yes"/>
      <point x="507" y="565"/>
      <point x="475" y="600"/>
      <point x="423" y="601" type="curve" smooth="yes"/>
      <point x="340" y="602" type="line"/>
      <point x="166" y="98" type="line"/>
      <point x="249" y="99" type="line" smooth="yes"/>
      <point x="322" y="100"/>
      <point x="399" y="142"/>
      <point x="425" y="215" type="curve" smooth="yes"/>
      <point x="449" y="283"/>
      <point x="406" y="325"/>
      <point x="340" y="326" type="curve" smooth="yes"/>
      <point x="214" y="327" type="line"/>
      <point x="237" y="392" type="line"/>
      <point x="358" y="393" type="line" smooth="yes"/>
      <point x="471" y="391"/>
      <point x="576" y="328"/>
      <point x="538" y="201" type="curve" smooth="yes"/>
      <point x="498" y="69"/>
      <point x="367" y="0"/>
      <point x="238" y="0" type="curve" smooth="yes"/>
      <point x="16" y="0" type="line"/>
      <point x="256" y="700" type="line"/>
      <point x="450" y="700" type="line" smooth="yes"/>
      <point x="554" y="700"/>
      <point x="648" y="639"/>
      <point x="611" y="523" type="curve" smooth="yes"/>
      <point x="576" y="412"/>
      <point x="455" y="364"/>
      <point x="348" y="362" type="curve" smooth="yes"/>
    </contour>
  </outline>
</glyph>
<glyph name="D" format="1">
  <advance width="659"/>
  <unicode hex="0044"/>
  <outline>
    <contour>
      <point x="255" y="699" type="line"/>
      <point x="376" y="700" type="line"/>
      <point x="135" y="0" type="line"/>
      <point x="18" y="0" type="line"/>
    </contour>
    <contour>
      <point x="240" y="0" type="curve" smooth="yes"/>
      <point x="86" y="0" type="line"/>
      <point x="125" y="112" type="line"/>
      <point x="261" y="112" type="line" smooth="yes"/>
      <point x="404" y="112"/>
      <point x="526" y="217"/>
      <point x="574" y="350" type="curve" smooth="yes"/>
      <point x="618" y="470"/>
      <point x="574" y="588"/>
      <point x="437" y="588" type="curve" smooth="yes"/>
      <point x="286" y="588" type="line"/>
      <point x="326" y="700" type="line"/>
      <point x="463" y="700" type="line" smooth="yes"/>
      <point x="661" y="700"/>
      <point x="752" y="532"/>
      <point x="693" y="350" type="curve" smooth="yes"/>
      <point x="630" y="154"/>
      <point x="448" y="0"/>
    </contour>
  </outline>
</glyph>
<glyph name="E" format="1">
  <advance width="571"/>
  <unicode hex="0045"/>
  <outline>
    <contour>
      <point x="151" y="0" type="line"/>
      <point x="169" y="104" type="line"/>
      <point x="522" y="104" type="line"/>
      <point x="504" y="0" type="line"/>
    </contour>
    <contour>
      <point x="256" y="596" type="line"/>
      <point x="274" y="700" type="line"/>
      <point x="627" y="700" type="line"/>
      <point x="609" y="596" type="line"/>
    </contour>
    <contour>
      <point x="208" y="324" type="line"/>
      <point x="226" y="426" type="line"/>
      <point x="559" y="426" type="line"/>
      <point x="541" y="324" type="line"/>
    </contour>
    <contour>
      <point x="201" y="700" type="line"/>
      <point x="317" y="700" type="line"/>
      <point x="194" y="0" type="line"/>
      <point x="78" y="0" type="line"/>
    </contour>
  </outline>
</glyph>
<glyph name="F" format="1">
  <advance width="521"/>
  <unicode hex="0046"/>
  <outline>
    <contour>
      <point x="256" y="594" type="line"/>
      <point x="274" y="700" type="line"/>
      <point x="587" y="700" type="line"/>
      <point x="569" y="594" type="line"/>
    </contour>
    <contour>
      <point x="207" y="316" type="line"/>
      <point x="225" y="419" type="line"/>
      <point x="528" y="419" type="line"/>
      <point x="510" y="316" type="line"/>
    </contour>
    <contour>
      <point x="201" y="700" type="line"/>
      <point x="317" y="700" type="line"/>
      <point x="194" y="0" type="line"/>
      <point x="78" y="0" type="line"/>
    </contour>
  </outline>
</glyph>
<glyph name="G" format="1">
  <advance width="744"/>
  <unicode hex="0047"/>
  <outline>
    <contour>
      <point x="420" y="266" type="line"/>
      <point x="457" y="366" type="line"/>
      <point x="774" y="366" type="line"/>
      <point x="710" y="173"/>
      <point x="555" y="-15"/>
      <point x="331" y="-15" type="curve" smooth="yes"/>
      <point x="127" y="-15"/>
      <point x="40" y="172"/>
      <point x="98" y="350" type="curve" smooth="yes"/>
      <point x="161" y="546"/>
      <point x="353" y="712"/>
      <point x="564" y="713" type="curve" smooth="yes"/>
      <point x="677" y="714"/>
      <point x="760" y="656"/>
      <point x="804" y="554" type="curve"/>
      <point x="693" y="493" type="line"/>
      <point x="669" y="563"/>
      <point x="617" y="602"/>
      <point x="541" y="601" type="curve" smooth="yes"/>
      <point x="397" y="600"/>
      <point x="268" y="480"/>
      <point x="221" y="350" type="curve" smooth="yes"/>
      <point x="180" y="236"/>
      <point x="212" y="98"/>
      <point x="354" y="97" type="curve" smooth="yes"/>
      <point x="471" y="96"/>
      <point x="552" y="176"/>
      <point x="614" y="266" type="curve"/>
    </contour>
  </outline>
</glyph>
<glyph name="H" format="1">
  <advance width="700"/>
  <unicode hex="0048"/>
  <outline>
    <contour>
      <point x="172" y="321" type="line"/>
      <point x="209" y="430" type="line"/>
      <point x="684" y="430" type="line"/>
      <point x="646" y="321" type="line"/>
    </contour>
    <contour>
      <point x="697" y="699" type="line"/>
      <point x="817" y="700" type="line"/>
      <point x="574" y="0" type="line"/>
      <point x="460" y="0" type="line"/>
    </contour>
    <contour>
      <point x="255" y="699" type="line"/>
      <point x="374" y="700" type="line"/>
      <point x="132" y="0" type="line"/>
      <point x="18" y="0" type="line"/>
    </contour>
  </outline>
</glyph>
<glyph name="I" format="1">
  <advance width="275"/>
  <unicode hex="0049"/>
  <outline>
    <contour>
      <point x="201" y="700" type="line"/>
      <point x="321" y="700" type="line"/>
      <point x="198" y="0" type="line"/>
      <point x="78" y="0" type="line"/>
    </contour>
  </outline>
</glyph>
<glyph name="J" format="1">
  <advance width="260"/>
  <unicode hex="004A"/>
  <outline>
    <contour>
      <point x="-155" y="-88" type="line"/>
      <point x="-138" y="-107"/>
      <point x="-121" y="-124"/>
      <point x="-93" y="-122" type="curve" smooth="yes"/>
      <point x="-47" y="-119"/>
      <point x="-10" y="-76"/>
      <point x="4" y="-36" type="curve" smooth="yes"/>
      <point x="256" y="700" type="line"/>
      <point x="376" y="700" type="line"/>
      <point x="118" y="-58" type="line" smooth="yes"/>
      <point x="82" y="-156"/>
      <point x="-5" y="-228"/>
      <point x="-112" y="-227" type="curve" smooth="yes"/>
      <point x="-164" y="-226"/>
      <point x="-202" y="-206"/>
      <point x="-240" y="-173" type="curve"/>
    </contour>
  </outline>
</glyph>
<glyph name="K" format="1">
  <advance width="582"/>
  <unicode hex="004B"/>
  <outline>
    <contour>
      <point x="255" y="700" type="line"/>
      <point x="376" y="700" type="line"/>
      <point x="134" y="0" type="line"/>
      <point x="18" y="0" type="line"/>
    </contour>
    <contour>
      <point x="611" y="699" type="line"/>
      <point x="759" y="699" type="line"/>
      <point x="361" y="367" type="line"/>
      <point x="524" y="0" type="line"/>
      <point x="393" y="0" type="line"/>
      <point x="226" y="375" type="line"/>
    </contour>
  </outline>
</glyph>
<glyph name="L" format="1">
  <advance width="453"/>
  <unicode hex="004C"/>
  <outline>
    <contour>
      <point x="256" y="700" type="line"/>
      <point x="374" y="700" type="line"/>
      <point x="170" y="107" type="line"/>
      <point x="432" y="107" type="line"/>
      <point x="394" y="0" type="line"/>
      <point x="16" y="0" type="line"/>
    </contour>
  </outline>
</glyph>
<glyph name="M" format="1">
  <advance width="793"/>
  <unicode hex="004D"/>
  <outline>
    <contour>
      <point x="291" y="424" type="line"/>
      <point x="99" y="0" type="line"/>
      <point x="-23" y="0" type="line"/>
      <point x="321" y="736" type="line"/>
      <point x="428" y="264" type="line"/>
      <point x="869" y="744" type="line"/>
      <point x="704" y="0" type="line"/>
      <point x="585" y="0" type="line"/>
      <point x="686" y="414" type="line"/>
      <point x="367" y="63" type="line"/>
    </contour>
  </outline>
</glyph>
<glyph name="N" format="1">
  <advance width="735"/>
  <unicode hex="004E"/>
  <outline>
    <contour>
      <point x="737" y="700" type="line"/>
      <point x="851" y="700" type="line"/>
      <point x="600" y="-32" type="line"/>
      <point x="292" y="470" type="line"/>
      <point x="130" y="0" type="line"/>
      <point x="15" y="0" type="line"/>
      <point x="267" y="732" type="line"/>
      <point x="575" y="230" type="line"/>
    </contour>
  </outline>
</glyph>
<glyph name="O" format="1">
  <advance width="754"/>
  <unicode hex="004F"/>
  <outline>
    <contour>
      <point x="221" y="350" type="curve" smooth="yes"/>
      <point x="181" y="239"/>
      <point x="212" y="104"/>
      <point x="351" y="102" type="curve" smooth="yes"/>
      <point x="493" y="100"/>
      <point x="619" y="224"/>
      <point x="665" y="350" type="curve" smooth="yes"/>
      <point x="705" y="461"/>
      <point x="674" y="596"/>
      <point x="535" y="598" type="curve" smooth="yes"/>
      <point x="393" y="600"/>
      <point x="267" y="476"/>
    </contour>
    <contour>
      <point x="98" y="350" type="curve" smooth="yes"/>
      <point x="160" y="542"/>
      <point x="350" y="714"/>
      <point x="558" y="713" type="curve" smooth="yes"/>
      <point x="760" y="712"/>
      <point x="844" y="527"/>
      <point x="788" y="350" type="curve" smooth="yes"/>
      <point x="726" y="157"/>
      <point x="535" y="-16"/>
      <point x="326" y="-15" type="curve" smooth="yes"/>
      <point x="123" y="-14"/>
      <point x="42" y="173"/>
    </contour>
  </outline>
</glyph>
<glyph name="P" format="1">
  <advance width="543"/>
  <unicode hex="0050"/>
  <outline>
    <contour>
      <point x="255" y="699" type="line"/>
      <point x="374" y="700" type="line"/>
      <point x="132" y="0" type="line"/>
      <point x="18" y="0" type="line"/>
    </contour>
    <contour>
      <point x="287" y="596" type="line"/>
      <point x="323" y="700" type="line"/>
      <point x="449" y="700" type="line"/>
      <point x="575" y="699"/>
      <point x="657" y="612"/>
      <point x="622" y="482" type="curve" smooth="yes"/>
      <point x="586" y="348"/>
      <point x="451" y="266"/>
      <point x="316" y="265" type="curve"/>
      <point x="173" y="265" type="line"/>
      <point x="210" y="369" type="line"/>
      <point x="337" y="369" type="line"/>
      <point x="409" y="372"/>
      <point x="482" y="412"/>
      <point x="508" y="483" type="curve" smooth="yes"/>
      <point x="532" y="550"/>
      <point x="494" y="594"/>
      <point x="428" y="595" type="curve" smooth="yes"/>
    </contour>
  </outline>
</glyph>
<glyph name="Q" format="1">
  <advance width="771"/>
  <unicode hex="0051"/>
  <outline>
    <contour>
      <point x="222" y="350" type="curve" smooth="yes"/>
      <point x="181" y="237"/>
      <point x="214" y="100"/>
      <point x="355" y="98" type="curve" smooth="yes"/>
      <point x="497" y="96"/>
      <point x="623" y="216"/>
      <point x="669" y="342" type="curve" smooth="yes"/>
      <point x="710" y="455"/>
      <point x="678" y="595"/>
      <point x="536" y="597" type="curve" smooth="yes"/>
      <point x="394" y="599"/>
      <point x="268" y="476"/>
    </contour>
    <contour>
      <point x="98" y="350" type="curve" smooth="yes"/>
      <point x="160" y="543"/>
      <point x="352" y="714"/>
      <point x="560" y="713" type="curve" smooth="yes"/>
      <point x="762" y="712"/>
      <point x="844" y="526"/>
      <point x="788" y="350" type="curve" smooth="yes"/>
      <point x="726" y="157"/>
      <point x="536" y="-16"/>
      <point x="327" y="-15" type="curve" smooth="yes"/>
      <point x="124" y="-14"/>
      <point x="42" y="173"/>
    </contour>
    <contour>
      <point x="400" y="300" type="line"/>
      <point x="521" y="300" type="line"/>
      <point x="714" y="-5" type="line"/>
      <point x="591" y="-5" type="line"/>
    </contour>
  </outline>
</glyph>
<glyph name="R" format="1">
  <advance width="560"/>
  <unicode hex="0052"/>
  <outline>
    <contour>
      <point x="270" y="333" type="line"/>
      <point x="388" y="333" type="line"/>
      <point x="497" y="0" type="line"/>
      <point x="368" y="0" type="line"/>
    </contour>
    <contour>
      <point x="255" y="700" type="line"/>
      <point x="374" y="700" type="line"/>
      <point x="132" y="0" type="line"/>
      <point x="18" y="0" type="line"/>
    </contour>
    <contour>
      <point x="287" y="597" type="line"/>
      <point x="324" y="700" type="line"/>
      <point x="455" y="700" type="line" smooth="yes"/>
      <point x="580" y="700"/>
      <point x="664" y="610"/>
      <point x="627" y="481" type="curve" smooth="yes"/>
      <point x="589" y="348"/>
      <point x="454" y="264"/>
      <point x="320" y="264" type="curve" smooth="yes"/>
      <point x="173" y="264" type="line"/>
      <point x="208" y="363" type="line"/>
      <point x="335" y="363" type="line" smooth="yes"/>
      <point x="408" y="363"/>
      <point x="482" y="409"/>
      <point x="508" y="480" type="curve" smooth="yes"/>
      <point x="532" y="546"/>
      <point x="495" y="596"/>
      <point x="428" y="596" type="curve" smooth="yes"/>
    </contour>
  </outline>
</glyph>
<glyph name="S" format="1">
  <advance width="544"/>
  <unicode hex="0053"/>
  <outline>
    <contour>
      <point x="144" y="236" type="line"/>
      <point x="155" y="169"/>
      <point x="177" y="94"/>
      <point x="259" y="94" type="curve" smooth="yes"/>
      <point x="318" y="93"/>
      <point x="376" y="133"/>
      <point x="397" y="188" type="curve" smooth="yes"/>
      <point x="424" y="260"/>
      <point x="358" y="296"/>
      <point x="303" y="323" type="curve" smooth="yes"/>
      <point x="219" y="363"/>
      <point x="163" y="428"/>
      <point x="193" y="526" type="curve" smooth="yes"/>
      <point x="228" y="638"/>
      <point x="347" y="712"/>
      <point x="462" y="712" type="curve" smooth="yes"/>
      <point x="560" y="712"/>
      <point x="614" y="648"/>
      <point x="636" y="559" type="curve"/>
      <point x="532" y="505" type="line"/>
      <point x="518" y="556"/>
      <point x="495" y="604"/>
      <point x="434" y="605" type="curve" smooth="yes"/>
      <point x="384" y="606"/>
      <point x="328" y="570"/>
      <point x="311" y="522" type="curve" smooth="yes"/>
      <point x="287" y="455"/>
      <point x="370" y="426"/>
      <point x="416" y="403" type="curve" smooth="yes"/>
      <point x="502" y="362"/>
      <point x="548" y="288"/>
      <point x="519" y="192" type="curve" smooth="yes"/>
      <point x="482" y="71"/>
      <point x="359" y="-14"/>
      <point x="234" y="-14" type="curve" smooth="yes"/>
      <point x="118" y="-14"/>
      <point x="57" y="74"/>
      <point x="40" y="179" type="curve"/>
    </contour>
  </outline>
</glyph>
<glyph name="T" format="1">
  <advance width="503"/>
  <unicode hex="0054"/>
  <outline>
    <contour>
      <point x="112" y="591" type="line"/>
      <point x="131" y="700" type="line"/>
      <point x="619" y="700" type="line"/>
      <point x="600" y="591" type="line"/>
      <point x="415" y="591" type="line"/>
      <point x="311" y="0" type="line"/>
      <point x="192" y="0" type="line"/>
      <point x="296" y="591" type="line"/>
    </contour>
  </outline>
</glyph>
<glyph name="U" format="1">
  <advance width="618"/>
  <unicode hex="0055"/>
  <outline>
    <contour>
      <point x="252" y="700" type="line"/>
      <point x="369" y="700" type="line"/>
      <point x="207" y="235" type="line" smooth="yes"/>
      <point x="187" y="169"/>
      <point x="196" y="94"/>
      <point x="280" y="93" type="curve" smooth="yes"/>
      <point x="380" y="92"/>
      <point x="434" y="160"/>
      <point x="461" y="235" type="curve"/>
      <point x="621" y="700" type="line"/>
      <point x="738" y="700" type="line"/>
      <point x="578" y="230" type="line" smooth="yes"/>
      <point x="531" y="94"/>
      <point x="431" y="-17"/>
      <point x="258" y="-17" type="curve" smooth="yes"/>
      <point x="114" y="-17"/>
      <point x="49" y="102"/>
      <point x="91" y="230" type="curve"/>
    </contour>
  </outline>
</glyph>
<glyph name="V" format="1">
  <advance width="649"/>
  <unicode hex="0056"/>
  <outline>
    <contour>
      <point x="352" y="212" type="line"/>
      <point x="696" y="699" type="line"/>
      <point x="835" y="699" type="line"/>
      <point x="280" y="-42" type="line"/>
      <point x="185" y="700" type="line"/>
      <point x="311" y="700" type="line"/>
    </contour>
  </outline>
</glyph>
<glyph name="W" format="1">
  <advance width="959"/>
  <unicode hex="0057"/>
  <outline>
    <contour>
      <point x="702" y="225" type="line"/>
      <point x="1001" y="699" type="line"/>
      <point x="1140" y="699" type="line"/>
      <point x="639" y="-41" type="line"/>
      <point x="589" y="452" type="line"/>
      <point x="231" y="-42" type="line"/>
      <point x="189" y="700" type="line"/>
      <point x="319" y="700" type="line"/>
      <point x="323" y="227" type="line"/>
      <point x="673" y="740" type="line"/>
    </contour>
  </outline>
</glyph>
<glyph name="X" format="1">
  <advance width="572"/>
  <unicode hex="0058"/>
  <outline>
    <contour>
      <point x="593" y="699" type="line"/>
      <point x="739" y="699" type="line"/>
      <point x="429" y="358" type="line"/>
      <point x="530" y="0" type="line"/>
      <point x="397" y="0" type="line"/>
      <point x="340" y="264" type="line"/>
      <point x="113" y="0" type="line"/>
      <point x="-33" y="0" type="line"/>
      <point x="305" y="369" type="line"/>
      <point x="214" y="700" type="line"/>
      <point x="347" y="700" type="line"/>
      <point x="395" y="468" type="line"/>
    </contour>
  </outline>
</glyph>
<glyph name="Y" format="1">
  <advance width="565"/>
  <unicode hex="0059"/>
  <outline>
    <contour>
      <point x="616" y="699" type="line"/>
      <point x="755" y="699" type="line"/>
      <point x="387" y="289" type="line"/>
      <point x="287" y="0" type="line"/>
      <point x="169" y="0" type="line"/>
      <point x="274" y="301" type="line"/>
      <point x="189" y="700" type="line"/>
      <point x="314" y="700" type="line"/>
      <point x="363" y="405" type="line"/>
    </contour>
  </outline>
</glyph>
<glyph name="Z" format="1">
  <advance width="541"/>
  <unicode hex="005A"/>
  <outline>
    <contour>
      <point x="186" y="590" type="line"/>
      <point x="225" y="700" type="line"/>
      <point x="716" y="699" type="line"/>
      <point x="182" y="108" type="line"/>
      <point x="486" y="107" type="line"/>
      <point x="448" y="0" type="line"/>
      <point x="-49" y="0" type="line"/>
      <point x="484" y="589" type="line"/>
    </contour>
  </outline>
</glyph>
<glyph name="bracketleft" format="1">
  <advance width="306"/>
  <unicode hex="005B"/>
  <outline>
    <contour>
      <point x="372" y="682" type="line"/>
      <point x="123" y="-122" type="line"/>
      <point x="219" y="-122" type="line"/>
      <point x="188" y="-220" type="line"/>
      <point x="-14" y="-220" type="line"/>
      <point x="295" y="780" type="line"/>
      <point x="497" y="780" type="line"/>
      <point x="466" y="682" type="line"/>
    </contour>
  </outline>
</glyph>
<glyph name="backslash" format="1">
  <advance width="495"/>
  <unicode hex="005C"/>
  <outline>
    <contour>
      <point x="198" y="701" type="line"/>
      <point x="302" y="700" type="line"/>
      <point x="426" y="0" type="line"/>
      <point x="327" y="0" type="line"/>
    </contour>
  </outline>
</glyph>
<glyph name="bracketright" format="1">
  <advance width="306"/>
  <unicode hex="005D"/>
  <outline>
    <contour>
      <point x="39" y="-122" type="line"/>
      <point x="287" y="682" type="line"/>
      <point x="192" y="682" type="line"/>
      <point x="223" y="780" type="line"/>
      <point x="425" y="780" type="line"/>
      <point x="116" y="-220" type="line"/>
      <point x="-86" y="-220" type="line"/>
      <point x="-56" y="-122" type="line"/>
    </contour>
  </outline>
</glyph>
<glyph name="asciicircum" format="1">
  <advance width="510"/>
  <unicode hex="005E"/>
  <outline>
    <contour>
      <point x="362" y="605" type="line"/>
      <point x="238" y="455" type="line"/>
      <point x="135" y="455" type="line"/>
      <point x="350" y="710" type="line"/>
      <point x="410" y="710" type="line"/>
      <point x="535" y="455" type="line"/>
      <point x="432" y="455" type="line"/>
    </contour>
  </outline>
</glyph>
<glyph name="underscore" format="1">
  <advance width="481"/>
  <unicode hex="005F"/>
  <outline>
    <contour>
      <point x="-104" y="-141" type="line"/>
      <point x="-80" y="-70" type="line"/>
      <point x="406" y="-70" type="line"/>
      <point x="382" y="-141" type="line"/>
    </contour>
  </outline>
</glyph>
<glyph name="grave" format="1">
  <advance width="375"/>
  <unicode hex="0060"/>
  <outline>
    <contour>
      <point x="182" y="658" type="line"/>
      <point x="282" y="702" type="line"/>
      <point x="404" y="542" type="line"/>
      <point x="336" y="508" type="line"/>
    </contour>
  </outline>
</glyph>
<glyph name="a" format="1">
  <advance width="478"/>
  <unicode hex="0061"/>
  <outline>
    <contour>
      <point x="122" y="136" type="curve" smooth="yes"/>
      <point x="111" y="97"/>
      <point x="139" y="76"/>
      <point x="174" y="74" type="curve" smooth="yes"/>
      <point x="248" y="70"/>
      <point x="298" y="124"/>
      <point x="333" y="182" type="curve"/>
      <point x="331" y="128" type="line"/>
      <point x="291" y="48"/>
      <point x="221" y="-9"/>
      <point x="128" y="-9" type="curve" smooth="yes"/>
      <point x="46" y="-9"/>
      <point x="-10" y="50"/>
      <point x="14" y="132" type="curve" smooth="yes"/>
      <point x="43" y="230"/>
      <point x="150" y="282"/>
      <point x="247" y="282" type="curve" smooth="yes"/>
      <point x="301" y="282"/>
      <point x="344" y="264"/>
      <point x="381" y="226" type="curve"/>
      <point x="363" y="171" type="line"/>
      <point x="330" y="198"/>
      <point x="296" y="214"/>
      <point x="252" y="213" type="curve" smooth="yes"/>
      <point x="201" y="212"/>
      <point x="136" y="189"/>
    </contour>
    <contour>
      <point x="171" y="338" type="curve"/>
      <point x="152" y="419" type="line"/>
      <point x="212" y="448"/>
      <point x="276" y="472"/>
      <point x="344" y="471" type="curve" smooth="yes"/>
      <point x="430" y="470"/>
      <point x="513" y="421"/>
      <point x="484" y="327" type="curve"/>
      <point x="372" y="0" type="line"/>
      <point x="267" y="0" type="line"/>
      <point x="379" y="315" type="line"/>
      <point x="392" y="354"/>
      <point x="365" y="378"/>
      <point x="321" y="381" type="curve" smooth="yes"/>
      <point x="269" y="384"/>
      <point x="217" y="359"/>
    </contour>
  </outline>
</glyph>
<glyph name="b" format="1">
  <advance width="554"/>
  <unicode hex="0062"/>
  <outline>
    <contour>
      <point x="380" y="780" type="line"/>
      <point x="112" y="0" type="line"/>
      <point x="4" y="0" type="line"/>
      <point x="272" y="780" type="line"/>
    </contour>
    <contour>
      <point x="549" y="230" type="curve" smooth="yes"/>
      <point x="511" y="109"/>
      <point x="396" y="-11"/>
      <point x="262" y="-10" type="curve" smooth="yes"/>
      <point x="130" y="-9"/>
      <point x="119" y="131"/>
      <point x="151" y="230" type="curve" smooth="yes"/>
      <point x="187" y="344"/>
      <point x="281" y="468"/>
      <point x="411" y="469" type="curve" smooth="yes"/>
      <point x="544" y="470"/>
      <point x="584" y="340"/>
    </contour>
    <contour>
      <point x="440" y="230" type="curve" smooth="yes"/>
      <point x="463" y="293"/>
      <point x="447" y="373"/>
      <point x="367" y="374" type="curve" smooth="yes"/>
      <point x="288" y="375"/>
      <point x="216" y="299"/>
      <point x="190" y="230" type="curve" smooth="yes"/>
      <point x="169" y="171"/>
      <point x="179" y="90"/>
      <point x="255" y="86" type="curve" smooth="yes"/>
      <point x="337" y="82"/>
      <point x="414" y="159"/>
    </contour>
  </outline>
</glyph>
<glyph name="c" format="1">
  <advance width="454"/>
  <unicode hex="0063"/>
  <outline>
    <contour>
      <point x="171" y="230" type="curve" smooth="yes"/>
      <point x="148" y="162"/>
      <point x="174" y="88"/>
      <point x="254" y="85" type="curve" smooth="yes"/>
      <point x="318" y="83"/>
      <point x="376" y="120"/>
      <point x="423" y="160" type="curve"/>
      <point x="391" y="41" type="line"/>
      <point x="343" y="11"/>
      <point x="290" y="-9"/>
      <point x="232" y="-9" type="curve" smooth="yes"/>
      <point x="98" y="-8"/>
      <point x="28" y="106"/>
      <point x="63" y="230" type="curve" smooth="yes"/>
      <point x="100" y="362"/>
      <point x="228" y="468"/>
      <point x="367" y="469" type="curve" smooth="yes"/>
      <point x="420" y="469"/>
      <point x="465" y="452"/>
      <point x="504" y="418" type="curve"/>
      <point x="470" y="299" type="line"/>
      <point x="448" y="348"/>
      <point x="412" y="376"/>
      <point x="356" y="375" type="curve" smooth="yes"/>
      <point x="271" y="374"/>
      <point x="196" y="306"/>
    </contour>
  </outline>
</glyph>
<glyph name="e" format="1">
  <advance width="507"/>
  <unicode hex="0065"/>
  <outline>
    <contour>
      <point x="122" y="205" type="line"/>
      <point x="144" y="279" type="line"/>
      <point x="416" y="279" type="line"/>
      <point x="428" y="331"/>
      <point x="411" y="385"/>
      <point x="347" y="386" type="curve" smooth="yes"/>
      <point x="270" y="387"/>
      <point x="213" y="321"/>
      <point x="184" y="257" type="curve" smooth="yes"/>
      <point x="173" y="230" type="line"/>
      <point x="152" y="166"/>
      <point x="159" y="84"/>
      <point x="242" y="81" type="curve" smooth="yes"/>
      <point x="300" y="79"/>
      <point x="347" y="117"/>
      <point x="388" y="153" type="curve"/>
      <point x="474" y="112" type="line"/>
      <point x="407" y="43"/>
      <point x="323" y="-10"/>
      <point x="223" y="-9" type="curve" smooth="yes"/>
      <point x="89" y="-7"/>
      <point x="34" y="110"/>
      <point x="66" y="230" type="curve" smooth="yes"/>
      <point x="71" y="247"/>
      <point x="77" y="263"/>
      <point x="84" y="279" type="curve" smooth="yes"/>
      <point x="133" y="386"/>
      <point x="241" y="470"/>
      <point x="362" y="469" type="curve" smooth="yes"/>
      <point x="499" y="468"/>
      <point x="545" y="355"/>
      <point x="515" y="235" type="curve" smooth="yes"/>
      <point x="512" y="225"/>
      <point x="509" y="215"/>
      <point x="506" y="205" type="curve"/>
    </contour>
  </outline>
</glyph>
<glyph name="f" format="1">
  <advance width="291"/>
  <unicode hex="0066"/>
  <outline>
    <contour>
      <point x="130" y="460" type="line"/>
      <point x="384" y="460" type="line"/>
      <point x="350" y="364" type="line"/>
      <point x="96" y="364" type="line"/>
    </contour>
    <contour>
      <point x="445" y="665" type="line"/>
      <point x="436" y="677"/>
      <point x="427" y="690"/>
      <point x="410" y="690" type="curve" smooth="yes"/>
      <point x="370" y="690"/>
      <point x="346" y="639"/>
      <point x="334" y="608" type="curve" smooth="yes"/>
      <point x="124" y="0" type="line"/>
      <point x="19" y="0" type="line"/>
      <point x="234" y="631" type="line" smooth="yes"/>
      <point x="265" y="713"/>
      <point x="330" y="795"/>
      <point x="427" y="792" type="curve" smooth="yes"/>
      <point x="466" y="791"/>
      <point x="492" y="772"/>
      <point x="518" y="745" type="curve"/>
    </contour>
  </outline>
</glyph>
<glyph name="g" format="1">
  <advance width="551"/>
  <unicode hex="0067"/>
  <outline>
    <contour>
      <point x="-27" y="-31" type="curve"/>
      <point x="75" y="-32" type="line"/>
      <point x="69" y="-92"/>
      <point x="87" y="-137"/>
      <point x="155" y="-138" type="curve" smooth="yes"/>
      <point x="241" y="-140"/>
      <point x="310" y="-64"/>
      <point x="336" y="10" type="curve" smooth="yes"/>
      <point x="492" y="460" type="line"/>
      <point x="597" y="460" type="line"/>
      <point x="443" y="10" type="line" smooth="yes"/>
      <point x="398" y="-120"/>
      <point x="302" y="-232"/>
      <point x="150" y="-233" type="curve" smooth="yes"/>
      <point x="24" y="-234"/>
      <point x="-46" y="-151"/>
    </contour>
    <contour>
      <point x="54" y="233" type="curve" smooth="yes"/>
      <point x="92" y="354"/>
      <point x="209" y="471"/>
      <point x="342" y="470" type="curve" smooth="yes"/>
      <point x="473" y="469"/>
      <point x="485" y="332"/>
      <point x="453" y="232" type="curve" smooth="yes"/>
      <point x="418" y="119"/>
      <point x="323" y="-3"/>
      <point x="194" y="-4" type="curve" smooth="yes"/>
      <point x="61" y="-5"/>
      <point x="19" y="123"/>
    </contour>
    <contour>
      <point x="164" y="232" type="curve" smooth="yes"/>
      <point x="141" y="168"/>
      <point x="159" y="92"/>
      <point x="238" y="91" type="curve" smooth="yes"/>
      <point x="316" y="90"/>
      <point x="389" y="164"/>
      <point x="414" y="233" type="curve" smooth="yes"/>
      <point x="435" y="293"/>
      <point x="423" y="371"/>
      <point x="348" y="374" type="curve" smooth="yes"/>
      <point x="264" y="377"/>
      <point x="190" y="303"/>
    </contour>
  </outline>
</glyph>
<glyph name="h" format="1">
  <advance width="510"/>
  <unicode hex="0068"/>
  <outline>
    <contour>
      <point x="383" y="780" type="line"/>
      <point x="115" y="0" type="line"/>
      <point x="8" y="0" type="line"/>
      <point x="275" y="780" type="line"/>
    </contour>
    <contour>
      <point x="385" y="280" type="line" smooth="yes"/>
      <point x="398" y="322"/>
      <point x="404" y="377"/>
      <point x="346" y="381" type="curve" smooth="yes"/>
      <point x="284" y="385"/>
      <point x="239" y="328"/>
      <point x="211" y="281" type="curve"/>
      <point x="183" y="282" type="line"/>
      <point x="220" y="373"/>
      <point x="289" y="471"/>
      <point x="398" y="472" type="curve" smooth="yes"/>
      <point x="504" y="473"/>
      <point x="520" y="379"/>
      <point x="494" y="295" type="curve"/>
      <point x="393" y="0" type="line"/>
      <point x="288" y="0" type="line"/>
    </contour>
  </outline>
</glyph>
<glyph name="i" format="1">
  <advance width="250"/>
  <unicode hex="0069"/>
  <outline>
    <contour>
      <point x="223" y="642" type="curve" smooth="yes"/>
      <point x="223" y="680"/>
      <point x="253" y="708"/>
      <point x="291" y="708" type="curve" smooth="yes"/>
      <point x="329" y="708"/>
      <point x="359" y="680"/>
      <point x="359" y="642" type="curve" smooth="yes"/>
      <point x="359" y="604"/>
      <point x="329" y="577"/>
      <point x="291" y="577" type="curve" smooth="yes"/>
      <point x="253" y="577"/>
      <point x="223" y="604"/>
    </contour>
    <contour>
      <point x="174" y="459" type="line"/>
      <point x="282" y="459" type="line"/>
      <point x="125" y="0" type="line"/>
      <point x="20" y="0" type="line"/>
    </contour>
  </outline>
</glyph>
<glyph name="j" format="1">
  <advance width="243"/>
  <unicode hex="006A"/>
  <outline>
    <contour>
      <point x="215" y="642" type="curve" smooth="yes"/>
      <point x="215" y="680"/>
      <point x="245" y="708"/>
      <point x="283" y="708" type="curve" smooth="yes"/>
      <point x="321" y="708"/>
      <point x="351" y="680"/>
      <point x="351" y="642" type="curve" smooth="yes"/>
      <point x="351" y="604"/>
      <point x="321" y="577"/>
      <point x="283" y="577" type="curve" smooth="yes"/>
      <point x="245" y="577"/>
      <point x="215" y="604"/>
    </contour>
    <contour>
      <point x="-116" y="-100" type="line"/>
      <point x="-108" y="-112"/>
      <point x="-92" y="-124"/>
      <point x="-78" y="-125" type="curve" smooth="yes"/>
      <point x="-39" y="-128"/>
      <point x="-14" y="-71"/>
      <point x="-4" y="-43" type="curve" smooth="yes"/>
      <point x="169" y="460" type="line"/>
      <point x="275" y="460" type="line"/>
      <point x="96" y="-66" type="line" smooth="yes"/>
      <point x="65" y="-148"/>
      <point x="8" y="-230"/>
      <point x="-89" y="-227" type="curve" smooth="yes"/>
      <point x="-128" y="-226"/>
      <point x="-161" y="-207"/>
      <point x="-188" y="-180" type="curve"/>
    </contour>
  </outline>
</glyph>
<glyph name="k" format="1">
  <advance width="466"/>
  <unicode hex="006B"/>
  <outline>
    <contour>
      <point x="270" y="779" type="line"/>
      <point x="378" y="780" type="line"/>
      <point x="109" y="0" type="line"/>
      <point x="6" y="0" type="line"/>
    </contour>
    <contour>
      <point x="417" y="459" type="line"/>
      <point x="557" y="459" type="line"/>
      <point x="293" y="259" type="line"/>
      <point x="408" y="0" type="line"/>
      <point x="290" y="0" type="line"/>
      <point x="172" y="276" type="line"/>
    </contour>
  </outline>
</glyph>
<glyph name="l" format="1">
  <advance width="231"/>
  <unicode hex="006C"/>
  <outline>
    <contour>
      <point x="274" y="779" type="line"/>
      <point x="383" y="780" type="line"/>
      <point x="114" y="0" type="line"/>
      <point x="10" y="0" type="line"/>
    </contour>
  </outline>
</glyph>
<glyph name="m" format="1">
  <advance width="749"/>
  <unicode hex="006D"/>
  <outline>
    <contour>
      <point x="364" y="280" type="line" smooth="yes"/>
      <point x="376" y="318"/>
      <point x="389" y="376"/>
      <point x="333" y="380" type="curve" smooth="yes"/>
      <point x="274" y="385"/>
      <point x="233" y="327"/>
      <point x="208" y="282" type="curve"/>
      <point x="180" y="279" type="line"/>
      <point x="216" y="367"/>
      <point x="280" y="469"/>
      <point x="387" y="470" type="curve" smooth="yes"/>
      <point x="492" y="471"/>
      <point x="496" y="375"/>
      <point x="473" y="295" type="curve" smooth="yes"/>
      <point x="372" y="0" type="line"/>
      <point x="266" y="0" type="line"/>
    </contour>
    <contour>
      <point x="271" y="460" type="line"/>
      <point x="112" y="0" type="line"/>
      <point x="7" y="0" type="line"/>
      <point x="166" y="460" type="line"/>
    </contour>
    <contour>
      <point x="732" y="293" type="curve" smooth="yes"/>
      <point x="633" y="0" type="line"/>
      <point x="524" y="0" type="line"/>
      <point x="624" y="280" type="line" smooth="yes"/>
      <point x="636" y="318"/>
      <point x="649" y="376"/>
      <point x="593" y="380" type="curve" smooth="yes"/>
      <point x="534" y="385"/>
      <point x="493" y="327"/>
      <point x="468" y="282" type="curve"/>
      <point x="423" y="279" type="line"/>
      <point x="462" y="370"/>
      <point x="537" y="470"/>
      <point x="647" y="470" type="curve" smooth="yes"/>
      <point x="753" y="470"/>
      <point x="756" y="373"/>
    </contour>
  </outline>
</glyph>
<glyph name="n" format="1">
  <advance width="512"/>
  <unicode hex="006E"/>
  <outline>
    <contour>
      <point x="273" y="460" type="line"/>
      <point x="114" y="0" type="line"/>
      <point x="7" y="0" type="line"/>
      <point x="166" y="460" type="line"/>
    </contour>
    <contour>
      <point x="385" y="280" type="line" smooth="yes"/>
      <point x="398" y="322"/>
      <point x="404" y="377"/>
      <point x="346" y="381" type="curve" smooth="yes"/>
      <point x="284" y="385"/>
      <point x="238" y="329"/>
      <point x="210" y="282" type="curve"/>
      <point x="182" y="279" type="line"/>
      <point x="219" y="370"/>
      <point x="288" y="469"/>
      <point x="397" y="470" type="curve" smooth="yes"/>
      <point x="503" y="471"/>
      <point x="521" y="378"/>
      <point x="495" y="293" type="curve"/>
      <point x="395" y="0" type="line"/>
      <point x="288" y="0" type="line"/>
    </contour>
  </outline>
</glyph>
<glyph name="o" format="1">
  <advance width="529"/>
  <unicode hex="006F"/>
  <outline>
    <contour>
      <point x="66" y="230" type="curve" smooth="yes"/>
      <point x="103" y="360"/>
      <point x="231" y="470"/>
      <point x="369" y="470" type="curve" smooth="yes"/>
      <point x="503" y="470"/>
      <point x="573" y="353"/>
      <point x="538" y="230" type="curve" smooth="yes"/>
      <point x="501" y="100"/>
      <point x="373" y="-9"/>
      <point x="235" y="-9" type="curve" smooth="yes"/>
      <point x="102" y="-9"/>
      <point x="31" y="107"/>
    </contour>
    <contour>
      <point x="174" y="230" type="curve" smooth="yes"/>
      <point x="152" y="166"/>
      <point x="173" y="89"/>
      <point x="251" y="87" type="curve" smooth="yes"/>
      <point x="331" y="85"/>
      <point x="406" y="158"/>
      <point x="430" y="230" type="curve" smooth="yes"/>
      <point x="452" y="294"/>
      <point x="430" y="372"/>
      <point x="352" y="374" type="curve" smooth="yes"/>
      <point x="272" y="376"/>
      <point x="198" y="302"/>
    </contour>
  </outline>
</glyph>
<glyph name="p" format="1">
  <advance width="553"/>
  <unicode hex="0070"/>
  <outline>
    <contour>
      <point x="38" y="-219" type="line"/>
      <point x="-72" y="-220" type="line"/>
      <point x="163" y="460" type="line"/>
      <point x="267" y="459" type="line"/>
    </contour>
    <contour>
      <point x="549" y="230" type="curve" smooth="yes"/>
      <point x="511" y="109"/>
      <point x="396" y="-15"/>
      <point x="261" y="-13" type="curve" smooth="yes"/>
      <point x="127" y="-11"/>
      <point x="121" y="131"/>
      <point x="153" y="230" type="curve" smooth="yes"/>
      <point x="189" y="344"/>
      <point x="280" y="471"/>
      <point x="411" y="472" type="curve" smooth="yes"/>
      <point x="546" y="473"/>
      <point x="584" y="340"/>
    </contour>
    <contour>
      <point x="440" y="231" type="curve" smooth="yes"/>
      <point x="463" y="295"/>
      <point x="446" y="371"/>
      <point x="367" y="372" type="curve" smooth="yes"/>
      <point x="289" y="373"/>
      <point x="215" y="298"/>
      <point x="190" y="229" type="curve" smooth="yes"/>
      <point x="169" y="169"/>
      <point x="181" y="92"/>
      <point x="256" y="88" type="curve" smooth="yes"/>
      <point x="337" y="84"/>
      <point x="414" y="160"/>
    </contour>
  </outline>
</glyph>
<glyph name="q" format="1">
  <advance width="554"/>
  <unicode hex="0071"/>
  <outline>
    <contour>
      <point x="258" y="-220" type="line"/>
      <point x="492" y="460" type="line"/>
      <point x="600" y="460" type="line"/>
      <point x="366" y="-220" type="line"/>
    </contour>
    <contour>
      <point x="53" y="230" type="curve" smooth="yes"/>
      <point x="91" y="351"/>
      <point x="207" y="475"/>
      <point x="342" y="473" type="curve" smooth="yes"/>
      <point x="476" y="471"/>
      <point x="482" y="329"/>
      <point x="450" y="230" type="curve" smooth="yes"/>
      <point x="414" y="116"/>
      <point x="323" y="-11"/>
      <point x="192" y="-12" type="curve" smooth="yes"/>
      <point x="57" y="-13"/>
      <point x="18" y="120"/>
    </contour>
    <contour>
      <point x="163" y="229" type="curve" smooth="yes"/>
      <point x="140" y="165"/>
      <point x="158" y="89"/>
      <point x="237" y="88" type="curve" smooth="yes"/>
      <point x="315" y="87"/>
      <point x="388" y="162"/>
      <point x="413" y="231" type="curve" smooth="yes"/>
      <point x="434" y="291"/>
      <point x="422" y="368"/>
      <point x="347" y="372" type="curve" smooth="yes"/>
      <point x="266" y="376"/>
      <point x="189" y="300"/>
    </contour>
  </outline>
</glyph>
<glyph name="r" format="1">
  <advance width="351"/>
  <unicode hex="0072"/>
  <outline>
    <contour>
      <point x="272" y="460" type="line"/>
      <point x="113" y="0" type="line"/>
      <point x="7" y="0" type="line"/>
      <point x="166" y="460" type="line"/>
    </contour>
    <contour>
      <point x="366" y="344" type="line"/>
      <point x="352" y="356"/>
      <point x="338" y="367"/>
      <point x="318" y="368" type="curve" smooth="yes"/>
      <point x="259" y="370"/>
      <point x="222" y="304"/>
      <point x="202" y="259" type="curve"/>
      <point x="177" y="282" type="line"/>
      <point x="210" y="360"/>
      <point x="279" y="469"/>
      <point x="369" y="470" type="curve" smooth="yes"/>
      <point x="402" y="471"/>
      <point x="422" y="454"/>
      <point x="444" y="433" type="curve"/>
    </contour>
  </outline>
</glyph>
<glyph name="s" format="1">
  <advance width="399"/>
  <unicode hex="0073"/>
  <outline>
    <contour>
      <point x="93" y="166" type="line"/>
      <point x="114" y="126"/>
      <point x="142" y="76"/>
      <point x="195" y="77" type="curve" smooth="yes"/>
      <point x="224" y="77"/>
      <point x="264" y="97"/>
      <point x="273" y="126" type="curve" smooth="yes"/>
      <point x="286" y="170"/>
      <point x="238" y="189"/>
      <point x="207" y="204" type="curve" smooth="yes"/>
      <point x="148" y="232"/>
      <point x="100" y="276"/>
      <point x="119" y="347" type="curve" smooth="yes"/>
      <point x="140" y="427"/>
      <point x="219" y="469"/>
      <point x="304" y="469" type="curve" smooth="yes"/>
      <point x="370" y="469"/>
      <point x="419" y="437"/>
      <point x="454" y="387" type="curve"/>
      <point x="382" y="326" type="line"/>
      <point x="361" y="355"/>
      <point x="335" y="382"/>
      <point x="295" y="383" type="curve" smooth="yes"/>
      <point x="269" y="384"/>
      <point x="228" y="370"/>
      <point x="219" y="342" type="curve" smooth="yes"/>
      <point x="205" y="299"/>
      <point x="272" y="283"/>
      <point x="299" y="270" type="curve" smooth="yes"/>
      <point x="356" y="243"/>
      <point x="398" y="192"/>
      <point x="381" y="125" type="curve" smooth="yes"/>
      <point x="359" y="38"/>
      <point x="282" y="-14"/>
      <point x="187" y="-14" type="curve" smooth="yes"/>
      <point x="103" y="-14"/>
      <point x="52" y="40"/>
      <point x="18" y="105" type="curve"/>
    </contour>
  </outline>
</glyph>
<glyph name="t" format="1">
  <advance width="255"/>
  <unicode hex="0074"/>
  <outline>
    <contour>
      <point x="109" y="460" type="line"/>
      <point x="359" y="460" type="line"/>
      <point x="325" y="364" type="line"/>
      <point x="74" y="364" type="line"/>
    </contour>
    <contour>
      <point x="232" y="619" type="line"/>
      <point x="339" y="620" type="line"/>
      <point x="125" y="0" type="line"/>
      <point x="23" y="0" type="line"/>
    </contour>
  </outline>
</glyph>
<glyph name="u" format="1">
  <advance width="545"/>
  <unicode hex="0075"/>
  <outline>
    <contour>
      <point x="368" y="0" type="line"/>
      <point x="449" y="460" type="line"/>
      <point x="557" y="460" type="line"/>
      <point x="476" y="0" type="line"/>
    </contour>
    <contour>
      <point x="212" y="180" type="line" smooth="yes"/>
      <point x="200" y="113"/>
      <point x="221" y="77"/>
      <point x="280" y="77" type="curve" smooth="yes"/>
      <point x="341" y="77"/>
      <point x="389" y="119"/>
      <point x="400" y="180" type="curve"/>
      <point x="426" y="182" type="line"/>
      <point x="407" y="73"/>
      <point x="329" y="-10"/>
      <point x="227" y="-10" type="curve" smooth="yes"/>
      <point x="125" y="-10"/>
      <point x="79" y="52"/>
      <point x="99" y="168" type="curve" smooth="yes"/>
      <point x="150" y="460" type="line"/>
      <point x="261" y="460" type="line"/>
    </contour>
  </outline>
</glyph>
<glyph name="v" format="1">
  <advance width="447"/>
  <unicode hex="0076"/>
  <outline>
    <contour>
      <point x="107" y="460" type="line"/>
      <point x="220" y="460" type="line"/>
      <point x="240" y="171" type="line"/>
      <point x="442" y="459" type="line"/>
      <point x="562" y="459" type="line"/>
      <point x="178" y="-46" type="line"/>
    </contour>
  </outline>
</glyph>
<glyph name="w" format="1">
  <advance width="712"/>
  <unicode hex="0077"/>
  <outline>
    <contour>
      <point x="676" y="460" type="line"/>
      <point x="793" y="460" type="line"/>
      <point x="492" y="-32" type="line"/>
      <point x="488" y="128" type="line"/>
    </contour>
    <contour>
      <point x="383" y="345" type="line"/>
      <point x="439" y="495" type="line"/>
      <point x="537" y="122" type="line"/>
      <point x="492" y="-32" type="line"/>
    </contour>
    <contour>
      <point x="439" y="495" type="line"/>
      <point x="443" y="345" type="line"/>
      <point x="209" y="-32" type="line"/>
      <point x="220" y="122" type="line"/>
    </contour>
    <contour>
      <point x="81" y="460" type="line"/>
      <point x="199" y="460" type="line"/>
      <point x="271" y="128" type="line"/>
      <point x="209" y="-32" type="line"/>
    </contour>
  </outline>
</glyph>
<glyph name="x" format="1">
  <advance width="437"/>
  <unicode hex="0078"/>
  <outline>
    <contour>
      <point x="417" y="459" type="line"/>
      <point x="543" y="459" type="line"/>
      <point x="315" y="229" type="line"/>
      <point x="402" y="0" type="line"/>
      <point x="292" y="0" type="line"/>
      <point x="236" y="161" type="line"/>
      <point x="88" y="0" type="line"/>
      <point x="-41" y="0" type="line"/>
      <point x="203" y="249" type="line"/>
      <point x="119" y="460" type="line"/>
      <point x="231" y="460" type="line"/>
      <point x="282" y="316" type="line"/>
    </contour>
  </outline>
</glyph>
<glyph name="y" format="1">
  <advance width="472"/>
  <unicode hex="0079"/>
  <outline>
    <contour>
      <point x="557" y="460" type="line"/>
      <point x="137" y="-220" type="line"/>
      <point x="22" y="-220" type="line"/>
      <point x="192" y="54" type="line"/>
      <point x="77" y="460" type="line"/>
      <point x="201" y="460" type="line"/>
      <point x="284" y="96" type="line"/>
      <point x="233" y="99" type="line"/>
      <point x="441" y="460" type="line"/>
    </contour>
  </outline>
</glyph>
<glyph name="z" format="1">
  <advance width="455"/>
  <unicode hex="007A"/>
  <outline>
    <contour>
      <point x="328" y="360" type="line"/>
      <point x="113" y="360" type="line"/>
      <point x="148" y="460" type="line"/>
      <point x="552" y="460" type="line"/>
      <point x="182" y="100" type="line"/>
      <point x="403" y="100" type="line"/>
      <point x="367" y="0" type="line"/>
      <point x="-46" y="0" type="line"/>
    </contour>
  </outline>
</glyph>
<glyph name="braceleft" format="1">
  <advance width="325"/>
  <unicode hex="007B"/>
  <outline>
    <contour>
      <point x="367" y="639" type="curve" smooth="yes"/>
      <point x="321" y="490" type="line" smooth="yes"/>
      <point x="289" y="388"/>
      <point x="248" y="303"/>
      <point x="135" y="281" type="curve"/>
      <point x="140" y="300" type="line"/>
      <point x="246" y="272"/>
      <point x="222" y="175"/>
      <point x="196" y="90" type="curve" smooth="yes"/>
      <point x="148" y="-60" type="line" smooth="yes"/>
      <point x="139" y="-88"/>
      <point x="147" y="-107"/>
      <point x="176" y="-108" type="curve" smooth="yes"/>
      <point x="213" y="-109" type="line"/>
      <point x="186" y="-200" type="line"/>
      <point x="121" y="-200" type="line" smooth="yes"/>
      <point x="46" y="-200"/>
      <point x="19" y="-125"/>
      <point x="39" y="-60" type="curve" smooth="yes"/>
      <point x="101" y="140" type="line" smooth="yes"/>
      <point x="115" y="186"/>
      <point x="119" y="217"/>
      <point x="83" y="250" type="curve"/>
      <point x="107" y="330" type="line"/>
      <point x="153" y="356"/>
      <point x="174" y="391"/>
      <point x="191" y="441" type="curve" smooth="yes"/>
      <point x="251" y="641" type="line" smooth="yes"/>
      <point x="275" y="712"/>
      <point x="334" y="778"/>
      <point x="412" y="779" type="curve"/>
      <point x="487" y="779" type="line"/>
      <point x="461" y="690" type="line"/>
      <point x="429" y="690" type="line" smooth="yes"/>
      <point x="397" y="690"/>
      <point x="377" y="670"/>
    </contour>
  </outline>
</glyph>
<glyph name="bar" format="1">
  <advance width="287"/>
  <unicode hex="007C"/>
  <outline>
    <contour>
      <point x="300" y="784" type="line"/>
      <point x="403" y="784" type="line"/>
      <point x="96" y="-214" type="line"/>
      <point x="-8" y="-214" type="line"/>
    </contour>
  </outline>
</glyph>
<glyph name="braceright" format="1">
  <advance width="346"/>
  <unicode hex="007D"/>
  <outline>
    <contour>
      <point x="129" y="-60" type="curve" smooth="yes"/>
      <point x="156" y="90" type="line" smooth="yes"/>
      <point x="172" y="179"/>
      <point x="196" y="300"/>
      <point x="318" y="300" type="curve"/>
      <point x="314" y="280" type="line"/>
      <point x="192" y="280"/>
      <point x="210" y="401"/>
      <point x="226" y="490" type="curve" smooth="yes"/>
      <point x="253" y="640" type="line" smooth="yes"/>
      <point x="258" y="666"/>
      <point x="244" y="690"/>
      <point x="214" y="690" type="curve" smooth="yes"/>
      <point x="179" y="690" type="line"/>
      <point x="195" y="780" type="line"/>
      <point x="267" y="780" type="line" smooth="yes"/>
      <point x="326" y="780"/>
      <point x="385" y="739"/>
      <point x="368" y="640" type="curve" smooth="yes"/>
      <point x="333" y="440" type="line" smooth="yes"/>
      <point x="320" y="364"/>
      <point x="333" y="340"/>
      <point x="366" y="330" type="curve"/>
      <point x="352" y="250" type="line"/>
      <point x="315" y="240"/>
      <point x="293" y="216"/>
      <point x="280" y="140" type="curve" smooth="yes"/>
      <point x="244" y="-60" type="line" smooth="yes"/>
      <point x="227" y="-159"/>
      <point x="153" y="-200"/>
      <point x="94" y="-200" type="curve" smooth="yes"/>
      <point x="22" y="-200" type="line"/>
      <point x="38" y="-110" type="line"/>
      <point x="73" y="-110" type="line" smooth="yes"/>
      <point x="103" y="-110"/>
      <point x="124" y="-86"/>
    </contour>
  </outline>
</glyph>
<glyph name="asciitilde" format="1">
  <advance width="541"/>
  <unicode hex="007E"/>
  <outline>
    <contour>
      <point x="160" y="170" type="curve"/>
      <point x="72" y="176" type="line"/>
      <point x="73" y="184"/>
      <point x="72" y="193"/>
      <point x="74" y="201" type="curve" smooth="yes"/>
      <point x="82" y="230"/>
      <point x="101" y="258"/>
      <point x="122" y="280" type="curve" smooth="yes"/>
      <point x="154" y="312"/>
      <point x="199" y="335"/>
      <point x="245" y="334" type="curve" smooth="yes"/>
      <point x="286" y="334"/>
      <point x="318" y="311"/>
      <point x="348" y="286" type="curve" smooth="yes"/>
      <point x="362" y="274"/>
      <point x="383" y="253"/>
      <point x="404" y="254" type="curve" smooth="yes"/>
      <point x="427" y="255"/>
      <point x="448" y="279"/>
      <point x="457" y="299" type="curve" smooth="yes"/>
      <point x="461" y="308"/>
      <point x="461" y="319"/>
      <point x="461" y="329" type="curve"/>
      <point x="553" y="323" type="line"/>
      <point x="552" y="314"/>
      <point x="553" y="303"/>
      <point x="550" y="294" type="curve" smooth="yes"/>
      <point x="543" y="265"/>
      <point x="525" y="236"/>
      <point x="504" y="214" type="curve" smooth="yes"/>
      <point x="477" y="186"/>
      <point x="436" y="164"/>
      <point x="396" y="165" type="curve" smooth="yes"/>
      <point x="357" y="166"/>
      <point x="327" y="189"/>
      <point x="298" y="213" type="curve" smooth="yes"/>
      <point x="279" y="228"/>
      <point x="256" y="247"/>
      <point x="230" y="246" type="curve" smooth="yes"/>
      <point x="201" y="245"/>
      <point x="175" y="221"/>
      <point x="164" y="195" type="curve" smooth="yes"/>
      <point x="160" y="187"/>
      <point x="161" y="178"/>
    </contour>
  </outline>
</glyph>
<glyph name="exclamdown" format="1">
  <advance width="298"/>
  <unicode hex="00A1"/>
  <outline>
    <contour>
      <point x="80" y="-239" type="line"/>
      <point x="-54" y="-239" type="line"/>
      <point x="138" y="248" type="line"/>
      <point x="222" y="248" type="line"/>
    </contour>
    <contour>
      <point x="304" y="410" type="curve" smooth="yes"/>
      <point x="295" y="377"/>
      <point x="251" y="344"/>
      <point x="217" y="346" type="curve" smooth="yes"/>
      <point x="182" y="348"/>
      <point x="159" y="379"/>
      <point x="168" y="414" type="curve" smooth="yes"/>
      <point x="177" y="447"/>
      <point x="221" y="481"/>
      <point x="255" y="479" type="curve" smooth="yes"/>
      <point x="290" y="477"/>
      <point x="313" y="445"/>
    </contour>
  </outline>
</glyph>
<glyph name="cent" format="1">
  <advance width="545"/>
  <unicode hex="00A2"/>
  <outline>
    <contour>
      <point x="204" y="37" type="line"/>
      <point x="286" y="37" type="line"/>
      <point x="237" y="-111" type="line"/>
      <point x="148" y="-111" type="line"/>
    </contour>
    <contour>
      <point x="194" y="230" type="curve" smooth="yes"/>
      <point x="169" y="163"/>
      <point x="192" y="88"/>
      <point x="272" y="85" type="curve" smooth="yes"/>
      <point x="337" y="83"/>
      <point x="397" y="121"/>
      <point x="445" y="160" type="curve"/>
      <point x="408" y="41" type="line"/>
      <point x="360" y="11"/>
      <point x="306" y="-9"/>
      <point x="248" y="-9" type="curve" smooth="yes"/>
      <point x="114" y="-8"/>
      <point x="48" y="107"/>
      <point x="86" y="230" type="curve" smooth="yes"/>
      <point x="127" y="362"/>
      <point x="258" y="468"/>
      <point x="398" y="469" type="curve" smooth="yes"/>
      <point x="451" y="469"/>
      <point x="494" y="453"/>
      <point x="533" y="418" type="curve"/>
      <point x="496" y="298" type="line"/>
      <point x="476" y="348"/>
      <point x="440" y="376"/>
      <point x="385" y="375" type="curve" smooth="yes"/>
      <point x="302" y="374"/>
      <point x="222" y="306"/>
    </contour>
    <contour>
      <point x="385" y="577" type="line"/>
      <point x="474" y="577" type="line"/>
      <point x="418" y="429" type="line"/>
      <point x="337" y="429" type="line"/>
    </contour>
  </outline>
</glyph>
<glyph name="sterling" format="1">
  <advance width="592"/>
  <unicode hex="00A3"/>
  <outline>
    <contour>
      <point x="132" y="370" type="line"/>
      <point x="499" y="370" type="line"/>
      <point x="484" y="285" type="line"/>
      <point x="117" y="285" type="line"/>
    </contour>
    <contour>
      <point x="528" y="474" type="line"/>
      <point x="536" y="540"/>
      <point x="514" y="606"/>
      <point x="433" y="606" type="curve" smooth="yes"/>
      <point x="378" y="606"/>
      <point x="321" y="578"/>
      <point x="309" y="510" type="curve" smooth="yes"/>
      <point x="291" y="406"/>
      <point x="380" y="378"/>
      <point x="360" y="266" type="curve" smooth="yes"/>
      <point x="341" y="160"/>
      <point x="234" y="70"/>
      <point x="156" y="50" type="curve"/>
      <point x="187" y="104" type="line"/>
      <point x="544" y="104" type="line"/>
      <point x="526" y="0" type="line"/>
      <point x="59" y="0" type="line"/>
      <point x="175" y="102"/>
      <point x="237" y="171"/>
      <point x="253" y="264" type="curve" smooth="yes"/>
      <point x="270" y="358"/>
      <point x="173" y="391"/>
      <point x="196" y="519" type="curve" smooth="yes"/>
      <point x="217" y="638"/>
      <point x="325" y="710"/>
      <point x="449" y="710" type="curve" smooth="yes"/>
      <point x="589" y="710"/>
      <point x="640" y="594"/>
      <point x="631" y="512" type="curve"/>
    </contour>
  </outline>
</glyph>
<glyph name="currency" format="1">
  <advance width="578"/>
  <unicode hex="00A4"/>
  <outline>
    <contour>
      <point x="121" y="503" type="line"/>
      <point x="184" y="558" type="line"/>
      <point x="263" y="462" type="line"/>
      <point x="200" y="408" type="line"/>
    </contour>
    <contour>
      <point x="93" y="42" type="line"/>
      <point x="49" y="97" type="line"/>
      <point x="162" y="192" type="line"/>
      <point x="206" y="138" type="line"/>
    </contour>
    <contour>
      <point x="523" y="408" type="line"/>
      <point x="477" y="462" type="line"/>
      <point x="590" y="558" type="line"/>
      <point x="635" y="503" type="line"/>
    </contour>
    <contour>
      <point x="420" y="138" type="line"/>
      <point x="485" y="192" type="line"/>
      <point x="563" y="97" type="line"/>
      <point x="499" y="42" type="line"/>
    </contour>
    <contour>
      <point x="105" y="300" type="curve" smooth="yes"/>
      <point x="130" y="439"/>
      <point x="250" y="540"/>
      <point x="385" y="540" type="curve" smooth="yes"/>
      <point x="520" y="540"/>
      <point x="606" y="439"/>
      <point x="581" y="300" type="curve" smooth="yes"/>
      <point x="556" y="161"/>
      <point x="436" y="60"/>
      <point x="301" y="60" type="curve" smooth="yes"/>
      <point x="166" y="60"/>
      <point x="80" y="161"/>
    </contour>
    <contour>
      <point x="208" y="300" type="curve" smooth="yes"/>
      <point x="194" y="218"/>
      <point x="240" y="160"/>
      <point x="318" y="160" type="curve" smooth="yes"/>
      <point x="396" y="160"/>
      <point x="463" y="218"/>
      <point x="477" y="300" type="curve" smooth="yes"/>
      <point x="491" y="382"/>
      <point x="446" y="440"/>
      <point x="368" y="440" type="curve" smooth="yes"/>
      <point x="290" y="440"/>
      <point x="222" y="382"/>
    </contour>
  </outline>
</glyph>
<glyph name="yen" format="1">
  <advance width="580"/>
  <unicode hex="00A5"/>
  <outline>
    <contour>
      <point x="83" y="280" type="line"/>
      <point x="112" y="365" type="line"/>
      <point x="608" y="365" type="line"/>
      <point x="579" y="280" type="line"/>
    </contour>
    <contour>
      <point x="32" y="130" type="line"/>
      <point x="60" y="215" type="line"/>
      <point x="557" y="215" type="line"/>
      <point x="528" y="130" type="line"/>
    </contour>
    <contour>
      <point x="624" y="699" type="line"/>
      <point x="762" y="699" type="line"/>
      <point x="396" y="292" type="line"/>
      <point x="296" y="0" type="line"/>
      <point x="176" y="0" type="line"/>
      <point x="281" y="303" type="line"/>
      <point x="196" y="700" type="line"/>
      <point x="321" y="700" type="line"/>
      <point x="369" y="406" type="line"/>
    </contour>
  </outline>
</glyph>
<glyph name="brokenbar" format="1">
  <advance width="287"/>
  <unicode hex="00A6"/>
  <outline>
    <contour>
      <point x="276" y="694" type="line"/>
      <point x="380" y="694" type="line"/>
      <point x="294" y="445" type="line"/>
      <point x="190" y="445" type="line"/>
    </contour>
    <contour>
      <point x="229" y="255" type="line"/>
      <point x="143" y="6" type="line"/>
      <point x="39" y="6" type="line"/>
      <point x="125" y="255" type="line"/>
    </contour>
  </outline>
</glyph>
<glyph name="section" format="1">
  <advance width="449"/>
  <unicode hex="00A7"/>
  <outline>
    <contour>
      <point x="472" y="568" type="line"/>
      <point x="453" y="597"/>
      <point x="431" y="618"/>
      <point x="393" y="618" type="curve" smooth="yes"/>
      <point x="368" y="618"/>
      <point x="325" y="606"/>
      <point x="316" y="579" type="curve" smooth="yes"/>
      <point x="304" y="542"/>
      <point x="364" y="525"/>
      <point x="388" y="512" type="curve" smooth="yes"/>
      <point x="444" y="486"/>
      <point x="490" y="438"/>
      <point x="471" y="372" type="curve" smooth="yes"/>
      <point x="443" y="272"/>
      <point x="337" y="243"/>
      <point x="246" y="237" type="curve"/>
      <point x="258" y="273" type="line"/>
      <point x="299" y="287"/>
      <point x="350" y="309"/>
      <point x="364" y="355" type="curve" smooth="yes"/>
      <point x="380" y="406"/>
      <point x="331" y="427"/>
      <point x="294" y="446" type="curve" smooth="yes"/>
      <point x="239" y="475"/>
      <point x="195" y="519"/>
      <point x="215" y="586" type="curve" smooth="yes"/>
      <point x="239" y="666"/>
      <point x="329" y="714"/>
      <point x="408" y="715" type="curve" smooth="yes"/>
      <point x="474" y="716"/>
      <point x="525" y="687"/>
      <point x="553" y="629" type="curve"/>
    </contour>
    <contour>
      <point x="100" y="165" type="line"/>
      <point x="113" y="120"/>
      <point x="138" y="81"/>
      <point x="194" y="81" type="curve" smooth="yes"/>
      <point x="226" y="81"/>
      <point x="271" y="98"/>
      <point x="282" y="130" type="curve" smooth="yes"/>
      <point x="297" y="173"/>
      <point x="248" y="190"/>
      <point x="218" y="206" type="curve" smooth="yes"/>
      <point x="160" y="233"/>
      <point x="107" y="280"/>
      <point x="128" y="350" type="curve" smooth="yes"/>
      <point x="157" y="448"/>
      <point x="265" y="472"/>
      <point x="354" y="478" type="curve"/>
      <point x="344" y="448" type="line"/>
      <point x="303" y="432"/>
      <point x="252" y="414"/>
      <point x="236" y="369" type="curve" smooth="yes"/>
      <point x="216" y="313"/>
      <point x="272" y="292"/>
      <point x="311" y="271" type="curve" smooth="yes"/>
      <point x="366" y="242"/>
      <point x="407" y="194"/>
      <point x="389" y="129" type="curve" smooth="yes"/>
      <point x="364" y="38"/>
      <point x="265" y="-15"/>
      <point x="175" y="-14" type="curve" smooth="yes"/>
      <point x="92" y="-13"/>
      <point x="39" y="33"/>
      <point x="18" y="105" type="curve"/>
    </contour>
  </outline>
</glyph>
<glyph name="dieresis" format="1">
  <advance width="458"/>
  <unicode hex="00A8"/>
  <outline>
    <contour>
      <point x="431" y="650" type="curve" smooth="yes"/>
      <point x="438" y="682"/>
      <point x="481" y="715"/>
      <point x="514" y="713" type="curve" smooth="yes"/>
      <point x="548" y="711"/>
      <point x="570" y="680"/>
      <point x="563" y="646" type="curve" smooth="yes"/>
      <point x="556" y="614"/>
      <point x="513" y="581"/>
      <point x="480" y="583" type="curve" smooth="yes"/>
      <point x="446" y="585"/>
      <point x="424" y="616"/>
    </contour>
    <contour>
      <point x="226" y="650" type="curve" smooth="yes"/>
      <point x="233" y="682"/>
      <point x="276" y="715"/>
      <point x="309" y="713" type="curve" smooth="yes"/>
      <point x="343" y="711"/>
      <point x="365" y="680"/>
      <point x="358" y="646" type="curve" smooth="yes"/>
      <point x="351" y="614"/>
      <point x="308" y="581"/>
      <point x="275" y="583" type="curve" smooth="yes"/>
      <point x="241" y="585"/>
      <point x="219" y="616"/>
    </contour>
  </outline>
</glyph>
<glyph name="copyright" format="1">
  <advance width="800"/>
  <unicode hex="00A9"/>
  <outline>
    <contour>
      <point x="321" y="350" type="curve" smooth="yes"/>
      <point x="305" y="260"/>
      <point x="357" y="202"/>
      <point x="439" y="202" type="curve" smooth="yes"/>
      <point x="498" y="202"/>
      <point x="546" y="227"/>
      <point x="580" y="261" type="curve"/>
      <point x="565" y="177" type="line"/>
      <point x="526" y="148"/>
      <point x="484" y="132"/>
      <point x="423" y="132" type="curve" smooth="yes"/>
      <point x="299" y="132"/>
      <point x="222" y="223"/>
      <point x="244" y="350" type="curve" smooth="yes"/>
      <point x="266" y="477"/>
      <point x="376" y="568"/>
      <point x="500" y="568" type="curve" smooth="yes"/>
      <point x="561" y="568"/>
      <point x="597" y="552"/>
      <point x="626" y="523" type="curve"/>
      <point x="611" y="439" type="line"/>
      <point x="589" y="473"/>
      <point x="550" y="498"/>
      <point x="491" y="498" type="curve" smooth="yes"/>
      <point x="409" y="498"/>
      <point x="337" y="440"/>
    </contour>
    <contour>
      <point x="157" y="350" type="curve" smooth="yes"/>
      <point x="126" y="172"/>
      <point x="234" y="40"/>
      <point x="407" y="40" type="curve" smooth="yes"/>
      <point x="580" y="40"/>
      <point x="736" y="172"/>
      <point x="767" y="350" type="curve" smooth="yes"/>
      <point x="798" y="528"/>
      <point x="689" y="660"/>
      <point x="516" y="660" type="curve" smooth="yes"/>
      <point x="343" y="660"/>
      <point x="188" y="528"/>
    </contour>
    <contour>
      <point x="102" y="350" type="curve" smooth="yes"/>
      <point x="139" y="559"/>
      <point x="321" y="710"/>
      <point x="525" y="710" type="curve" smooth="yes"/>
      <point x="729" y="710"/>
      <point x="859" y="559"/>
      <point x="822" y="350" type="curve" smooth="yes"/>
      <point x="785" y="141"/>
      <point x="602" y="-10"/>
      <point x="398" y="-10" type="curve" smooth="yes"/>
      <point x="194" y="-10"/>
      <point x="65" y="141"/>
    </contour>
  </outline>
</glyph>
<glyph name="ordfeminine" format="1">
  <advance width="235"/>
  <unicode hex="00AA"/>
  <outline>
    <contour>
      <point x="197" y="530" type="curve" smooth="yes"/>
      <point x="193" y="513"/>
      <point x="205" y="498"/>
      <point x="222" y="497" type="curve" smooth="yes"/>
      <point x="258" y="494"/>
      <point x="281" y="526"/>
      <point x="301" y="550" type="curve"/>
      <point x="301" y="523" type="line"/>
      <point x="277" y="487"/>
      <point x="247" y="455"/>
      <point x="200" y="456" type="curve" smooth="yes"/>
      <point x="158" y="457"/>
      <point x="130" y="491"/>
      <point x="143" y="532" type="curve" smooth="yes"/>
      <point x="157" y="578"/>
      <point x="214" y="608"/>
      <point x="259" y="608" type="curve" smooth="yes"/>
      <point x="287" y="608"/>
      <point x="308" y="597"/>
      <point x="329" y="580" type="curve"/>
      <point x="319" y="552" type="line"/>
      <point x="302" y="563"/>
      <point x="286" y="575"/>
      <point x="264" y="574" type="curve" smooth="yes"/>
      <point x="241" y="573"/>
      <point x="203" y="555"/>
    </contour>
    <contour>
      <point x="224" y="637" type="curve"/>
      <point x="215" y="680" type="line"/>
      <point x="245" y="692"/>
      <point x="276" y="706"/>
      <point x="309" y="705" type="curve" smooth="yes"/>
      <point x="353" y="704"/>
      <point x="388" y="680"/>
      <point x="380" y="632" type="curve"/>
      <point x="322" y="461" type="line"/>
      <point x="268" y="461" type="line"/>
      <point x="328" y="625" type="line"/>
      <point x="323" y="643"/>
      <point x="322" y="654"/>
      <point x="300" y="658" type="curve" smooth="yes"/>
      <point x="275" y="662"/>
      <point x="246" y="646"/>
    </contour>
  </outline>
</glyph>
<glyph name="guillemotleft" format="1">
  <advance width="491"/>
  <unicode hex="00AB"/>
  <outline>
    <contour>
      <point x="331" y="256" type="line"/>
      <point x="407" y="61" type="line"/>
      <point x="328" y="11" type="line"/>
      <point x="233" y="262" type="line"/>
      <point x="486" y="497" type="line"/>
      <point x="538" y="440" type="line"/>
    </contour>
    <contour>
      <point x="163" y="256" type="line"/>
      <point x="240" y="61" type="line"/>
      <point x="160" y="11" type="line"/>
      <point x="65" y="262" type="line"/>
      <point x="318" y="497" type="line"/>
      <point x="370" y="440" type="line"/>
    </contour>
  </outline>
</glyph>
<glyph name="logicalnot" format="1">
  <advance width="594"/>
  <unicode hex="00AC"/>
  <outline>
    <contour>
      <point x="104" y="289" type="line"/>
      <point x="138" y="387" type="line"/>
      <point x="615" y="387" type="line"/>
      <point x="541" y="176" type="line"/>
      <point x="454" y="176" type="line"/>
      <point x="496" y="289" type="line"/>
    </contour>
  </outline>
</glyph>
<glyph name="registered" format="1">
  <advance width="752"/>
  <unicode hex="00AE"/>
  <outline>
    <contour>
      <point x="410" y="346" type="line"/>
      <point x="476" y="346" type="line"/>
      <point x="549" y="149" type="line"/>
      <point x="469" y="149" type="line"/>
    </contour>
    <contour>
      <point x="390" y="569" type="line"/>
      <point x="460" y="569" type="line"/>
      <point x="331" y="151" type="line"/>
      <point x="260" y="151" type="line"/>
    </contour>
    <contour>
      <point x="411" y="508" type="line"/>
      <point x="430" y="569" type="line"/>
      <point x="509" y="570" type="line"/>
      <point x="581" y="566"/>
      <point x="640" y="519"/>
      <point x="619" y="441" type="curve" smooth="yes"/>
      <point x="598" y="361"/>
      <point x="517" y="316"/>
      <point x="439" y="312" type="curve"/>
      <point x="350" y="312" type="line"/>
      <point x="368" y="369" type="line"/>
      <point x="445" y="370" type="line"/>
      <point x="486" y="373"/>
      <point x="534" y="397"/>
      <point x="547" y="440" type="curve" smooth="yes"/>
      <point x="559" y="480"/>
      <point x="532" y="504"/>
      <point x="495" y="508" type="curve"/>
    </contour>
    <contour>
      <point x="165" y="350" type="curve" smooth="yes"/>
      <point x="118" y="206"/>
      <point x="178" y="42"/>
      <point x="348" y="41" type="curve" smooth="yes"/>
      <point x="524" y="40"/>
      <point x="682" y="189"/>
      <point x="735" y="350" type="curve" smooth="yes"/>
      <point x="782" y="494"/>
      <point x="722" y="658"/>
      <point x="552" y="659" type="curve" smooth="yes"/>
      <point x="376" y="660"/>
      <point x="218" y="511"/>
    </contour>
    <contour>
      <point x="109" y="350" type="curve" smooth="yes"/>
      <point x="164" y="540"/>
      <point x="348" y="711"/>
      <point x="553" y="710" type="curve" smooth="yes"/>
      <point x="751" y="709"/>
      <point x="841" y="527"/>
      <point x="791" y="350" type="curve" smooth="yes"/>
      <point x="736" y="160"/>
      <point x="551" y="-11"/>
      <point x="346" y="-10" type="curve" smooth="yes"/>
      <point x="148" y="-9"/>
      <point x="59" y="173"/>
    </contour>
  </outline>
</glyph>
<glyph name="macron" format="1">
  <advance width="518"/>
  <unicode hex="00AF"/>
  <outline>
    <contour>
      <point x="184" y="589" type="line"/>
      <point x="201" y="686" type="line"/>
      <point x="560" y="686" type="line"/>
      <point x="543" y="589" type="line"/>
    </contour>
  </outline>
</glyph>
<glyph name="degree" format="1">
  <advance width="267"/>
  <unicode hex="00B0"/>
  <outline>
    <contour>
      <point x="166" y="600" type="curve" smooth="yes"/>
      <point x="185" y="663"/>
      <point x="253" y="720"/>
      <point x="320" y="719" type="curve" smooth="yes"/>
      <point x="387" y="718"/>
      <point x="422" y="659"/>
      <point x="403" y="597" type="curve" smooth="yes"/>
      <point x="384" y="534"/>
      <point x="317" y="477"/>
      <point x="249" y="478" type="curve" smooth="yes"/>
      <point x="182" y="479"/>
      <point x="147" y="538"/>
    </contour>
    <contour>
      <point x="219" y="598" type="curve" smooth="yes"/>
      <point x="208" y="568"/>
      <point x="218" y="528"/>
      <point x="255" y="527" type="curve" smooth="yes"/>
      <point x="294" y="526"/>
      <point x="337" y="564"/>
      <point x="350" y="599" type="curve" smooth="yes"/>
      <point x="361" y="629"/>
      <point x="351" y="669"/>
      <point x="314" y="670" type="curve" smooth="yes"/>
      <point x="275" y="671"/>
      <point x="232" y="633"/>
    </contour>
  </outline>
</glyph>
<glyph name="plusminus" format="1">
  <advance width="622"/>
  <unicode hex="00B1"/>
  <outline>
    <contour>
      <point x="65" y="2" type="line"/>
      <point x="83" y="102" type="line"/>
      <point x="576" y="102" type="line"/>
      <point x="558" y="2" type="line"/>
    </contour>
    <contour>
      <point x="125" y="340" type="line"/>
      <point x="143" y="442" type="line"/>
      <point x="636" y="442" type="line"/>
      <point x="618" y="340" type="line"/>
    </contour>
    <contour>
      <point x="364" y="620" type="line"/>
      <point x="477" y="620" type="line"/>
      <point x="397" y="162" type="line"/>
      <point x="284" y="162" type="line"/>
    </contour>
  </outline>
</glyph>
<glyph name="uni00B2" format="1">
  <advance width="349"/>
  <unicode hex="00B2"/>
  <outline>
    <contour>
      <point x="62" y="284" type="line"/>
      <point x="312" y="486" type="line" smooth="yes"/>
      <point x="342" y="510"/>
      <point x="383" y="541"/>
      <point x="395" y="580" type="curve" smooth="yes"/>
      <point x="404" y="610"/>
      <point x="394" y="641"/>
      <point x="359" y="644" type="curve" smooth="yes"/>
      <point x="306" y="649"/>
      <point x="271" y="594"/>
      <point x="249" y="555" type="curve"/>
      <point x="178" y="555" type="line"/>
      <point x="213" y="633"/>
      <point x="276" y="710"/>
      <point x="370" y="709" type="curve" smooth="yes"/>
      <point x="443" y="708"/>
      <point x="487" y="648"/>
      <point x="466" y="578" type="curve" smooth="yes"/>
      <point x="452" y="531"/>
      <point x="413" y="495"/>
      <point x="376" y="465" type="curve" smooth="yes"/>
      <point x="226" y="350" type="line"/>
      <point x="392" y="348" type="line"/>
      <point x="369" y="283" type="line"/>
    </contour>
  </outline>
</glyph>
<glyph name="uni00B3" format="1">
  <advance width="313"/>
  <unicode hex="00B3"/>
  <outline>
    <contour>
      <point x="249" y="487" type="curve"/>
      <point x="261" y="523" type="line"/>
      <point x="301" y="532"/>
      <point x="349" y="546"/>
      <point x="364" y="590" type="curve" smooth="yes"/>
      <point x="373" y="616"/>
      <point x="362" y="643"/>
      <point x="333" y="645" type="curve" smooth="yes"/>
      <point x="297" y="648"/>
      <point x="271" y="615"/>
      <point x="252" y="590" type="curve"/>
      <point x="183" y="591" type="line"/>
      <point x="215" y="653"/>
      <point x="267" y="707"/>
      <point x="342" y="706" type="curve" smooth="yes"/>
      <point x="406" y="705"/>
      <point x="452" y="656"/>
      <point x="432" y="592" type="curve" smooth="yes"/>
      <point x="408" y="514"/>
      <point x="320" y="494"/>
    </contour>
    <contour>
      <point x="203" y="273" type="curve" smooth="yes"/>
      <point x="123" y="274"/>
      <point x="92" y="328"/>
      <point x="100" y="400" type="curve"/>
      <point x="168" y="400" type="line"/>
      <point x="168" y="366"/>
      <point x="172" y="338"/>
      <point x="213" y="335" type="curve" smooth="yes"/>
      <point x="251" y="333"/>
      <point x="296" y="367"/>
      <point x="307" y="402" type="curve" smooth="yes"/>
      <point x="323" y="452"/>
      <point x="280" y="463"/>
      <point x="242" y="471" type="curve"/>
      <point x="255" y="510" type="line"/>
      <point x="325" y="503"/>
      <point x="401" y="477"/>
      <point x="376" y="391" type="curve" smooth="yes"/>
      <point x="355" y="320"/>
      <point x="275" y="272"/>
    </contour>
  </outline>
</glyph>
<glyph name="acute" format="1">
  <advance width="375"/>
  <unicode hex="00B4"/>
  <outline>
    <contour>
      <point x="424" y="658" type="line"/>
      <point x="218" y="508" type="line"/>
      <point x="162" y="542" type="line"/>
      <point x="340" y="702" type="line"/>
    </contour>
  </outline>
</glyph>
<glyph name="paragraph" format="1">
  <advance width="615"/>
  <unicode hex="00B6"/>
  <outline>
    <contour>
      <point x="398" y="624" type="line"/>
      <point x="411" y="700" type="line"/>
      <point x="623" y="700" type="line"/>
      <point x="610" y="624" type="line"/>
    </contour>
    <contour>
      <point x="583" y="700" type="line"/>
      <point x="679" y="700" type="line"/>
      <point x="517" y="-220" type="line"/>
      <point x="421" y="-220" type="line"/>
    </contour>
    <contour>
      <point x="411" y="700" type="line"/>
      <point x="506" y="700" type="line"/>
      <point x="344" y="-220" type="line"/>
      <point x="249" y="-220" type="line"/>
    </contour>
    <contour>
      <point x="336" y="270" type="line"/>
      <point x="211" y="270"/>
      <point x="121" y="346"/>
      <point x="146" y="485" type="curve" smooth="yes"/>
      <point x="171" y="624"/>
      <point x="286" y="700"/>
      <point x="411" y="700" type="curve"/>
    </contour>
  </outline>
</glyph>
<glyph name="periodcentered" format="1">
  <advance width="290"/>
  <unicode hex="00B7"/>
  <outline>
    <contour>
      <point x="109" y="254" type="curve" smooth="yes"/>
      <point x="118" y="287"/>
      <point x="162" y="323"/>
      <point x="197" y="321" type="curve" smooth="yes"/>
      <point x="234" y="319"/>
      <point x="255" y="284"/>
      <point x="246" y="250" type="curve" smooth="yes"/>
      <point x="237" y="217"/>
      <point x="192" y="180"/>
      <point x="157" y="182" type="curve" smooth="yes"/>
      <point x="120" y="184"/>
      <point x="100" y="220"/>
    </contour>
  </outline>
</glyph>
<glyph name="cedilla" format="1">
  <advance width="345"/>
  <unicode hex="00B8"/>
  <outline>
    <contour>
      <point x="143" y="63" type="line"/>
      <point x="227" y="61" type="line"/>
      <point x="114" y="-53" type="line"/>
      <point x="119" y="-52"/>
      <point x="124" y="-52"/>
      <point x="129" y="-52" type="curve" smooth="yes"/>
      <point x="173" y="-58"/>
      <point x="195" y="-94"/>
      <point x="184" y="-137" type="curve" smooth="yes"/>
      <point x="169" y="-195"/>
      <point x="101" y="-234"/>
      <point x="44" y="-234" type="curve" smooth="yes"/>
      <point x="4" y="-235"/>
      <point x="-25" y="-218"/>
      <point x="-55" y="-194" type="curve"/>
      <point x="-6" y="-146" type="line"/>
      <point x="10" y="-158"/>
      <point x="25" y="-170"/>
      <point x="47" y="-170" type="curve" smooth="yes"/>
      <point x="67" y="-170"/>
      <point x="109" y="-152"/>
      <point x="114" y="-130" type="curve" smooth="yes"/>
      <point x="119" y="-109"/>
      <point x="95" y="-98"/>
      <point x="79" y="-97" type="curve" smooth="yes"/>
      <point x="55" y="-95"/>
      <point x="28" y="-105"/>
      <point x="5" y="-112" type="curve"/>
    </contour>
  </outline>
</glyph>
<glyph name="uni00B9" format="1">
  <advance width="446"/>
  <unicode hex="00B9"/>
  <outline>
    <contour>
      <point x="284" y="596" type="line"/>
      <point x="306" y="663" type="line"/>
      <point x="483" y="702" type="line"/>
      <point x="335" y="275" type="line"/>
      <point x="265" y="275" type="line"/>
      <point x="382" y="619" type="line"/>
    </contour>
  </outline>
</glyph>
<glyph name="ordmasculine" format="1">
  <advance width="261"/>
  <unicode hex="00BA"/>
  <outline>
    <contour>
      <point x="160" y="581" type="curve" smooth="yes"/>
      <point x="179" y="644"/>
      <point x="247" y="700"/>
      <point x="314" y="699" type="curve" smooth="yes"/>
      <point x="381" y="698"/>
      <point x="417" y="641"/>
      <point x="398" y="579" type="curve" smooth="yes"/>
      <point x="379" y="516"/>
      <point x="311" y="460"/>
      <point x="244" y="461" type="curve" smooth="yes"/>
      <point x="177" y="462"/>
      <point x="141" y="519"/>
    </contour>
    <contour>
      <point x="214" y="579" type="curve" smooth="yes"/>
      <point x="203" y="550"/>
      <point x="213" y="510"/>
      <point x="249" y="509" type="curve" smooth="yes"/>
      <point x="287" y="508"/>
      <point x="330" y="547"/>
      <point x="343" y="581" type="curve" smooth="yes"/>
      <point x="354" y="610"/>
      <point x="344" y="650"/>
      <point x="308" y="651" type="curve" smooth="yes"/>
      <point x="270" y="652"/>
      <point x="227" y="613"/>
    </contour>
  </outline>
</glyph>
<glyph name="guillemotright" format="1">
  <advance width="491"/>
  <unicode hex="00BB"/>
  <outline>
    <contour>
      <point x="226" y="254" type="line"/>
      <point x="151" y="449" type="line"/>
      <point x="230" y="499" type="line"/>
      <point x="325" y="248" type="line"/>
      <point x="73" y="13" type="line"/>
      <point x="20" y="70" type="line"/>
    </contour>
    <contour>
      <point x="394" y="254" type="line"/>
      <point x="318" y="449" type="line"/>
      <point x="397" y="499" type="line"/>
      <point x="492" y="248" type="line"/>
      <point x="240" y="13" type="line"/>
      <point x="188" y="70" type="line"/>
    </contour>
  </outline>
</glyph>
<glyph name="onequarter" format="1">
  <advance width="735"/>
  <unicode hex="00BC"/>
  <outline>
    <contour>
      <point x="766" y="698" type="line"/>
      <point x="848" y="698" type="line"/>
      <point x="121" y="0" type="line"/>
      <point x="39" y="0" type="line"/>
    </contour>
    <contour>
      <point x="174" y="596" type="line"/>
      <point x="196" y="663" type="line"/>
      <point x="373" y="702" type="line"/>
      <point x="226" y="275" type="line"/>
      <point x="155" y="275" type="line"/>
      <point x="272" y="619" type="line"/>
    </contour>
    <contour>
      <point x="348" y="82" type="line"/>
      <point x="420" y="135" type="line"/>
      <point x="592" y="137" type="line"/>
      <point x="604" y="142" type="line"/>
      <point x="701" y="142" type="line"/>
      <point x="679" y="81" type="line"/>
    </contour>
    <contour>
      <point x="430" y="94" type="line"/>
      <point x="345" y="80" type="line"/>
      <point x="686" y="418" type="line"/>
      <point x="733" y="419" type="line"/>
      <point x="590" y="0" type="line"/>
      <point x="517" y="0" type="line"/>
      <point x="551" y="102" type="line"/>
      <point x="558" y="108" type="line"/>
      <point x="619" y="280" type="line"/>
    </contour>
  </outline>
</glyph>
<glyph name="onehalf" format="1">
  <advance width="799"/>
  <unicode hex="00BD"/>
  <outline>
    <contour>
      <point x="766" y="698" type="line"/>
      <point x="848" y="698" type="line"/>
      <point x="121" y="0" type="line"/>
      <point x="39" y="0" type="line"/>
    </contour>
    <contour>
      <point x="174" y="596" type="line"/>
      <point x="196" y="663" type="line"/>
      <point x="373" y="702" type="line"/>
      <point x="226" y="275" type="line"/>
      <point x="155" y="275" type="line"/>
      <point x="272" y="619" type="line"/>
    </contour>
    <contour>
      <point x="412" y="4" type="line"/>
      <point x="662" y="206" type="line" smooth="yes"/>
      <point x="692" y="230"/>
      <point x="733" y="261"/>
      <point x="745" y="300" type="curve" smooth="yes"/>
      <point x="754" y="330"/>
      <point x="744" y="361"/>
      <point x="709" y="364" type="curve" smooth="yes"/>
      <point x="656" y="369"/>
      <point x="621" y="314"/>
      <point x="599" y="275" type="curve"/>
      <point x="528" y="275" type="line"/>
      <point x="563" y="353"/>
      <point x="625" y="430"/>
      <point x="719" y="429" type="curve" smooth="yes"/>
      <point x="792" y="428"/>
      <point x="836" y="368"/>
      <point x="815" y="298" type="curve" smooth="yes"/>
      <point x="801" y="251"/>
      <point x="763" y="215"/>
      <point x="726" y="185" type="curve" smooth="yes"/>
      <point x="576" y="70" type="line"/>
      <point x="742" y="68" type="line"/>
      <point x="719" y="3" type="line"/>
    </contour>
  </outline>
</glyph>
<glyph name="threequarters" format="1">
  <advance width="794"/>
  <unicode hex="00BE"/>
  <outline>
    <contour>
      <point x="827" y="698" type="line"/>
      <point x="909" y="698" type="line"/>
      <point x="183" y="0" type="line"/>
      <point x="101" y="0" type="line"/>
    </contour>
    <contour>
      <point x="255" y="487" type="curve"/>
      <point x="267" y="523" type="line"/>
      <point x="307" y="532"/>
      <point x="354" y="546"/>
      <point x="369" y="590" type="curve" smooth="yes"/>
      <point x="378" y="616"/>
      <point x="368" y="643"/>
      <point x="339" y="645" type="curve" smooth="yes"/>
      <point x="303" y="648"/>
      <point x="276" y="615"/>
      <point x="257" y="590" type="curve"/>
      <point x="189" y="591" type="line"/>
      <point x="221" y="653"/>
      <point x="273" y="707"/>
      <point x="348" y="706" type="curve" smooth="yes"/>
      <point x="412" y="705"/>
      <point x="458" y="656"/>
      <point x="438" y="592" type="curve" smooth="yes"/>
      <point x="414" y="514"/>
      <point x="326" y="494"/>
    </contour>
    <contour>
      <point x="209" y="273" type="curve" smooth="yes"/>
      <point x="129" y="274"/>
      <point x="99" y="328"/>
      <point x="107" y="400" type="curve"/>
      <point x="174" y="400" type="line"/>
      <point x="174" y="366"/>
      <point x="178" y="338"/>
      <point x="219" y="335" type="curve" smooth="yes"/>
      <point x="257" y="333"/>
      <point x="302" y="367"/>
      <point x="313" y="402" type="curve" smooth="yes"/>
      <point x="329" y="452"/>
      <point x="286" y="463"/>
      <point x="248" y="471" type="curve"/>
      <point x="261" y="510" type="line"/>
      <point x="331" y="503"/>
      <point x="407" y="477"/>
      <point x="382" y="391" type="curve" smooth="yes"/>
      <point x="361" y="320"/>
      <point x="281" y="272"/>
    </contour>
    <contour>
      <point x="407" y="82" type="line"/>
      <point x="479" y="135" type="line"/>
      <point x="651" y="137" type="line"/>
      <point x="663" y="142" type="line"/>
      <point x="760" y="142" type="line"/>
      <point x="738" y="81" type="line"/>
    </contour>
    <contour>
      <point x="489" y="94" type="line"/>
      <point x="404" y="80" type="line"/>
      <point x="746" y="418" type="line"/>
      <point x="793" y="419" type="line"/>
      <point x="649" y="0" type="line"/>
      <point x="576" y="0" type="line"/>
      <point x="611" y="102" type="line"/>
      <point x="617" y="108" type="line"/>
      <point x="678" y="280" type="line"/>
    </contour>
  </outline>
</glyph>
<glyph name="questiondown" format="1">
  <advance width="550"/>
  <unicode hex="00BF"/>
  <outline>
    <contour>
      <point x="172" y="200" type="curve" smooth="yes"/>
      <point x="149" y="136"/>
      <point x="182" y="85"/>
      <point x="250" y="84" type="curve" smooth="yes"/>
      <point x="316" y="82"/>
      <point x="375" y="126"/>
      <point x="422" y="167" type="curve"/>
      <point x="485" y="105" type="line"/>
      <point x="412" y="40"/>
      <point x="324" y="-15"/>
      <point x="222" y="-13" type="curve" smooth="yes"/>
      <point x="103" y="-11"/>
      <point x="30" y="87"/>
      <point x="66" y="201" type="curve" smooth="yes"/>
      <point x="103" y="320"/>
      <point x="219" y="388"/>
      <point x="335" y="412" type="curve"/>
      <point x="379" y="516" type="line"/>
      <point x="464" y="517" type="line"/>
      <point x="426" y="341" type="line"/>
      <point x="401" y="341" type="line"/>
      <point x="313" y="337"/>
      <point x="204" y="289"/>
    </contour>
    <contour>
      <point x="536" y="650" type="curve" smooth="yes"/>
      <point x="528" y="618"/>
      <point x="481" y="585"/>
      <point x="448" y="587" type="curve" smooth="yes"/>
      <point x="414" y="589"/>
      <point x="391" y="620"/>
      <point x="399" y="654" type="curve" smooth="yes"/>
      <point x="407" y="686"/>
      <point x="453" y="720"/>
      <point x="486" y="718" type="curve" smooth="yes"/>
      <point x="520" y="716"/>
      <point x="544" y="684"/>
    </contour>
  </outline>
</glyph>
<glyph name="Agrave" format="1">
  <advance width="648"/>
  <unicode hex="00C0"/>
  <outline>
    <contour>
      <point x="159" y="181" type="line"/>
      <point x="213" y="278" type="line"/>
      <point x="523" y="279" type="line"/>
      <point x="510" y="179" type="line"/>
    </contour>
    <contour>
      <point x="447" y="501" type="line"/>
      <point x="255" y="244" type="line"/>
      <point x="245" y="218" type="line"/>
      <point x="79" y="0" type="line"/>
      <point x="-58" y="0" type="line"/>
      <point x="522" y="742" type="line"/>
      <point x="592" y="0" type="line"/>
      <point x="468" y="0" type="line"/>
      <point x="450" y="212" type="line"/>
      <point x="459" y="242" type="line"/>
    </contour>
    <contour>
      <point x="460" y="952" type="line"/>
      <point x="558" y="994" type="line"/>
      <point x="649" y="831" type="line"/>
      <point x="584" y="799" type="line"/>
    </contour>
  </outline>
</glyph>
<glyph name="Aacute" format="1">
  <advance width="648"/>
  <unicode hex="00C1"/>
  <outline>
    <contour>
      <point x="159" y="181" type="line"/>
      <point x="213" y="278" type="line"/>
      <point x="523" y="279" type="line"/>
      <point x="510" y="179" type="line"/>
    </contour>
    <contour>
      <point x="447" y="501" type="line"/>
      <point x="255" y="244" type="line"/>
      <point x="245" y="218" type="line"/>
      <point x="79" y="0" type="line"/>
      <point x="-58" y="0" type="line"/>
      <point x="522" y="742" type="line"/>
      <point x="592" y="0" type="line"/>
      <point x="468" y="0" type="line"/>
      <point x="450" y="212" type="line"/>
      <point x="459" y="242" type="line"/>
    </contour>
    <contour>
      <point x="730" y="943" type="line"/>
      <point x="513" y="801" type="line"/>
      <point x="459" y="838" type="line"/>
      <point x="651" y="993" type="line"/>
    </contour>
  </outline>
</glyph>
<glyph name="Acircumflex" format="1">
  <advance width="690"/>
  <unicode hex="00C2"/>
  <outline>
    <contour>
      <point x="194" y="180" type="line"/>
      <point x="233" y="280" type="line"/>
      <point x="559" y="280" type="line"/>
      <point x="564" y="180" type="line"/>
    </contour>
    <contour>
      <point x="434" y="502" type="line"/>
      <point x="278" y="245" type="line"/>
      <point x="272" y="219" type="line"/>
      <point x="136" y="0" type="line"/>
      <point x="2" y="0" type="line"/>
      <point x="475" y="739" type="line"/>
      <point x="688" y="0" type="line"/>
      <point x="554" y="0" type="line"/>
      <point x="497" y="213" type="line"/>
      <point x="499" y="242" type="line"/>
    </contour>
    <contour>
      <point x="497" y="860" type="line"/>
      <point x="378" y="769" type="line"/>
      <point x="315" y="821" type="line"/>
      <point x="514" y="961" type="line"/>
      <point x="665" y="821" type="line"/>
      <point x="584" y="769" type="line"/>
    </contour>
  </outline>
</glyph>
<glyph name="Atilde" format="1">
  <advance width="649"/>
  <unicode hex="00C3"/>
  <outline>
    <contour>
      <point x="159" y="180" type="line"/>
      <point x="213" y="278" type="line"/>
      <point x="523" y="279" type="line"/>
      <point x="510" y="179" type="line"/>
    </contour>
    <contour>
      <point x="447" y="500" type="line"/>
      <point x="255" y="244" type="line"/>
      <point x="246" y="218" type="line"/>
      <point x="79" y="0" type="line"/>
      <point x="-58" y="0" type="line"/>
      <point x="522" y="742" type="line"/>
      <point x="592" y="0" type="line"/>
      <point x="468" y="0" type="line"/>
      <point x="450" y="212" type="line"/>
      <point x="459" y="242" type="line"/>
    </contour>
    <contour>
      <point x="386" y="836" type="line"/>
      <point x="416" y="875"/>
      <point x="460" y="922"/>
      <point x="515" y="919" type="curve" smooth="yes"/>
      <point x="556" y="917"/>
      <point x="578" y="869"/>
      <point x="619" y="872" type="curve" smooth="yes"/>
      <point x="649" y="874"/>
      <point x="674" y="903"/>
      <point x="695" y="921" type="curve"/>
      <point x="736" y="862" type="line"/>
      <point x="704" y="828"/>
      <point x="655" y="784"/>
      <point x="603" y="788" type="curve" smooth="yes"/>
      <point x="563" y="791"/>
      <point x="540" y="839"/>
      <point x="499" y="835" type="curve" smooth="yes"/>
      <point x="469" y="832"/>
      <point x="451" y="807"/>
      <point x="434" y="786" type="curve"/>
    </contour>
  </outline>
</glyph>
<glyph name="Adieresis" format="1">
  <advance width="648"/>
  <unicode hex="00C4"/>
  <outline>
    <contour>
      <point x="159" y="181" type="line"/>
      <point x="213" y="278" type="line"/>
      <point x="523" y="279" type="line"/>
      <point x="510" y="179" type="line"/>
    </contour>
    <contour>
      <point x="447" y="501" type="line"/>
      <point x="255" y="244" type="line"/>
      <point x="245" y="218" type="line"/>
      <point x="79" y="0" type="line"/>
      <point x="-58" y="0" type="line"/>
      <point x="522" y="742" type="line"/>
      <point x="592" y="0" type="line"/>
      <point x="468" y="0" type="line"/>
      <point x="450" y="212" type="line"/>
      <point x="459" y="242" type="line"/>
    </contour>
    <contour>
      <point x="602" y="844" type="curve" smooth="yes"/>
      <point x="610" y="875"/>
      <point x="655" y="909"/>
      <point x="687" y="907" type="curve" smooth="yes"/>
      <point x="721" y="905"/>
      <point x="742" y="873"/>
      <point x="734" y="840" type="curve" smooth="yes"/>
      <point x="726" y="809"/>
      <point x="681" y="775"/>
      <point x="649" y="777" type="curve" smooth="yes"/>
      <point x="615" y="779"/>
      <point x="594" y="811"/>
    </contour>
    <contour>
      <point x="380" y="847" type="curve" smooth="yes"/>
      <point x="388" y="878"/>
      <point x="434" y="911"/>
      <point x="466" y="909" type="curve" smooth="yes"/>
      <point x="500" y="907"/>
      <point x="521" y="875"/>
      <point x="513" y="842" type="curve" smooth="yes"/>
      <point x="505" y="811"/>
      <point x="460" y="777"/>
      <point x="428" y="779" type="curve" smooth="yes"/>
      <point x="394" y="781"/>
      <point x="372" y="814"/>
    </contour>
  </outline>
</glyph>
<glyph name="Aring" format="1">
  <advance width="649"/>
  <unicode hex="00C5"/>
  <outline>
    <contour>
      <point x="159" y="180" type="line"/>
      <point x="213" y="278" type="line"/>
      <point x="523" y="279" type="line"/>
      <point x="510" y="179" type="line"/>
    </contour>
    <contour>
      <point x="447" y="500" type="line"/>
      <point x="255" y="244" type="line"/>
      <point x="246" y="218" type="line"/>
      <point x="79" y="0" type="line"/>
      <point x="-58" y="0" type="line"/>
      <point x="522" y="742" type="line"/>
      <point x="592" y="0" type="line"/>
      <point x="468" y="0" type="line"/>
      <point x="450" y="212" type="line"/>
      <point x="459" y="242" type="line"/>
    </contour>
    <contour>
      <point x="437" y="801" type="curve" smooth="yes"/>
      <point x="453" y="856"/>
      <point x="516" y="906"/>
      <point x="574" y="905" type="curve" smooth="yes"/>
      <point x="632" y="904"/>
      <point x="666" y="852"/>
      <point x="650" y="797" type="curve" smooth="yes"/>
      <point x="634" y="742"/>
      <point x="571" y="693"/>
      <point x="512" y="694" type="curve" smooth="yes"/>
      <point x="454" y="695"/>
      <point x="421" y="747"/>
    </contour>
    <contour>
      <point x="497" y="798" type="curve" smooth="yes"/>
      <point x="491" y="779"/>
      <point x="500" y="752"/>
      <point x="522" y="749" type="curve" smooth="yes"/>
      <point x="545" y="746"/>
      <point x="584" y="779"/>
      <point x="590" y="800" type="curve" smooth="yes"/>
      <point x="596" y="819"/>
      <point x="587" y="846"/>
      <point x="565" y="849" type="curve" smooth="yes"/>
      <point x="542" y="852"/>
      <point x="503" y="819"/>
    </contour>
  </outline>
</glyph>
<glyph name="AE" format="1">
  <advance width="951"/>
  <unicode hex="00C6"/>
  <outline>
    <contour>
      <point x="233" y="186" type="line"/>
      <point x="273" y="296" type="line"/>
      <point x="559" y="296" type="line"/>
      <point x="521" y="186" type="line"/>
    </contour>
    <contour>
      <point x="600" y="700" type="line"/>
      <point x="686" y="655" type="line"/>
      <point x="94" y="0" type="line"/>
      <point x="-49" y="0" type="line"/>
    </contour>
    <contour>
      <point x="487" y="0" type="line"/>
      <point x="522" y="104" type="line"/>
      <point x="871" y="104" type="line"/>
      <point x="834" y="0" type="line"/>
    </contour>
    <contour>
      <point x="705" y="596" type="line"/>
      <point x="600" y="700" type="line"/>
      <point x="1074" y="700" type="line"/>
      <point x="1038" y="596" type="line"/>
    </contour>
    <contour>
      <point x="597" y="324" type="line"/>
      <point x="632" y="426" type="line"/>
      <point x="962" y="426" type="line"/>
      <point x="926" y="323" type="line"/>
    </contour>
    <contour>
      <point x="666" y="699" type="line"/>
      <point x="790" y="700" type="line"/>
      <point x="548" y="0" type="line"/>
      <point x="429" y="0" type="line"/>
    </contour>
  </outline>
</glyph>
<glyph name="Ccedilla" format="1">
  <advance width="649"/>
  <unicode hex="00C7"/>
  <outline>
    <contour>
      <point x="223" y="350" type="curve" smooth="yes"/>
      <point x="183" y="238"/>
      <point x="219" y="108"/>
      <point x="355" y="105" type="curve" smooth="yes"/>
      <point x="446" y="103"/>
      <point x="530" y="150"/>
      <point x="601" y="201" type="curve"/>
      <point x="558" y="61" type="line"/>
      <point x="488" y="17"/>
      <point x="411" y="-14"/>
      <point x="327" y="-13" type="curve" smooth="yes"/>
      <point x="126" y="-12"/>
      <point x="41" y="173"/>
      <point x="98" y="350" type="curve" smooth="yes"/>
      <point x="160" y="544"/>
      <point x="350" y="712"/>
      <point x="559" y="713" type="curve" smooth="yes"/>
      <point x="634" y="714"/>
      <point x="696" y="688"/>
      <point x="751" y="637" type="curve"/>
      <point x="707" y="497" type="line"/>
      <point x="670" y="561"/>
      <point x="613" y="595"/>
      <point x="538" y="595" type="curve" smooth="yes"/>
      <point x="398" y="594"/>
      <point x="269" y="477"/>
    </contour>
    <contour>
      <point x="309" y="53" type="line"/>
      <point x="392" y="51" type="line"/>
      <point x="279" y="-63" type="line"/>
      <point x="284" y="-62"/>
      <point x="290" y="-62"/>
      <point x="295" y="-62" type="curve" smooth="yes"/>
      <point x="338" y="-68"/>
      <point x="361" y="-105"/>
      <point x="349" y="-147" type="curve" smooth="yes"/>
      <point x="333" y="-204"/>
      <point x="267" y="-243"/>
      <point x="210" y="-244" type="curve" smooth="yes"/>
      <point x="170" y="-245"/>
      <point x="140" y="-227"/>
      <point x="110" y="-204" type="curve"/>
      <point x="160" y="-156" type="line"/>
      <point x="176" y="-168"/>
      <point x="191" y="-180"/>
      <point x="213" y="-180" type="curve" smooth="yes"/>
      <point x="233" y="-180"/>
      <point x="274" y="-162"/>
      <point x="279" y="-140" type="curve" smooth="yes"/>
      <point x="284" y="-119"/>
      <point x="261" y="-108"/>
      <point x="245" y="-107" type="curve" smooth="yes"/>
      <point x="221" y="-105"/>
      <point x="194" y="-115"/>
      <point x="171" y="-122" type="curve"/>
    </contour>
  </outline>
</glyph>
<glyph name="Egrave" format="1">
  <advance width="537"/>
  <unicode hex="00C8"/>
  <outline>
    <contour>
      <point x="88" y="0" type="line"/>
      <point x="123" y="104" type="line"/>
      <point x="460" y="104" type="line"/>
      <point x="424" y="0" type="line"/>
    </contour>
    <contour>
      <point x="291" y="596" type="line"/>
      <point x="326" y="700" type="line"/>
      <point x="662" y="700" type="line"/>
      <point x="627" y="596" type="line"/>
    </contour>
    <contour>
      <point x="198" y="324" type="line"/>
      <point x="233" y="426" type="line"/>
      <point x="550" y="426" type="line"/>
      <point x="515" y="323" type="line"/>
    </contour>
    <contour>
      <point x="255" y="699" type="line"/>
      <point x="371" y="700" type="line"/>
      <point x="130" y="0" type="line"/>
      <point x="18" y="0" type="line"/>
    </contour>
    <contour>
      <point x="400" y="928" type="line"/>
      <point x="498" y="971" type="line"/>
      <point x="589" y="807" type="line"/>
      <point x="525" y="775" type="line"/>
    </contour>
  </outline>
</glyph>
<glyph name="Eacute" format="1">
  <advance width="537"/>
  <unicode hex="00C9"/>
  <outline>
    <contour>
      <point x="88" y="0" type="line"/>
      <point x="123" y="104" type="line"/>
      <point x="460" y="104" type="line"/>
      <point x="424" y="0" type="line"/>
    </contour>
    <contour>
      <point x="291" y="596" type="line"/>
      <point x="326" y="700" type="line"/>
      <point x="662" y="700" type="line"/>
      <point x="627" y="596" type="line"/>
    </contour>
    <contour>
      <point x="198" y="324" type="line"/>
      <point x="233" y="426" type="line"/>
      <point x="550" y="426" type="line"/>
      <point x="515" y="323" type="line"/>
    </contour>
    <contour>
      <point x="255" y="699" type="line"/>
      <point x="371" y="700" type="line"/>
      <point x="130" y="0" type="line"/>
      <point x="18" y="0" type="line"/>
    </contour>
    <contour>
      <point x="670" y="920" type="line"/>
      <point x="454" y="777" type="line"/>
      <point x="400" y="814" type="line"/>
      <point x="592" y="969" type="line"/>
    </contour>
  </outline>
</glyph>
<glyph name="Ecircumflex" format="1">
  <advance width="537"/>
  <unicode hex="00CA"/>
  <outline>
    <contour>
      <point x="88" y="0" type="line"/>
      <point x="123" y="104" type="line"/>
      <point x="460" y="104" type="line"/>
      <point x="424" y="0" type="line"/>
    </contour>
    <contour>
      <point x="291" y="596" type="line"/>
      <point x="326" y="700" type="line"/>
      <point x="662" y="700" type="line"/>
      <point x="627" y="596" type="line"/>
    </contour>
    <contour>
      <point x="198" y="324" type="line"/>
      <point x="233" y="426" type="line"/>
      <point x="550" y="426" type="line"/>
      <point x="515" y="323" type="line"/>
    </contour>
    <contour>
      <point x="255" y="699" type="line"/>
      <point x="371" y="700" type="line"/>
      <point x="130" y="0" type="line"/>
      <point x="18" y="0" type="line"/>
    </contour>
    <contour>
      <point x="531" y="871" type="line"/>
      <point x="393" y="778" type="line"/>
      <point x="353" y="821" type="line"/>
      <point x="548" y="958" type="line"/>
      <point x="658" y="815" type="line"/>
      <point x="602" y="778" type="line"/>
    </contour>
  </outline>
</glyph>
<glyph name="Edieresis" format="1">
  <advance width="537"/>
  <unicode hex="00CB"/>
  <outline>
    <contour>
      <point x="88" y="0" type="line"/>
      <point x="123" y="104" type="line"/>
      <point x="460" y="104" type="line"/>
      <point x="424" y="0" type="line"/>
    </contour>
    <contour>
      <point x="291" y="596" type="line"/>
      <point x="326" y="700" type="line"/>
      <point x="662" y="700" type="line"/>
      <point x="627" y="596" type="line"/>
    </contour>
    <contour>
      <point x="198" y="324" type="line"/>
      <point x="233" y="426" type="line"/>
      <point x="550" y="426" type="line"/>
      <point x="515" y="323" type="line"/>
    </contour>
    <contour>
      <point x="255" y="699" type="line"/>
      <point x="371" y="700" type="line"/>
      <point x="130" y="0" type="line"/>
      <point x="18" y="0" type="line"/>
    </contour>
    <contour>
      <point x="554" y="856" type="curve" smooth="yes"/>
      <point x="562" y="887"/>
      <point x="607" y="921"/>
      <point x="639" y="919" type="curve" smooth="yes"/>
      <point x="673" y="917"/>
      <point x="694" y="884"/>
      <point x="686" y="851" type="curve" smooth="yes"/>
      <point x="678" y="820"/>
      <point x="634" y="786"/>
      <point x="602" y="788" type="curve" smooth="yes"/>
      <point x="568" y="790"/>
      <point x="546" y="823"/>
    </contour>
    <contour>
      <point x="349" y="856" type="curve" smooth="yes"/>
      <point x="357" y="887"/>
      <point x="402" y="921"/>
      <point x="434" y="919" type="curve" smooth="yes"/>
      <point x="468" y="917"/>
      <point x="489" y="884"/>
      <point x="481" y="851" type="curve" smooth="yes"/>
      <point x="473" y="820"/>
      <point x="429" y="786"/>
      <point x="397" y="788" type="curve" smooth="yes"/>
      <point x="363" y="790"/>
      <point x="341" y="823"/>
    </contour>
  </outline>
</glyph>
<glyph name="Igrave" format="1">
  <advance width="275"/>
  <unicode hex="00CC"/>
  <outline>
    <contour>
      <point x="201" y="700" type="line"/>
      <point x="321" y="700" type="line"/>
      <point x="198" y="0" type="line"/>
      <point x="78" y="0" type="line"/>
    </contour>
    <contour>
      <point x="155" y="925" type="line"/>
      <point x="255" y="970" type="line"/>
      <point x="377" y="810" type="line"/>
      <point x="309" y="775" type="line"/>
    </contour>
  </outline>
</glyph>
<glyph name="Iacute" format="1">
  <advance width="259"/>
  <unicode hex="00CD"/>
  <outline>
    <contour>
      <point x="255" y="699" type="line"/>
      <point x="375" y="700" type="line"/>
      <point x="134" y="0" type="line"/>
      <point x="18" y="0" type="line"/>
    </contour>
    <contour>
      <point x="524" y="920" type="line"/>
      <point x="307" y="776" type="line"/>
      <point x="254" y="814" type="line"/>
      <point x="446" y="969" type="line"/>
    </contour>
  </outline>
</glyph>
<glyph name="Icircumflex" format="1">
  <advance width="259"/>
  <unicode hex="00CE"/>
  <outline>
    <contour>
      <point x="255" y="699" type="line"/>
      <point x="375" y="700" type="line"/>
      <point x="134" y="0" type="line"/>
      <point x="18" y="0" type="line"/>
    </contour>
    <contour>
      <point x="377" y="872" type="line"/>
      <point x="239" y="779" type="line"/>
      <point x="200" y="822" type="line"/>
      <point x="395" y="958" type="line"/>
      <point x="504" y="815" type="line"/>
      <point x="448" y="779" type="line"/>
    </contour>
  </outline>
</glyph>
<glyph name="Idieresis" format="1">
  <advance width="258"/>
  <unicode hex="00CF"/>
  <outline>
    <contour>
      <point x="255" y="699" type="line"/>
      <point x="375" y="700" type="line"/>
      <point x="133" y="0" type="line"/>
      <point x="18" y="0" type="line"/>
    </contour>
    <contour>
      <point x="399" y="841" type="curve" smooth="yes"/>
      <point x="407" y="872"/>
      <point x="451" y="906"/>
      <point x="483" y="904" type="curve" smooth="yes"/>
      <point x="517" y="902"/>
      <point x="539" y="869"/>
      <point x="531" y="836" type="curve" smooth="yes"/>
      <point x="523" y="805"/>
      <point x="478" y="772"/>
      <point x="446" y="774" type="curve" smooth="yes"/>
      <point x="411" y="776"/>
      <point x="391" y="808"/>
    </contour>
    <contour>
      <point x="194" y="841" type="curve" smooth="yes"/>
      <point x="202" y="872"/>
      <point x="245" y="906"/>
      <point x="277" y="904" type="curve" smooth="yes"/>
      <point x="311" y="902"/>
      <point x="334" y="869"/>
      <point x="326" y="836" type="curve" smooth="yes"/>
      <point x="318" y="805"/>
      <point x="273" y="772"/>
      <point x="241" y="774" type="curve" smooth="yes"/>
      <point x="206" y="776"/>
      <point x="186" y="808"/>
    </contour>
  </outline>
</glyph>
<glyph name="Eth" format="1">
  <advance width="659"/>
  <unicode hex="00D0"/>
  <outline>
    <contour>
      <point x="55" y="308" type="line"/>
      <point x="84" y="392" type="line"/>
      <point x="389" y="392" type="line"/>
      <point x="360" y="307" type="line"/>
    </contour>
    <contour>
      <point x="255" y="699" type="line"/>
      <point x="376" y="700" type="line"/>
      <point x="134" y="0" type="line"/>
      <point x="18" y="0" type="line"/>
    </contour>
    <contour>
      <point x="240" y="0" type="curve" smooth="yes"/>
      <point x="85" y="0" type="line"/>
      <point x="125" y="112" type="line"/>
      <point x="261" y="112" type="line" smooth="yes"/>
      <point x="404" y="117"/>
      <point x="526" y="217"/>
      <point x="574" y="350" type="curve" smooth="yes"/>
      <point x="618" y="470"/>
      <point x="575" y="582"/>
      <point x="437" y="588" type="curve"/>
      <point x="286" y="588" type="line"/>
      <point x="326" y="700" type="line"/>
      <point x="463" y="700" type="line" smooth="yes"/>
      <point x="661" y="694"/>
      <point x="751" y="532"/>
      <point x="692" y="350" type="curve" smooth="yes"/>
      <point x="629" y="154"/>
      <point x="448" y="6"/>
    </contour>
  </outline>
</glyph>
<glyph name="Ntilde" format="1">
  <advance width="736"/>
  <unicode hex="00D1"/>
  <outline>
    <contour>
      <point x="737" y="700" type="line"/>
      <point x="851" y="700" type="line"/>
      <point x="600" y="-32" type="line"/>
      <point x="292" y="469" type="line"/>
      <point x="131" y="0" type="line"/>
      <point x="15" y="0" type="line"/>
      <point x="267" y="732" type="line"/>
      <point x="575" y="231" type="line"/>
    </contour>
    <contour>
      <point x="406" y="812" type="line"/>
      <point x="436" y="851"/>
      <point x="479" y="898"/>
      <point x="534" y="895" type="curve" smooth="yes"/>
      <point x="575" y="893"/>
      <point x="598" y="846"/>
      <point x="639" y="849" type="curve" smooth="yes"/>
      <point x="669" y="851"/>
      <point x="694" y="879"/>
      <point x="715" y="897" type="curve"/>
      <point x="755" y="838" type="line"/>
      <point x="723" y="804"/>
      <point x="674" y="760"/>
      <point x="622" y="764" type="curve" smooth="yes"/>
      <point x="582" y="767"/>
      <point x="560" y="816"/>
      <point x="519" y="812" type="curve" smooth="yes"/>
      <point x="489" y="809"/>
      <point x="470" y="783"/>
      <point x="453" y="762" type="curve"/>
    </contour>
  </outline>
</glyph>
<glyph name="Ocircumflex" format="1">
  <advance width="754"/>
  <unicode hex="00D4"/>
  <outline>
    <contour>
      <point x="221" y="350" type="curve" smooth="yes"/>
      <point x="181" y="239"/>
      <point x="212" y="104"/>
      <point x="351" y="102" type="curve" smooth="yes"/>
      <point x="493" y="100"/>
      <point x="619" y="224"/>
      <point x="665" y="350" type="curve" smooth="yes"/>
      <point x="705" y="461"/>
      <point x="674" y="596"/>
      <point x="535" y="598" type="curve" smooth="yes"/>
      <point x="393" y="600"/>
      <point x="267" y="476"/>
    </contour>
    <contour>
      <point x="98" y="350" type="curve" smooth="yes"/>
      <point x="160" y="542"/>
      <point x="351" y="714"/>
      <point x="559" y="713" type="curve" smooth="yes"/>
      <point x="761" y="712"/>
      <point x="844" y="527"/>
      <point x="788" y="350" type="curve" smooth="yes"/>
      <point x="726" y="157"/>
      <point x="535" y="-16"/>
      <point x="326" y="-15" type="curve" smooth="yes"/>
      <point x="123" y="-14"/>
      <point x="42" y="173"/>
    </contour>
    <contour>
      <point x="632" y="871" type="line"/>
      <point x="494" y="778" type="line"/>
      <point x="454" y="821" type="line"/>
      <point x="649" y="958" type="line"/>
      <point x="759" y="815" type="line"/>
      <point x="702" y="778" type="line"/>
    </contour>
  </outline>
</glyph>
<glyph name="Otilde" format="1">
  <advance width="755"/>
  <unicode hex="00D5"/>
  <outline>
    <contour>
      <point x="222" y="350" type="curve" smooth="yes"/>
      <point x="182" y="239"/>
      <point x="213" y="105"/>
      <point x="351" y="103" type="curve" smooth="yes"/>
      <point x="493" y="101"/>
      <point x="618" y="224"/>
      <point x="664" y="350" type="curve" smooth="yes"/>
      <point x="704" y="461"/>
      <point x="674" y="595"/>
      <point x="535" y="597" type="curve" smooth="yes"/>
      <point x="393" y="599"/>
      <point x="268" y="476"/>
    </contour>
    <contour>
      <point x="98" y="350" type="curve" smooth="yes"/>
      <point x="160" y="542"/>
      <point x="351" y="714"/>
      <point x="559" y="713" type="curve" smooth="yes"/>
      <point x="761" y="712"/>
      <point x="844" y="527"/>
      <point x="788" y="350" type="curve" smooth="yes"/>
      <point x="726" y="157"/>
      <point x="535" y="-16"/>
      <point x="326" y="-15" type="curve" smooth="yes"/>
      <point x="123" y="-14"/>
      <point x="42" y="173"/>
    </contour>
    <contour>
      <point x="448" y="825" type="line"/>
      <point x="439" y="865"/>
      <point x="541" y="904"/>
      <point x="569" y="903" type="curve" smooth="yes"/>
      <point x="608" y="901"/>
      <point x="630" y="855"/>
      <point x="670" y="858" type="curve" smooth="yes"/>
      <point x="698" y="860"/>
      <point x="722" y="887"/>
      <point x="741" y="904" type="curve"/>
      <point x="775" y="858" type="line"/>
      <point x="746" y="827"/>
      <point x="704" y="786"/>
      <point x="657" y="790" type="curve" smooth="yes"/>
      <point x="619" y="793"/>
      <point x="598" y="837"/>
      <point x="559" y="835" type="curve" smooth="yes"/>
      <point x="529" y="833"/>
      <point x="508" y="806"/>
      <point x="491" y="785" type="curve"/>
    </contour>
  </outline>
</glyph>
<glyph name="Odieresis" format="1">
  <advance width="802"/>
  <unicode hex="00D6"/>
  <outline>
    <contour>
      <point x="225" y="350" type="curve" smooth="yes"/>
      <point x="200" y="206"/>
      <point x="280" y="101"/>
      <point x="419" y="101" type="curve" smooth="yes"/>
      <point x="558" y="101"/>
      <point x="676" y="206"/>
      <point x="701" y="350" type="curve" smooth="yes"/>
      <point x="726" y="494"/>
      <point x="647" y="599"/>
      <point x="507" y="599" type="curve" smooth="yes"/>
      <point x="368" y="599"/>
      <point x="250" y="494"/>
    </contour>
    <contour>
      <point x="100" y="350" type="curve" smooth="yes"/>
      <point x="137" y="559"/>
      <point x="319" y="712"/>
      <point x="527" y="712" type="curve" smooth="yes"/>
      <point x="736" y="712"/>
      <point x="864" y="559"/>
      <point x="827" y="350" type="curve" smooth="yes"/>
      <point x="790" y="141"/>
      <point x="608" y="-15"/>
      <point x="398" y="-15" type="curve" smooth="yes"/>
      <point x="188" y="-15"/>
      <point x="63" y="141"/>
    </contour>
    <contour>
      <point x="588" y="822" type="curve" smooth="yes"/>
      <point x="595" y="860"/>
      <point x="631" y="892"/>
      <point x="671" y="892" type="curve" smooth="yes"/>
      <point x="711" y="892"/>
      <point x="736" y="860"/>
      <point x="729" y="822" type="curve" smooth="yes"/>
      <point x="722" y="784"/>
      <point x="687" y="752"/>
      <point x="647" y="752" type="curve" smooth="yes"/>
      <point x="607" y="752"/>
      <point x="581" y="784"/>
    </contour>
    <contour>
      <point x="371" y="822" type="curve" smooth="yes"/>
      <point x="378" y="860"/>
      <point x="413" y="892"/>
      <point x="453" y="892" type="curve" smooth="yes"/>
      <point x="493" y="892"/>
      <point x="519" y="860"/>
      <point x="512" y="822" type="curve" smooth="yes"/>
      <point x="505" y="784"/>
      <point x="469" y="752"/>
      <point x="429" y="752" type="curve" smooth="yes"/>
      <point x="389" y="752"/>
      <point x="364" y="784"/>
    </contour>
  </outline>
</glyph>
<glyph name="multiply" format="1">
  <advance width="560"/>
  <unicode hex="00D7"/>
  <outline>
    <contour>
      <point x="76" y="14" type="line"/>
      <point x="29" y="93" type="line"/>
      <point x="251" y="260" type="line"/>
      <point x="144" y="430" type="line"/>
      <point x="231" y="496" type="line"/>
      <point x="331" y="324" type="line"/>
      <point x="550" y="496" type="line"/>
      <point x="598" y="417" type="line"/>
      <point x="375" y="250" type="line"/>
      <point x="482" y="80" type="line"/>
      <point x="395" y="14" type="line"/>
      <point x="296" y="186" type="line"/>
    </contour>
  </outline>
</glyph>
<glyph name="Oslash" format="1">
  <advance width="743"/>
  <unicode hex="00D8"/>
  <outline>
    <contour>
      <point x="222" y="350" type="curve" smooth="yes"/>
      <point x="182" y="239"/>
      <point x="212" y="105"/>
      <point x="351" y="103" type="curve" smooth="yes"/>
      <point x="493" y="101"/>
      <point x="618" y="224"/>
      <point x="664" y="350" type="curve" smooth="yes"/>
      <point x="704" y="461"/>
      <point x="674" y="595"/>
      <point x="535" y="597" type="curve" smooth="yes"/>
      <point x="393" y="599"/>
      <point x="268" y="476"/>
    </contour>
    <contour>
      <point x="98" y="350" type="curve" smooth="yes"/>
      <point x="160" y="543"/>
      <point x="350" y="714"/>
      <point x="559" y="713" type="curve" smooth="yes"/>
      <point x="761" y="712"/>
      <point x="844" y="527"/>
      <point x="788" y="350" type="curve" smooth="yes"/>
      <point x="726" y="157"/>
      <point x="535" y="-16"/>
      <point x="326" y="-15" type="curve" smooth="yes"/>
      <point x="123" y="-14"/>
      <point x="42" y="174"/>
    </contour>
    <contour>
      <point x="848" y="752" type="line"/>
      <point x="900" y="703" type="line"/>
      <point x="33" y="-52" type="line"/>
      <point x="-18" y="-5" type="line"/>
    </contour>
  </outline>
</glyph>
<glyph name="Ugrave" format="1">
  <advance width="617"/>
  <unicode hex="00D9"/>
  <outline>
    <contour>
      <point x="252" y="700" type="line"/>
      <point x="369" y="700" type="line"/>
      <point x="207" y="235" type="line" smooth="yes"/>
      <point x="187" y="169"/>
      <point x="196" y="95"/>
      <point x="280" y="93" type="curve" smooth="yes"/>
      <point x="366" y="91"/>
      <point x="431" y="161"/>
      <point x="461" y="235" type="curve"/>
      <point x="621" y="700" type="line"/>
      <point x="738" y="700" type="line"/>
      <point x="577" y="230" type="line" smooth="yes"/>
      <point x="528" y="95"/>
      <point x="406" y="-17"/>
      <point x="256" y="-17" type="curve" smooth="yes"/>
      <point x="112" y="-17"/>
      <point x="53" y="100"/>
      <point x="91" y="230" type="curve" smooth="yes"/>
    </contour>
    <contour>
      <point x="434" y="926" type="line"/>
      <point x="533" y="968" type="line"/>
      <point x="624" y="804" type="line"/>
      <point x="559" y="773" type="line"/>
    </contour>
  </outline>
</glyph>
<glyph name="Ucircumflex" format="1">
  <advance width="617"/>
  <unicode hex="00DB"/>
  <outline>
    <contour>
      <point x="252" y="700" type="line"/>
      <point x="369" y="700" type="line"/>
      <point x="207" y="235" type="line" smooth="yes"/>
      <point x="187" y="169"/>
      <point x="196" y="95"/>
      <point x="280" y="93" type="curve" smooth="yes"/>
      <point x="366" y="91"/>
      <point x="431" y="161"/>
      <point x="461" y="235" type="curve"/>
      <point x="621" y="700" type="line"/>
      <point x="738" y="700" type="line"/>
      <point x="577" y="230" type="line" smooth="yes"/>
      <point x="528" y="95"/>
      <point x="406" y="-17"/>
      <point x="256" y="-17" type="curve" smooth="yes"/>
      <point x="112" y="-17"/>
      <point x="53" y="100"/>
      <point x="91" y="230" type="curve" smooth="yes"/>
    </contour>
    <contour>
      <point x="556" y="862" type="line"/>
      <point x="427" y="773" type="line"/>
      <point x="371" y="829" type="line"/>
      <point x="579" y="965" type="line"/>
      <point x="703" y="822" type="line"/>
      <point x="620" y="773" type="line"/>
    </contour>
  </outline>
</glyph>
<glyph name="Udieresis" format="1">
  <advance width="618"/>
  <unicode hex="00DC"/>
  <outline>
    <contour>
      <point x="252" y="700" type="line"/>
      <point x="369" y="700" type="line"/>
      <point x="207" y="235" type="line" smooth="yes"/>
      <point x="187" y="169"/>
      <point x="196" y="95"/>
      <point x="280" y="93" type="curve" smooth="yes"/>
      <point x="366" y="91"/>
      <point x="431" y="161"/>
      <point x="461" y="235" type="curve"/>
      <point x="621" y="700" type="line"/>
      <point x="738" y="700" type="line"/>
      <point x="578" y="230" type="line" smooth="yes"/>
      <point x="529" y="95"/>
      <point x="407" y="-17"/>
      <point x="257" y="-17" type="curve" smooth="yes"/>
      <point x="113" y="-17"/>
      <point x="53" y="100"/>
      <point x="91" y="230" type="curve" smooth="yes"/>
    </contour>
    <contour>
      <point x="585" y="841" type="curve" smooth="yes"/>
      <point x="593" y="873"/>
      <point x="637" y="906"/>
      <point x="670" y="904" type="curve" smooth="yes"/>
      <point x="704" y="902"/>
      <point x="726" y="871"/>
      <point x="718" y="837" type="curve" smooth="yes"/>
      <point x="710" y="805"/>
      <point x="666" y="772"/>
      <point x="633" y="774" type="curve" smooth="yes"/>
      <point x="599" y="776"/>
      <point x="577" y="807"/>
    </contour>
    <contour>
      <point x="365" y="841" type="curve" smooth="yes"/>
      <point x="373" y="873"/>
      <point x="417" y="906"/>
      <point x="450" y="904" type="curve" smooth="yes"/>
      <point x="484" y="902"/>
      <point x="506" y="871"/>
      <point x="498" y="837" type="curve" smooth="yes"/>
      <point x="490" y="805"/>
      <point x="445" y="772"/>
      <point x="412" y="774" type="curve" smooth="yes"/>
      <point x="378" y="776"/>
      <point x="357" y="807"/>
    </contour>
  </outline>
</glyph>
<glyph name="Yacute" format="1">
  <advance width="600"/>
  <unicode hex="00DD"/>
  <outline>
    <contour>
      <point x="303" y="360" type="line"/>
      <point x="423" y="360" type="line"/>
      <point x="360" y="0" type="line"/>
      <point x="240" y="0" type="line"/>
    </contour>
    <contour>
      <point x="586" y="700" type="line"/>
      <point x="721" y="700" type="line"/>
      <point x="334" y="193" type="line"/>
      <point x="125" y="700" type="line"/>
      <point x="261" y="700" type="line"/>
      <point x="371" y="400" type="line"/>
    </contour>
    <contour>
      <point x="605" y="922" type="line"/>
      <point x="398" y="772" type="line"/>
      <point x="344" y="808" type="line"/>
      <point x="523" y="968" type="line"/>
    </contour>
  </outline>
</glyph>
<glyph name="Thorn" format="1">
  <advance width="575"/>
  <unicode hex="00DE"/>
  <outline>
    <contour>
      <point x="310" y="135" type="curve"/>
      <point x="328" y="236" type="line"/>
      <point x="413" y="236"/>
      <point x="475" y="273"/>
      <point x="489" y="351" type="curve" smooth="yes"/>
      <point x="503" y="429"/>
      <point x="453" y="466"/>
      <point x="368" y="466" type="curve"/>
      <point x="386" y="568" type="line"/>
      <point x="538" y="568"/>
      <point x="624" y="485"/>
      <point x="600" y="351" type="curve" smooth="yes"/>
      <point x="576" y="217"/>
      <point x="462" y="135"/>
    </contour>
    <contour>
      <point x="170" y="135" type="line"/>
      <point x="188" y="236" type="line"/>
      <point x="328" y="236" type="line"/>
      <point x="310" y="135" type="line"/>
    </contour>
    <contour>
      <point x="228" y="466" type="line"/>
      <point x="246" y="568" type="line"/>
      <point x="386" y="568" type="line"/>
      <point x="368" y="466" type="line"/>
    </contour>
    <contour>
      <point x="203" y="700" type="line"/>
      <point x="313" y="700" type="line"/>
      <point x="190" y="0" type="line"/>
      <point x="80" y="0" type="line"/>
    </contour>
  </outline>
</glyph>
<glyph name="germandbls" format="1">
  <advance width="544"/>
  <unicode hex="00DF"/>
  <outline>
    <contour>
      <point x="233" y="90" type="line"/>
      <point x="320" y="105"/>
      <point x="404" y="156"/>
      <point x="435" y="243" type="curve" smooth="yes"/>
      <point x="467" y="333"/>
      <point x="402" y="377"/>
      <point x="322" y="389" type="curve"/>
      <point x="345" y="463" type="line"/>
      <point x="478" y="453"/>
      <point x="580" y="366"/>
      <point x="535" y="224" type="curve" smooth="yes"/>
      <point x="489" y="77"/>
      <point x="347" y="2"/>
      <point x="202" y="-9" type="curve"/>
    </contour>
    <contour>
      <point x="332" y="421" type="curve"/>
      <point x="353" y="490" type="line"/>
      <point x="419" y="499"/>
      <point x="493" y="521"/>
      <point x="517" y="591" type="curve" smooth="yes"/>
      <point x="536" y="644"/>
      <point x="510" y="690"/>
      <point x="452" y="691" type="curve" smooth="yes"/>
      <point x="392" y="692"/>
      <point x="339" y="653"/>
      <point x="320" y="598" type="curve" smooth="yes"/>
      <point x="113" y="0" type="line"/>
      <point x="8" y="0" type="line"/>
      <point x="215" y="607" type="line" smooth="yes"/>
      <point x="252" y="714"/>
      <point x="351" y="792"/>
      <point x="473" y="792" type="curve" smooth="yes"/>
      <point x="583" y="792"/>
      <point x="660" y="716"/>
      <point x="626" y="605" type="curve" smooth="yes"/>
      <point x="585" y="473"/>
      <point x="458" y="428"/>
    </contour>
  </outline>
</glyph>
<glyph name="aacute" format="1">
  <advance width="508"/>
  <unicode hex="00E1"/>
  <outline>
    <contour>
      <point x="161" y="136" type="curve" smooth="yes"/>
      <point x="153" y="93"/>
      <point x="181" y="72"/>
      <point x="235" y="72" type="curve" smooth="yes"/>
      <point x="305" y="72"/>
      <point x="363" y="101"/>
      <point x="377" y="182" type="curve"/>
      <point x="384" y="130" type="line"/>
      <point x="368" y="41"/>
      <point x="282" y="-10"/>
      <point x="187" y="-10" type="curve" smooth="yes"/>
      <point x="89" y="-10"/>
      <point x="35" y="41"/>
      <point x="50" y="126" type="curve" smooth="yes"/>
      <point x="68" y="228"/>
      <point x="161" y="283"/>
      <point x="275" y="283" type="curve" smooth="yes"/>
      <point x="355" y="283"/>
      <point x="405" y="246"/>
      <point x="418" y="227" type="curve"/>
      <point x="408" y="170" type="line"/>
      <point x="372" y="200"/>
      <point x="335" y="214"/>
      <point x="279" y="214" type="curve" smooth="yes"/>
      <point x="210" y="214"/>
      <point x="169" y="184"/>
    </contour>
    <contour>
      <point x="174" y="338" type="curve"/>
      <point x="143" y="416" type="line"/>
      <point x="189" y="441"/>
      <point x="259" y="471"/>
      <point x="342" y="471" type="curve" smooth="yes"/>
      <point x="454" y="471"/>
      <point x="525" y="420"/>
      <point x="509" y="328" type="curve" smooth="yes"/>
      <point x="451" y="0" type="line"/>
      <point x="345" y="0" type="line"/>
      <point x="401" y="316" type="line" smooth="yes"/>
      <point x="409" y="359"/>
      <point x="372" y="383"/>
      <point x="322" y="383" type="curve" smooth="yes"/>
      <point x="256" y="383"/>
      <point x="199" y="353"/>
    </contour>
    <contour>
      <point x="544" y="681" type="line"/>
      <point x="338" y="531" type="line"/>
      <point x="283" y="566" type="line"/>
      <point x="461" y="726" type="line"/>
    </contour>
  </outline>
</glyph>
<glyph name="acircumflex" format="1">
  <advance width="479"/>
  <unicode hex="00E2"/>
  <outline>
    <contour>
      <point x="122" y="136" type="curve" smooth="yes"/>
      <point x="109" y="96"/>
      <point x="138" y="76"/>
      <point x="174" y="74" type="curve" smooth="yes"/>
      <point x="248" y="70"/>
      <point x="298" y="124"/>
      <point x="333" y="182" type="curve"/>
      <point x="331" y="128" type="line"/>
      <point x="291" y="48"/>
      <point x="221" y="-9"/>
      <point x="128" y="-9" type="curve" smooth="yes"/>
      <point x="48" y="-9"/>
      <point x="-11" y="45"/>
      <point x="13" y="127" type="curve" smooth="yes"/>
      <point x="42" y="225"/>
      <point x="149" y="282"/>
      <point x="247" y="282" type="curve" smooth="yes"/>
      <point x="301" y="282"/>
      <point x="344" y="264"/>
      <point x="381" y="226" type="curve"/>
      <point x="363" y="171" type="line"/>
      <point x="330" y="198"/>
      <point x="296" y="214"/>
      <point x="252" y="213" type="curve" smooth="yes"/>
      <point x="203" y="212"/>
      <point x="139" y="187"/>
    </contour>
    <contour>
      <point x="171" y="338" type="curve"/>
      <point x="152" y="419" type="line"/>
      <point x="212" y="448"/>
      <point x="276" y="472"/>
      <point x="344" y="471" type="curve" smooth="yes"/>
      <point x="430" y="470"/>
      <point x="508" y="423"/>
      <point x="484" y="327" type="curve"/>
      <point x="372" y="0" type="line"/>
      <point x="267" y="0" type="line"/>
      <point x="379" y="315" type="line"/>
      <point x="382" y="356"/>
      <point x="365" y="378"/>
      <point x="321" y="381" type="curve" smooth="yes"/>
      <point x="269" y="384"/>
      <point x="217" y="359"/>
    </contour>
    <contour>
      <point x="409" y="621" type="line"/>
      <point x="280" y="532" type="line"/>
      <point x="223" y="588" type="line"/>
      <point x="432" y="724" type="line"/>
      <point x="556" y="581" type="line"/>
      <point x="473" y="532" type="line"/>
    </contour>
  </outline>
</glyph>
<glyph name="atilde" format="1">
  <advance width="479"/>
  <unicode hex="00E3"/>
  <outline>
    <contour>
      <point x="122" y="136" type="curve" smooth="yes"/>
      <point x="109" y="96"/>
      <point x="138" y="76"/>
      <point x="174" y="74" type="curve" smooth="yes"/>
      <point x="248" y="70"/>
      <point x="298" y="124"/>
      <point x="333" y="182" type="curve"/>
      <point x="331" y="128" type="line"/>
      <point x="291" y="48"/>
      <point x="221" y="-9"/>
      <point x="128" y="-9" type="curve" smooth="yes"/>
      <point x="48" y="-9"/>
      <point x="-11" y="45"/>
      <point x="13" y="127" type="curve" smooth="yes"/>
      <point x="42" y="225"/>
      <point x="149" y="282"/>
      <point x="247" y="282" type="curve" smooth="yes"/>
      <point x="301" y="282"/>
      <point x="344" y="264"/>
      <point x="381" y="226" type="curve"/>
      <point x="363" y="171" type="line"/>
      <point x="330" y="198"/>
      <point x="296" y="214"/>
      <point x="252" y="213" type="curve" smooth="yes"/>
      <point x="203" y="212"/>
      <point x="139" y="187"/>
    </contour>
    <contour>
      <point x="171" y="338" type="curve"/>
      <point x="152" y="419" type="line"/>
      <point x="212" y="448"/>
      <point x="276" y="472"/>
      <point x="344" y="471" type="curve" smooth="yes"/>
      <point x="430" y="470"/>
      <point x="508" y="423"/>
      <point x="484" y="327" type="curve"/>
      <point x="372" y="0" type="line"/>
      <point x="267" y="0" type="line"/>
      <point x="379" y="315" type="line"/>
      <point x="382" y="356"/>
      <point x="365" y="378"/>
      <point x="321" y="381" type="curve" smooth="yes"/>
      <point x="269" y="384"/>
      <point x="217" y="359"/>
    </contour>
    <contour>
      <point x="219" y="584" type="line"/>
      <point x="249" y="623"/>
      <point x="293" y="669"/>
      <point x="348" y="666" type="curve" smooth="yes"/>
      <point x="389" y="664"/>
      <point x="412" y="617"/>
      <point x="453" y="620" type="curve" smooth="yes"/>
      <point x="483" y="622"/>
      <point x="507" y="650"/>
      <point x="528" y="668" type="curve"/>
      <point x="568" y="609" type="line"/>
      <point x="536" y="575"/>
      <point x="488" y="531"/>
      <point x="436" y="535" type="curve" smooth="yes"/>
      <point x="396" y="538"/>
      <point x="373" y="587"/>
      <point x="332" y="583" type="curve" smooth="yes"/>
      <point x="302" y="580"/>
      <point x="283" y="555"/>
      <point x="266" y="534" type="curve"/>
    </contour>
  </outline>
</glyph>
<glyph name="ae" format="1">
  <advance width="853"/>
  <unicode hex="00E6"/>
  <outline>
    <contour>
      <point x="161" y="136" type="curve" smooth="yes"/>
      <point x="153" y="93"/>
      <point x="181" y="72"/>
      <point x="235" y="72" type="curve" smooth="yes"/>
      <point x="305" y="72"/>
      <point x="363" y="101"/>
      <point x="377" y="182" type="curve"/>
      <point x="424" y="130" type="line"/>
      <point x="408" y="41"/>
      <point x="318" y="-10"/>
      <point x="210" y="-10" type="curve" smooth="yes"/>
      <point x="92" y="-10"/>
      <point x="35" y="41"/>
      <point x="50" y="126" type="curve" smooth="yes"/>
      <point x="68" y="228"/>
      <point x="161" y="283"/>
      <point x="275" y="283" type="curve" smooth="yes"/>
      <point x="355" y="283"/>
      <point x="405" y="246"/>
      <point x="418" y="227" type="curve"/>
      <point x="408" y="170" type="line"/>
      <point x="372" y="200"/>
      <point x="335" y="214"/>
      <point x="279" y="214" type="curve" smooth="yes"/>
      <point x="210" y="214"/>
      <point x="169" y="184"/>
    </contour>
    <contour>
      <point x="174" y="338" type="curve"/>
      <point x="143" y="416" type="line"/>
      <point x="189" y="441"/>
      <point x="259" y="471"/>
      <point x="342" y="471" type="curve" smooth="yes"/>
      <point x="454" y="471"/>
      <point x="493" y="420"/>
      <point x="477" y="328" type="curve" smooth="yes"/>
      <point x="442" y="130" type="line"/>
      <point x="368" y="130" type="line"/>
      <point x="399" y="308" type="line" smooth="yes"/>
      <point x="407" y="351"/>
      <point x="372" y="383"/>
      <point x="322" y="383" type="curve" smooth="yes"/>
      <point x="256" y="383"/>
      <point x="199" y="353"/>
    </contour>
    <contour>
      <point x="447" y="205" type="line"/>
      <point x="460" y="280" type="line"/>
      <point x="848" y="280" type="line"/>
      <point x="854" y="205" type="line"/>
    </contour>
    <contour>
      <point x="748" y="248" type="line" smooth="yes"/>
      <point x="763" y="332"/>
      <point x="736" y="388"/>
      <point x="656" y="388" type="curve" smooth="yes"/>
      <point x="584" y="388"/>
      <point x="519" y="339"/>
      <point x="505" y="258" type="curve"/>
      <point x="499" y="230" type="line"/>
      <point x="481" y="129"/>
      <point x="525" y="79"/>
      <point x="603" y="79" type="curve" smooth="yes"/>
      <point x="665" y="79"/>
      <point x="713" y="107"/>
      <point x="748" y="152" type="curve"/>
      <point x="834" y="114" type="line"/>
      <point x="775" y="39"/>
      <point x="706" y="-10"/>
      <point x="582" y="-10" type="curve" smooth="yes"/>
      <point x="440" y="-10"/>
      <point x="385" y="91"/>
      <point x="410" y="230" type="curve" smooth="yes"/>
      <point x="413" y="247"/>
      <point x="423" y="263"/>
      <point x="429" y="279" type="curve" smooth="yes"/>
      <point x="468" y="392"/>
      <point x="561" y="470"/>
      <point x="687" y="470" type="curve" smooth="yes"/>
      <point x="807" y="470"/>
      <point x="886" y="380"/>
      <point x="860" y="235" type="curve" smooth="yes"/>
      <point x="859" y="227"/>
      <point x="857" y="216"/>
      <point x="854" y="205" type="curve"/>
      <point x="744" y="225" type="line"/>
    </contour>
  </outline>
</glyph>
<glyph name="ccedilla" format="1">
  <advance width="484"/>
  <unicode hex="00E7"/>
  <outline>
    <contour>
      <point x="182" y="230" type="curve" smooth="yes"/>
      <point x="167" y="143"/>
      <point x="218" y="83"/>
      <point x="299" y="83" type="curve" smooth="yes"/>
      <point x="365" y="83"/>
      <point x="430" y="117"/>
      <point x="462" y="161" type="curve"/>
      <point x="441" y="42" type="line"/>
      <point x="403" y="9"/>
      <point x="343" y="-10"/>
      <point x="277" y="-10" type="curve" smooth="yes"/>
      <point x="135" y="-10"/>
      <point x="46" y="88"/>
      <point x="71" y="230" type="curve" smooth="yes"/>
      <point x="96" y="372"/>
      <point x="220" y="470"/>
      <point x="362" y="470" type="curve" smooth="yes"/>
      <point x="428" y="470"/>
      <point x="481" y="449"/>
      <point x="508" y="418" type="curve"/>
      <point x="487" y="299" type="line"/>
      <point x="471" y="343"/>
      <point x="414" y="377"/>
      <point x="350" y="377" type="curve" smooth="yes"/>
      <point x="269" y="377"/>
      <point x="197" y="315"/>
    </contour>
    <contour>
      <point x="271" y="68" type="line"/>
      <point x="351" y="67" type="line"/>
      <point x="248" y="-60" type="line"/>
      <point x="153" y="-110" type="line"/>
    </contour>
    <contour>
      <point x="344" y="-131" type="curve"/>
      <point x="271" y="-128" type="line"/>
      <point x="275" y="-103"/>
      <point x="257" y="-93"/>
      <point x="224" y="-93" type="curve" smooth="yes"/>
      <point x="214" y="-93"/>
      <point x="184" y="-94"/>
      <point x="153" y="-110" type="curve"/>
      <point x="210" y="-69" type="line"/>
      <point x="240" y="-49"/>
      <point x="259" y="-48"/>
      <point x="279" y="-48" type="curve" smooth="yes"/>
      <point x="315" y="-48"/>
      <point x="354" y="-75"/>
    </contour>
    <contour>
      <point x="344" y="-131" type="line"/>
      <point x="332" y="-197"/>
      <point x="268" y="-231"/>
      <point x="210" y="-231" type="curve" smooth="yes"/>
      <point x="166" y="-231"/>
      <point x="136" y="-222"/>
      <point x="105" y="-193" type="curve"/>
      <point x="153" y="-141" type="line"/>
      <point x="172" y="-158"/>
      <point x="190" y="-166"/>
      <point x="214" y="-166" type="curve" smooth="yes"/>
      <point x="248" y="-166"/>
      <point x="267" y="-152"/>
      <point x="271" y="-128" type="curve"/>
    </contour>
  </outline>
</glyph>
<glyph name="edieresis" format="1">
  <advance width="507"/>
  <unicode hex="00EB"/>
  <outline>
    <contour>
      <point x="109" y="206" type="line"/>
      <point x="133" y="279" type="line"/>
      <point x="402" y="280" type="line"/>
      <point x="410" y="332"/>
      <point x="405" y="383"/>
      <point x="341" y="386" type="curve" smooth="yes"/>
      <point x="263" y="389"/>
      <point x="204" y="321"/>
      <point x="173" y="257" type="curve" smooth="yes"/>
      <point x="161" y="230" type="line"/>
      <point x="138" y="167"/>
      <point x="142" y="85"/>
      <point x="225" y="81" type="curve" smooth="yes"/>
      <point x="283" y="78"/>
      <point x="332" y="116"/>
      <point x="374" y="151" type="curve"/>
      <point x="457" y="112" type="line"/>
      <point x="388" y="43"/>
      <point x="304" y="-10"/>
      <point x="204" y="-9" type="curve" smooth="yes"/>
      <point x="69" y="-7"/>
      <point x="19" y="112"/>
      <point x="54" y="230" type="curve" smooth="yes"/>
      <point x="59" y="247"/>
      <point x="65" y="263"/>
      <point x="73" y="279" type="curve" smooth="yes"/>
      <point x="125" y="385"/>
      <point x="235" y="470"/>
      <point x="357" y="469" type="curve" smooth="yes"/>
      <point x="495" y="468"/>
      <point x="536" y="353"/>
      <point x="503" y="235" type="curve" smooth="yes"/>
      <point x="500" y="225"/>
      <point x="498" y="216"/>
      <point x="494" y="206" type="curve"/>
    </contour>
    <contour>
      <point x="444" y="599" type="curve" smooth="yes"/>
      <point x="452" y="631"/>
      <point x="496" y="664"/>
      <point x="529" y="662" type="curve" smooth="yes"/>
      <point x="563" y="660"/>
      <point x="585" y="628"/>
      <point x="577" y="594" type="curve" smooth="yes"/>
      <point x="569" y="562"/>
      <point x="525" y="529"/>
      <point x="492" y="531" type="curve" smooth="yes"/>
      <point x="458" y="533"/>
      <point x="436" y="565"/>
    </contour>
    <contour>
      <point x="239" y="599" type="curve" smooth="yes"/>
      <point x="247" y="631"/>
      <point x="291" y="664"/>
      <point x="324" y="662" type="curve" smooth="yes"/>
      <point x="358" y="660"/>
      <point x="380" y="628"/>
      <point x="372" y="594" type="curve" smooth="yes"/>
      <point x="364" y="562"/>
      <point x="319" y="529"/>
      <point x="286" y="531" type="curve" smooth="yes"/>
      <point x="252" y="533"/>
      <point x="231" y="565"/>
    </contour>
  </outline>
</glyph>
<glyph name="igrave" format="1">
  <advance width="250"/>
  <unicode hex="00EC"/>
  <outline>
    <contour>
      <point x="174" y="459" type="line"/>
      <point x="282" y="460" type="line"/>
      <point x="122" y="0" type="line"/>
      <point x="20" y="0" type="line"/>
    </contour>
    <contour>
      <point x="149" y="698" type="line"/>
      <point x="248" y="741" type="line"/>
      <point x="339" y="577" type="line"/>
      <point x="274" y="545" type="line"/>
    </contour>
  </outline>
</glyph>
<glyph name="iacute" format="1">
  <advance width="250"/>
  <unicode hex="00ED"/>
  <outline>
    <contour>
      <point x="174" y="459" type="line"/>
      <point x="282" y="460" type="line"/>
      <point x="122" y="0" type="line"/>
      <point x="20" y="0" type="line"/>
    </contour>
    <contour>
      <point x="465" y="690" type="line"/>
      <point x="249" y="547" type="line"/>
      <point x="195" y="584" type="line"/>
      <point x="387" y="739" type="line"/>
    </contour>
  </outline>
</glyph>
<glyph name="icircumflex" format="1">
  <advance width="250"/>
  <unicode hex="00EE"/>
  <outline>
    <contour>
      <point x="174" y="459" type="line"/>
      <point x="282" y="460" type="line"/>
      <point x="122" y="0" type="line"/>
      <point x="20" y="0" type="line"/>
    </contour>
    <contour>
      <point x="292" y="627" type="line"/>
      <point x="163" y="538" type="line"/>
      <point x="106" y="595" type="line"/>
      <point x="315" y="731" type="line"/>
      <point x="439" y="587" type="line"/>
      <point x="357" y="538" type="line"/>
    </contour>
  </outline>
</glyph>
<glyph name="idieresis" format="1">
  <advance width="266"/>
  <unicode hex="00EF"/>
  <outline>
    <contour>
      <point x="161" y="460" type="line"/>
      <point x="267" y="460" type="line"/>
      <point x="186" y="0" type="line"/>
      <point x="80" y="0" type="line"/>
    </contour>
    <contour>
      <point x="281" y="623" type="curve" smooth="yes"/>
      <point x="288" y="661"/>
      <point x="324" y="693"/>
      <point x="364" y="693" type="curve" smooth="yes"/>
      <point x="404" y="693"/>
      <point x="430" y="661"/>
      <point x="423" y="623" type="curve" smooth="yes"/>
      <point x="416" y="585"/>
      <point x="380" y="553"/>
      <point x="340" y="553" type="curve" smooth="yes"/>
      <point x="300" y="553"/>
      <point x="274" y="585"/>
    </contour>
    <contour>
      <point x="64" y="623" type="curve" smooth="yes"/>
      <point x="71" y="661"/>
      <point x="106" y="693"/>
      <point x="146" y="693" type="curve" smooth="yes"/>
      <point x="186" y="693"/>
      <point x="212" y="661"/>
      <point x="205" y="623" type="curve" smooth="yes"/>
      <point x="198" y="585"/>
      <point x="162" y="553"/>
      <point x="122" y="553" type="curve" smooth="yes"/>
      <point x="82" y="553"/>
      <point x="57" y="585"/>
    </contour>
  </outline>
</glyph>
<glyph name="eth" format="1">
  <advance width="577"/>
  <unicode hex="00F0"/>
  <outline>
    <contour>
      <point x="447" y="237" type="curve" smooth="yes"/>
      <point x="471" y="302"/>
      <point x="452" y="381"/>
      <point x="372" y="382" type="curve" smooth="yes"/>
      <point x="289" y="384"/>
      <point x="211" y="310"/>
      <point x="184" y="236" type="curve" smooth="yes"/>
      <point x="160" y="171"/>
      <point x="181" y="94"/>
      <point x="260" y="93" type="curve" smooth="yes"/>
      <point x="342" y="92"/>
      <point x="420" y="163"/>
    </contour>
    <contour>
      <point x="448" y="699" type="line"/>
      <point x="556" y="402" type="line" smooth="yes"/>
      <point x="575" y="348"/>
      <point x="577" y="291"/>
      <point x="560" y="236" type="curve" smooth="yes"/>
      <point x="517" y="100"/>
      <point x="384" y="-12"/>
      <point x="238" y="-12" type="curve" smooth="yes"/>
      <point x="97" y="-12"/>
      <point x="31" y="109"/>
      <point x="71" y="237" type="curve" smooth="yes"/>
      <point x="107" y="351"/>
      <point x="217" y="461"/>
      <point x="342" y="463" type="curve" smooth="yes"/>
      <point x="384" y="464"/>
      <point x="413" y="448"/>
      <point x="441" y="418" type="curve"/>
      <point x="428" y="423" type="line"/>
      <point x="312" y="699" type="line"/>
    </contour>
    <contour>
      <point x="262" y="521" type="line"/>
      <point x="284" y="589" type="line"/>
      <point x="623" y="589" type="line"/>
      <point x="600" y="521" type="line"/>
    </contour>
  </outline>
</glyph>
<glyph name="ntilde" format="1">
  <advance width="512"/>
  <unicode hex="00F1"/>
  <outline>
    <contour>
      <point x="273" y="460" type="line"/>
      <point x="114" y="0" type="line"/>
      <point x="7" y="0" type="line"/>
      <point x="166" y="460" type="line"/>
    </contour>
    <contour>
      <point x="385" y="280" type="line"/>
      <point x="398" y="322"/>
      <point x="404" y="377"/>
      <point x="346" y="381" type="curve" smooth="yes"/>
      <point x="284" y="385"/>
      <point x="238" y="329"/>
      <point x="210" y="282" type="curve"/>
      <point x="176" y="279" type="line"/>
      <point x="215" y="370"/>
      <point x="287" y="469"/>
      <point x="397" y="470" type="curve" smooth="yes"/>
      <point x="503" y="471"/>
      <point x="520" y="378"/>
      <point x="495" y="293" type="curve"/>
      <point x="395" y="0" type="line"/>
      <point x="288" y="0" type="line"/>
    </contour>
    <contour>
      <point x="232" y="582" type="line"/>
      <point x="262" y="621"/>
      <point x="305" y="668"/>
      <point x="360" y="665" type="curve" smooth="yes"/>
      <point x="401" y="663"/>
      <point x="424" y="615"/>
      <point x="465" y="618" type="curve" smooth="yes"/>
      <point x="495" y="620"/>
      <point x="519" y="648"/>
      <point x="540" y="666" type="curve"/>
      <point x="580" y="608" type="line"/>
      <point x="547" y="574"/>
      <point x="500" y="530"/>
      <point x="448" y="534" type="curve" smooth="yes"/>
      <point x="408" y="537"/>
      <point x="386" y="586"/>
      <point x="345" y="582" type="curve" smooth="yes"/>
      <point x="315" y="579"/>
      <point x="295" y="554"/>
      <point x="278" y="533" type="curve"/>
    </contour>
  </outline>
</glyph>
<glyph name="ograve" format="1">
  <advance width="530"/>
  <unicode hex="00F2"/>
  <outline>
    <contour>
      <point x="53" y="230" type="curve" smooth="yes"/>
      <point x="94" y="360"/>
      <point x="225" y="470"/>
      <point x="364" y="470" type="curve" smooth="yes"/>
      <point x="498" y="470"/>
      <point x="564" y="352"/>
      <point x="526" y="230" type="curve" smooth="yes"/>
      <point x="485" y="100"/>
      <point x="354" y="-9"/>
      <point x="215" y="-9" type="curve" smooth="yes"/>
      <point x="81" y="-9"/>
      <point x="15" y="108"/>
    </contour>
    <contour>
      <point x="162" y="230" type="curve" smooth="yes"/>
      <point x="139" y="167"/>
      <point x="155" y="89"/>
      <point x="234" y="87" type="curve" smooth="yes"/>
      <point x="315" y="85"/>
      <point x="391" y="158"/>
      <point x="417" y="230" type="curve" smooth="yes"/>
      <point x="440" y="293"/>
      <point x="424" y="371"/>
      <point x="345" y="373" type="curve" smooth="yes"/>
      <point x="264" y="375"/>
      <point x="188" y="302"/>
    </contour>
    <contour>
      <point x="297" y="698" type="line"/>
      <point x="395" y="741" type="line"/>
      <point x="487" y="577" type="line"/>
      <point x="422" y="545" type="line"/>
    </contour>
  </outline>
</glyph>
<glyph name="ocircumflex" format="1">
  <advance width="530"/>
  <unicode hex="00F4"/>
  <outline>
    <contour>
      <point x="53" y="230" type="curve" smooth="yes"/>
      <point x="94" y="360"/>
      <point x="225" y="470"/>
      <point x="364" y="470" type="curve" smooth="yes"/>
      <point x="498" y="470"/>
      <point x="564" y="352"/>
      <point x="526" y="230" type="curve" smooth="yes"/>
      <point x="485" y="100"/>
      <point x="354" y="-9"/>
      <point x="215" y="-9" type="curve" smooth="yes"/>
      <point x="81" y="-9"/>
      <point x="15" y="108"/>
    </contour>
    <contour>
      <point x="162" y="230" type="curve" smooth="yes"/>
      <point x="139" y="167"/>
      <point x="155" y="89"/>
      <point x="234" y="87" type="curve" smooth="yes"/>
      <point x="315" y="85"/>
      <point x="391" y="158"/>
      <point x="417" y="230" type="curve" smooth="yes"/>
      <point x="440" y="293"/>
      <point x="424" y="371"/>
      <point x="345" y="373" type="curve" smooth="yes"/>
      <point x="264" y="375"/>
      <point x="188" y="302"/>
    </contour>
    <contour>
      <point x="434" y="635" type="line"/>
      <point x="306" y="546" type="line"/>
      <point x="249" y="602" type="line"/>
      <point x="458" y="738" type="line"/>
      <point x="581" y="595" type="line"/>
      <point x="499" y="545" type="line"/>
    </contour>
  </outline>
</glyph>
<glyph name="otilde" format="1">
  <advance width="529"/>
  <unicode hex="00F5"/>
  <outline>
    <contour>
      <point x="53" y="230" type="curve" smooth="yes"/>
      <point x="94" y="360"/>
      <point x="225" y="470"/>
      <point x="364" y="470" type="curve" smooth="yes"/>
      <point x="498" y="470"/>
      <point x="564" y="352"/>
      <point x="526" y="230" type="curve" smooth="yes"/>
      <point x="485" y="100"/>
      <point x="354" y="-9"/>
      <point x="215" y="-9" type="curve" smooth="yes"/>
      <point x="81" y="-9"/>
      <point x="15" y="108"/>
    </contour>
    <contour>
      <point x="162" y="230" type="curve" smooth="yes"/>
      <point x="139" y="167"/>
      <point x="155" y="89"/>
      <point x="234" y="87" type="curve" smooth="yes"/>
      <point x="315" y="85"/>
      <point x="391" y="158"/>
      <point x="417" y="230" type="curve" smooth="yes"/>
      <point x="440" y="293"/>
      <point x="424" y="372"/>
      <point x="345" y="374" type="curve" smooth="yes"/>
      <point x="264" y="376"/>
      <point x="188" y="302"/>
    </contour>
    <contour>
      <point x="240" y="582" type="line"/>
      <point x="231" y="625"/>
      <point x="337" y="666"/>
      <point x="368" y="665" type="curve" smooth="yes"/>
      <point x="409" y="663"/>
      <point x="431" y="615"/>
      <point x="473" y="618" type="curve" smooth="yes"/>
      <point x="503" y="620"/>
      <point x="527" y="648"/>
      <point x="548" y="666" type="curve"/>
      <point x="589" y="608" type="line"/>
      <point x="557" y="574"/>
      <point x="509" y="530"/>
      <point x="457" y="534" type="curve" smooth="yes"/>
      <point x="417" y="537"/>
      <point x="394" y="586"/>
      <point x="353" y="582" type="curve" smooth="yes"/>
      <point x="323" y="579"/>
      <point x="304" y="554"/>
      <point x="287" y="533" type="curve"/>
    </contour>
  </outline>
</glyph>
<glyph name="odieresis" format="1">
  <advance width="529"/>
  <unicode hex="00F6"/>
  <outline>
    <contour>
      <point x="53" y="230" type="curve" smooth="yes"/>
      <point x="94" y="360"/>
      <point x="225" y="470"/>
      <point x="364" y="470" type="curve" smooth="yes"/>
      <point x="498" y="470"/>
      <point x="564" y="352"/>
      <point x="526" y="230" type="curve" smooth="yes"/>
      <point x="485" y="100"/>
      <point x="354" y="-9"/>
      <point x="215" y="-9" type="curve" smooth="yes"/>
      <point x="81" y="-9"/>
      <point x="15" y="108"/>
    </contour>
    <contour>
      <point x="162" y="230" type="curve" smooth="yes"/>
      <point x="139" y="167"/>
      <point x="155" y="89"/>
      <point x="234" y="87" type="curve" smooth="yes"/>
      <point x="315" y="85"/>
      <point x="391" y="158"/>
      <point x="417" y="230" type="curve" smooth="yes"/>
      <point x="440" y="293"/>
      <point x="424" y="372"/>
      <point x="345" y="374" type="curve" smooth="yes"/>
      <point x="264" y="376"/>
      <point x="188" y="302"/>
    </contour>
    <contour>
      <point x="459" y="621" type="curve" smooth="yes"/>
      <point x="467" y="652"/>
      <point x="511" y="686"/>
      <point x="543" y="684" type="curve" smooth="yes"/>
      <point x="577" y="682"/>
      <point x="598" y="649"/>
      <point x="590" y="616" type="curve" smooth="yes"/>
      <point x="582" y="585"/>
      <point x="538" y="552"/>
      <point x="506" y="554" type="curve" smooth="yes"/>
      <point x="472" y="556"/>
      <point x="451" y="588"/>
    </contour>
    <contour>
      <point x="254" y="621" type="curve" smooth="yes"/>
      <point x="262" y="652"/>
      <point x="306" y="686"/>
      <point x="338" y="684" type="curve" smooth="yes"/>
      <point x="372" y="682"/>
      <point x="393" y="649"/>
      <point x="385" y="616" type="curve" smooth="yes"/>
      <point x="377" y="585"/>
      <point x="333" y="552"/>
      <point x="301" y="554" type="curve" smooth="yes"/>
      <point x="267" y="556"/>
      <point x="246" y="588"/>
    </contour>
  </outline>
</glyph>
<glyph name="divide" format="1">
  <advance width="592"/>
  <unicode hex="00F7"/>
  <outline>
    <contour>
      <point x="341" y="494" type="curve" smooth="yes"/>
      <point x="350" y="527"/>
      <point x="394" y="564"/>
      <point x="429" y="562" type="curve" smooth="yes"/>
      <point x="466" y="560"/>
      <point x="487" y="524"/>
      <point x="478" y="490" type="curve" smooth="yes"/>
      <point x="469" y="457"/>
      <point x="425" y="421"/>
      <point x="390" y="423" type="curve" smooth="yes"/>
      <point x="353" y="425"/>
      <point x="332" y="460"/>
    </contour>
    <contour>
      <point x="201" y="84" type="curve" smooth="yes"/>
      <point x="210" y="117"/>
      <point x="254" y="153"/>
      <point x="289" y="151" type="curve" smooth="yes"/>
      <point x="326" y="149"/>
      <point x="346" y="114"/>
      <point x="337" y="80" type="curve" smooth="yes"/>
      <point x="328" y="47"/>
      <point x="284" y="10"/>
      <point x="249" y="12" type="curve" smooth="yes"/>
      <point x="212" y="14"/>
      <point x="192" y="50"/>
    </contour>
    <contour>
      <point x="70" y="240" type="line"/>
      <point x="105" y="342" type="line"/>
      <point x="614" y="342" type="line"/>
      <point x="578" y="239" type="line"/>
    </contour>
  </outline>
</glyph>
<glyph name="oslash" format="1">
  <advance width="513"/>
  <unicode hex="00F8"/>
  <outline>
    <contour>
      <point x="53" y="230" type="curve" smooth="yes"/>
      <point x="94" y="360"/>
      <point x="225" y="469"/>
      <point x="364" y="469" type="curve" smooth="yes"/>
      <point x="499" y="469"/>
      <point x="564" y="352"/>
      <point x="526" y="230" type="curve" smooth="yes"/>
      <point x="485" y="100"/>
      <point x="354" y="-9"/>
      <point x="215" y="-9" type="curve" smooth="yes"/>
      <point x="80" y="-9"/>
      <point x="15" y="108"/>
    </contour>
    <contour>
      <point x="157" y="230" type="curve" smooth="yes"/>
      <point x="133" y="165"/>
      <point x="152" y="85"/>
      <point x="233" y="84" type="curve" smooth="yes"/>
      <point x="316" y="82"/>
      <point x="395" y="156"/>
      <point x="422" y="230" type="curve" smooth="yes"/>
      <point x="446" y="295"/>
      <point x="426" y="374"/>
      <point x="346" y="376" type="curve" smooth="yes"/>
      <point x="263" y="378"/>
      <point x="184" y="304"/>
    </contour>
    <contour>
      <point x="532" y="501" type="line"/>
      <point x="578" y="473" type="line"/>
      <point x="35" y="-45" type="line"/>
      <point x="-10" y="-18" type="line"/>
    </contour>
  </outline>
</glyph>
<glyph name="ugrave" format="1">
  <advance width="512"/>
  <unicode hex="00F9"/>
  <outline>
    <contour>
      <point x="288" y="0" type="line"/>
      <point x="447" y="460" type="line"/>
      <point x="555" y="460" type="line"/>
      <point x="396" y="0" type="line"/>
    </contour>
    <contour>
      <point x="177" y="180" type="line"/>
      <point x="164" y="138"/>
      <point x="159" y="83"/>
      <point x="216" y="79" type="curve" smooth="yes"/>
      <point x="278" y="75"/>
      <point x="323" y="131"/>
      <point x="351" y="178" type="curve"/>
      <point x="387" y="181" type="line"/>
      <point x="348" y="90"/>
      <point x="275" y="-9"/>
      <point x="165" y="-10" type="curve" smooth="yes"/>
      <point x="59" y="-11"/>
      <point x="41" y="82"/>
      <point x="66" y="167" type="curve"/>
      <point x="167" y="460" type="line"/>
      <point x="273" y="459" type="line"/>
    </contour>
    <contour>
      <point x="316" y="698" type="line"/>
      <point x="415" y="741" type="line"/>
      <point x="506" y="577" type="line"/>
      <point x="440" y="545" type="line"/>
    </contour>
  </outline>
</glyph>
<glyph name="ucircumflex" format="1">
  <advance width="545"/>
  <unicode hex="00FB"/>
  <outline>
    <contour>
      <point x="368" y="0" type="line"/>
      <point x="449" y="460" type="line"/>
      <point x="557" y="460" type="line"/>
      <point x="476" y="0" type="line"/>
    </contour>
    <contour>
      <point x="212" y="180" type="line" smooth="yes"/>
      <point x="200" y="113"/>
      <point x="221" y="77"/>
      <point x="280" y="77" type="curve" smooth="yes"/>
      <point x="341" y="77"/>
      <point x="389" y="119"/>
      <point x="400" y="180" type="curve"/>
      <point x="433" y="182" type="line"/>
      <point x="414" y="73"/>
      <point x="329" y="-10"/>
      <point x="227" y="-10" type="curve" smooth="yes"/>
      <point x="125" y="-10"/>
      <point x="79" y="52"/>
      <point x="99" y="168" type="curve" smooth="yes"/>
      <point x="150" y="460" type="line"/>
      <point x="261" y="460" type="line"/>
    </contour>
    <contour>
      <point x="384" y="636" type="line"/>
      <point x="266" y="545" type="line"/>
      <point x="202" y="598" type="line"/>
      <point x="402" y="738" type="line"/>
      <point x="552" y="598" type="line"/>
      <point x="470" y="545" type="line"/>
    </contour>
  </outline>
</glyph>
<glyph name="udieresis" format="1">
  <advance width="512"/>
  <unicode hex="00FC"/>
  <outline>
    <contour>
      <point x="288" y="0" type="line"/>
      <point x="447" y="460" type="line"/>
      <point x="555" y="460" type="line"/>
      <point x="396" y="0" type="line"/>
    </contour>
    <contour>
      <point x="177" y="180" type="line"/>
      <point x="164" y="138"/>
      <point x="159" y="83"/>
      <point x="216" y="79" type="curve" smooth="yes"/>
      <point x="278" y="75"/>
      <point x="323" y="131"/>
      <point x="351" y="178" type="curve"/>
      <point x="387" y="181" type="line"/>
      <point x="348" y="90"/>
      <point x="275" y="-9"/>
      <point x="165" y="-10" type="curve" smooth="yes"/>
      <point x="59" y="-11"/>
      <point x="41" y="82"/>
      <point x="66" y="167" type="curve"/>
      <point x="167" y="460" type="line"/>
      <point x="274" y="459" type="line"/>
    </contour>
    <contour>
      <point x="448" y="614" type="curve" smooth="yes"/>
      <point x="456" y="645"/>
      <point x="499" y="678"/>
      <point x="532" y="676" type="curve" smooth="yes"/>
      <point x="566" y="674"/>
      <point x="589" y="643"/>
      <point x="581" y="609" type="curve" smooth="yes"/>
      <point x="573" y="577"/>
      <point x="528" y="544"/>
      <point x="495" y="546" type="curve" smooth="yes"/>
      <point x="460" y="548"/>
      <point x="440" y="581"/>
    </contour>
    <contour>
      <point x="243" y="614" type="curve" smooth="yes"/>
      <point x="251" y="645"/>
      <point x="294" y="678"/>
      <point x="327" y="676" type="curve" smooth="yes"/>
      <point x="361" y="674"/>
      <point x="383" y="643"/>
      <point x="375" y="609" type="curve" smooth="yes"/>
      <point x="367" y="577"/>
      <point x="323" y="544"/>
      <point x="290" y="546" type="curve" smooth="yes"/>
      <point x="255" y="548"/>
      <point x="235" y="581"/>
    </contour>
  </outline>
</glyph>
<glyph name="thorn" format="1">
  <advance width="554"/>
  <unicode hex="00FE"/>
  <outline>
    <contour>
      <point x="38" y="-219" type="line"/>
      <point x="-72" y="-220" type="line"/>
      <point x="272" y="780" type="line"/>
      <point x="377" y="779" type="line"/>
    </contour>
    <contour>
      <point x="549" y="230" type="curve" smooth="yes"/>
      <point x="511" y="109"/>
      <point x="396" y="-11"/>
      <point x="262" y="-10" type="curve" smooth="yes"/>
      <point x="130" y="-9"/>
      <point x="118" y="131"/>
      <point x="150" y="230" type="curve" smooth="yes"/>
      <point x="186" y="344"/>
      <point x="281" y="468"/>
      <point x="411" y="469" type="curve" smooth="yes"/>
      <point x="544" y="470"/>
      <point x="584" y="340"/>
    </contour>
    <contour>
      <point x="440" y="230" type="curve" smooth="yes"/>
      <point x="463" y="293"/>
      <point x="447" y="373"/>
      <point x="367" y="374" type="curve" smooth="yes"/>
      <point x="288" y="375"/>
      <point x="215" y="299"/>
      <point x="189" y="230" type="curve" smooth="yes"/>
      <point x="168" y="171"/>
      <point x="179" y="90"/>
      <point x="255" y="86" type="curve" smooth="yes"/>
      <point x="337" y="82"/>
      <point x="414" y="159"/>
    </contour>
  </outline>
</glyph>
<glyph name="ydieresis" format="1">
  <advance width="444"/>
  <unicode hex="00FF"/>
  <outline>
    <contour>
      <point x="558" y="459" type="line"/>
      <point x="42" y="-219" type="line"/>
      <point x="-77" y="-219" type="line"/>
      <point x="137" y="60" type="line"/>
      <point x="101" y="460" type="line"/>
      <point x="216" y="460" type="line"/>
      <point x="230" y="96" type="line"/>
      <point x="179" y="100" type="line"/>
      <point x="439" y="459" type="line"/>
    </contour>
    <contour>
      <point x="409" y="599" type="curve" smooth="yes"/>
      <point x="417" y="631"/>
      <point x="461" y="664"/>
      <point x="494" y="662" type="curve" smooth="yes"/>
      <point x="528" y="660"/>
      <point x="549" y="628"/>
      <point x="541" y="594" type="curve" smooth="yes"/>
      <point x="533" y="562"/>
      <point x="489" y="529"/>
      <point x="456" y="531" type="curve" smooth="yes"/>
      <point x="422" y="533"/>
      <point x="401" y="565"/>
    </contour>
    <contour>
      <point x="204" y="599" type="curve" smooth="yes"/>
      <point x="212" y="631"/>
      <point x="255" y="664"/>
      <point x="288" y="662" type="curve" smooth="yes"/>
      <point x="322" y="660"/>
      <point x="344" y="628"/>
      <point x="336" y="594" type="curve" smooth="yes"/>
      <point x="328" y="562"/>
      <point x="284" y="529"/>
      <point x="251" y="531" type="curve" smooth="yes"/>
      <point x="217" y="533"/>
      <point x="196" y="565"/>
    </contour>
  </outline>
</glyph>
